<?xml version="1.0" encoding="utf-8"?>
<!-- Generator: Adobe Illustrator 25.2.0, SVG Export Plug-In . SVG Version: 6.00 Build 0)  -->
<svg version="1.1" id="Shareus_1_" opacity="0.1" xmlns="http://www.w3.org/2000/svg" xmlns:xlink="http://www.w3.org/1999/xlink"
	 x="0px" y="0px" viewBox="0 0 63.7 69.4" style="enable-background:new 0 0 63.7 69.4;" xml:space="preserve">
<style type="text/css">
	.st0{fill:#0086D0;}
	.st1{fill:#F98D8D;}
	.st2{fill:#FFFFFF;}
</style>
<g id="Shareus">
	<g id="XMLID_1_">
		<g>
			<path class="st0" d="M56.5,9.2c-0.2,2.3-0.6,4-1.2,5.1L55,13.7h-5.7l3-2.1C54.4,10,55.8,9.2,56.5,9.2z"/>
			<path class="st0" d="M51,4.8h5.6c-0.8,1.2-2.4,1.8-4.9,1.8l-2.3-0.1L51,4.8z"/>
			<path class="st1" d="M53.8,38.3l2.2,0.1c-0.9,1.1-2.1,2.2-3.8,3.3s-3.4,2-5.1,2.8c0-0.5-0.2-1.4-0.6-2.5
				c-0.4-1.2-0.6-1.9-0.6-2.1c0-0.5,1-0.9,3-1.2C50.9,38.4,52.5,38.3,53.8,38.3z"/>
			<path class="st0" d="M55.4,15.4v4.9c-0.8,0-1.9,0.1-3.2,0.3C51,20.9,49.9,21,48.7,21c0.5-0.7,1.6-1.6,3.4-2.9
				C53.5,17.2,54.6,16.3,55.4,15.4z"/>
			<path class="st0" d="M50.1,30.3c-1.1,0.1-1.9,0.2-2.4,0.2c0.9-1,1.9-1.9,3-2.7c2.1-1.6,3.5-3.2,4.3-4.6c0.3,0.4,0.4,1.4,0.5,3
				s0.1,2.7,0.1,3.5H52C51.8,30,51.2,30.2,50.1,30.3z"/>
			<path class="st1" d="M49.3,8.5c2.6-0.6,4.4-0.8,5.7-0.8c-0.8,0.9-2.5,2-5.1,3.5c-2.8,1.6-4.5,2.8-5.1,3.8l-0.5-4.6
				C45.1,9.7,46.8,9,49.3,8.5z"/>
			<path class="st0" d="M55,59.5c-1.9,1-3.5,1.8-4.6,2.3c-1.2,0.5-2.3,0.7-3.3,0.7c0.8-0.6,2-1.3,3.8-2.2c1.4-0.7,2.4-1.3,3-1.7
				s1.3-1.1,2-2s1.7-1.8,2.9-2.5l0.7,3.4c-0.6,0.2-1.4,0.5-2.3,1C56.1,59,55.4,59.3,55,59.5z"/>
			<path class="st1" d="M49.1,15.8c1.3-0.3,2.6-0.4,4-0.4c-0.7,1-1.9,2-3.6,3.2c-1.7,1.2-3,2-3.9,2.5c-0.8-0.4-1.2-1.6-1.2-3.6
				c0-0.7,0-1.1,0.1-1.3c0.8,0,1.6-0.1,2.5-0.2C48,15.9,48.7,15.8,49.1,15.8z"/>
			<path class="st1" d="M48.2,31.9c2.3-0.5,4-0.8,5-0.8c0.2,0,0.3,0,0.5,0.1c0.1,0.1,0.2,0.2,0.2,0.4c0,0.5-1.2,1.5-3.6,2.9
				c-2.4,1.4-4,2.3-4.9,2.7l-0.6-3.6C44.7,33,45.9,32.4,48.2,31.9z"/>
			<path class="st1" d="M51.3,65.9c-2.3,0-3.9-0.4-4.8-1.2c0.1,0,0.3-0.1,0.6-0.3c0.3-0.2,0.7-0.3,1-0.3L58.6,59
				c0,0.3,0.2,0.9,0.6,2s0.6,2.5,0.6,4.3C57.5,65.7,54.6,65.9,51.3,65.9z"/>
			<path class="st0" d="M56,36.1c0,0.5-1.8,1-5.3,1.4c-1.7,0.2-2.7,0.3-3,0.4c0.1-0.3,1.4-1.4,4-3.2s4-2.7,4.3-2.7V36.1z"/>
			<path class="st1" d="M53.8,51.3c-2.1,0.3-3.5,0.6-4.2,1.1l-0.4-0.5c0.2-0.1,0.3-0.2,0.5-0.4c2.5-1.9,5.3-3.6,8.6-5.3
				c0.3,0.7,0.5,1.6,0.5,2.7c0,0.6-0.5,1.1-1.4,1.4C56.6,50.7,55.4,51,53.8,51.3z"/>
			<path class="st1" d="M42.4,58.3c2.3-2.5,4.6-4.7,6.9-6.5l0.4,0.5c-0.2,0.2-0.3,0.3-0.4,0.5c1.4,0,3.1-0.2,5.2-0.5
				c1.9-0.3,3.3-0.5,4.3-0.5c-0.3,0.6-1.9,1.7-4.7,3.4c-2.8,1.6-4.4,2.6-4.8,2.9c-0.9,0.3-1.7,0.8-2.5,1.3s-1.4,0.9-1.8,1
				c0-0.5-0.1-0.9-0.4-1c-0.3-0.1-0.6-0.3-1.1-0.4C43,58.9,42.6,58.7,42.4,58.3z"/>
			<path class="st1" d="M49.3,4l-0.5,1.4c-0.5,0.3-1.3,0.6-2.2,0.9c-1,0.3-1.7,0.6-2.2,0.8V5c1.5,0,2.2-0.3,2.2-1H49.3z"/>
			<path class="st1" d="M54.3,22.2c-0.2,0.2-1.6,1.5-4.2,4.1c-2.6,2.6-4.4,3.8-5.3,3.8L44.3,30l0.5-7.8c0,0.2,0.3,0.3,1,0.4
				s1.2,0.2,1.5,0.3c0.3,0.1,0.5,0.3,0.7,0.6c0.2,0.3,0.3,0.5,0.5,0.5c0.9,0,1.6-0.4,2.1-1.1c0.6-0.7,1.2-1.1,2-1.1
				c0.3,0,0.6,0.1,1,0.2C54,22,54.2,22.1,54.3,22.2z"/>
			<path class="st0" d="M40.3,59.6h1.3c0,1.5-0.7,2.6-2,3.4c-1.3,0.8-2.8,1.2-4.3,1.2c0-0.3,0.7-1.2,2.2-2.6
				C38.9,60.3,39.9,59.6,40.3,59.6z"/>
			<path class="st0" d="M30.3,55.2c-0.6,0.3-1.5,0.7-2.7,1.4c-1.9,1.3-3.4,2-4.5,2c0.3-0.2,1.1-0.9,2.5-2.1c1.4-1.2,2.5-1.8,3.3-1.8
				c0.2,0,0.4,0,0.7,0.1S30.1,55,30.3,55.2z"/>
			<path class="st0" d="M50.2,46.2v-1.7l7-4.5c0.4,1.3,0.6,2.6,0.6,3.9c-1,0.1-2.3,0.3-3.8,0.7s-2.2,0.7-2.2,1c0,0.1,0.3,0.1,1,0.1
				c1,0,1.8,0,2.5-0.1c-0.6,0.9-1.4,1.7-2.3,2.3c-1,0.6-2.2,1.3-3.6,1.9c-1.1,0.4-2.1,0.9-2.9,1.4c-1.6,0.9-3.1,2-4.5,3.4
				c-3.2,2.2-5.1,3.5-5.6,3.9c-2.2,1.2-4.4,2.4-6.6,3.6c-2.2,1.2-3.8,2-4.6,2.5c0.4-0.8,1-1.5,1.8-2.2c0.7-0.7,1.8-1.5,3.1-2.5
				c2.2-1.7,3.5-3,4.2-3.8c0.5-0.2,1.5-0.5,2.8-1s2.8-1.2,4.2-2c1.5-0.8,2.7-1.8,3.6-3.1c0.2-1.3,0.8-2.3,1.8-2.9
				C47.6,46.5,48.8,46.2,50.2,46.2z"/>
			<path class="st1" d="M25.2,65.9l12.9-6.8c-0.2,0.3-0.9,0.9-2.2,2c-1,0.8-1.9,1.5-2.5,2.1c-0.6,0.7-0.9,1.4-0.9,2.2
				c0,0.5,0.2,0.9,0.5,1c-0.4,0.4-1,0.7-2,0.7L28,67c-0.6-0.1-1.6-0.1-2.9-0.1l-3,0.1C22.2,66.8,23.2,66.5,25.2,65.9z"/>
			<path class="st1" d="M20.8,65.3c-4.2-1.6-7.1-3.5-8.4-5.7l6.8-3.6l6.1-3.1H27c0,0.6-0.4,1.3-1.3,2s-2.1,1.5-3.6,2.4
				c-1.4,0.8-2.5,1.5-3.2,2.1s-1.1,1.2-1.1,1.7c0,0.3,0.1,0.5,0.3,0.6c0.2,0.1,0.4,0.2,0.5,0.3c2.1-0.7,3.3-1.5,3.8-2.3l0.6,0.7
				l3.4-1.8c3.8-2.1,5.7-3.2,5.7-3.2c0.2,0,0.3,0,0.5,0.1s0.3,0.2,0.4,0.4c-0.8,0.3-1.8,0.9-3.1,2c-1.3,1.1-2.6,2.2-3.8,3.5
				C23.2,63.9,21.4,65.3,20.8,65.3z"/>
			<path class="st0" d="M14.4,4.2H17c0,1,0,1.9-0.1,2.8h-0.7c-0.1-0.3-0.4-0.8-1-1.2C14.7,5.3,14.4,4.8,14.4,4.2z"/>
			<path class="st0" d="M15.1,38.8c-1.2,0-2.9,0.5-4.9,1.4c-1.6,0.7-2.6,1-3,1c0-0.6,1.3-2,3.9-4.2s4.2-3.2,4.9-3.2
				c0.3,1,0.6,1.8,0.9,2.6c0.3,1,0.6,1.9,0.9,2.7l-1,0.3C16.7,39,16.1,38.8,15.1,38.8z"/>
			<path class="st1" d="M16.5,52.6c-2.1,1.1-3.6,2.2-4.7,3.1l-0.6,0.1c-0.4,0-0.8-0.3-1-0.8c-0.3-0.5-0.5-0.9-0.6-1l11.8-5.5H22
				C20.9,49.7,19.1,51,16.5,52.6z"/>
			<path class="st0" d="M15.6,16.5v5.2c-2.6,0.5-5.5,1.8-8.8,3.9l-1.2-0.3c0.9-0.7,2-1.9,3.5-3.5C11.4,19.1,13.6,17.3,15.6,16.5z"/>
			<path class="st1" d="M14.6,31.1l1,0.5c-0.3,0.4-1.5,1.1-3.4,2.3C10.3,35,8.7,36.1,7.6,37s-1.8,2-2,3v-5c0-0.5,1.3-1.3,3.9-2.3
				S13.8,31.1,14.6,31.1z"/>
			<path class="st0" d="M15.2,56.2c-0.1,0.1-0.3,0.3-0.6,0.7s-0.6,0.6-0.8,0.6s-0.3,0-0.4-0.1c0.2-1,1.7-2.5,4.6-4.4s4.9-3,6.1-3.4
				c0,0.3,0.1,0.6,0.3,1.1c0.2,0.5,0.3,0.9,0.3,1.1L15.2,56.2z"/>
			<path class="st0" d="M14,50.8c0.8-1.1,1.8-2.1,3.1-2.9c1.3-0.8,2.5-1.2,3.8-1.2c0,0.4-0.4,0.9-1.2,1.4c-0.8,0.5-1.9,1.1-3.2,1.6
				C15.2,50.2,14.4,50.6,14,50.8z"/>
			<path class="st0" d="M12.1,44.7c1.2-0.9,2.2-1.7,3-2.4s1.3-1.7,1.7-2.8l1-0.3c0.7,2.2,1.1,4,1.2,5.4c0,0.3-0.8,0.7-2.5,1.2
				c-1.7,0.6-2.7,0.9-3.2,1.1l-3.1,1c-0.2,0.1-0.5,0.3-1,0.5c-0.4,0.3-0.9,0.4-1.3,0.5C8.5,47.7,9.9,46.3,12.1,44.7z"/>
			<path class="st0" d="M5.1,4.2h6.8c-1,0.7-2.1,1.6-3.5,2.6C6.9,7.9,6,8.5,5.6,8.8H5.1V4.2z"/>
			<path class="st1" d="M12.9,8.8c-0.9,1-2.1,2.1-3.6,3.3s-2.9,2.1-4.2,2.8L5,12.8c0-0.9,0.2-1.5,0.6-1.8c0.2-0.1,1.2-0.5,3-1.2
				C10.4,9.1,11.8,8.8,12.9,8.8z"/>
			<path class="st1" d="M8.6,41.9c2-0.8,4.2-1.6,6.6-2.4l-0.1,1.2c-1.4,0.8-2.9,1.8-4.4,3s-2.9,2.5-3.9,3.8c-0.1-0.4-0.3-1-0.7-1.7
				c-0.3-0.7-0.5-1.2-0.5-1.4C5.6,43.5,6.6,42.7,8.6,41.9z"/>
			<path class="st1" d="M10.5,18.3c-0.7,0.9-1.6,1.8-2.7,2.7s-1.9,1.5-2.7,1.8l-0.5-3.4c0-0.4,0.2-0.6,0.7-0.9s1.2-0.5,2-0.7
				c0.9-0.2,1.4-0.4,1.7-0.5s0.7-0.2,1.4-0.3c0.7-0.1,1.2-0.3,1.4-0.4C11.6,16.8,11.2,17.4,10.5,18.3z"/>
			<path class="st1" d="M8.4,50.8c0.9-0.3,1.8-0.6,2.5-1.2c0.7-0.5,1-0.9,1-1l3.6-1.2c-0.8,0.7-2,1.7-3.6,3c-1.7,1.3-2.7,2-3,2H8.4
				V50.8z"/>
			<path class="st0" d="M16.2,29.3l-9.5,3.4c0.6-1.6,2.3-3.4,5.1-5.2c1.6-1,2.8-2,3.8-3.1l0.7,0.7v4.2H16.2z"/>
			<path class="st0" d="M4.5,17.1c1.2-0.4,3.5-2,6.8-4.9s4.9-4.7,4.9-5.2L17,7c-0.2,5.3-1,7.9-2.4,7.9l-9,2.2H4.5z"/>
			<path class="st1" d="M6.1,26.6v0.5c0.3,0,1.8-0.7,4.4-2.1c2.8-1.6,4.5-2.3,5.1-2.3c-0.9,0.6-2.4,1.9-4.7,3.8s-4,3.5-5.3,4.7v-4
				L6.1,26.6z"/>
			<path d="M27.6,56.6c1.2-0.7,2.1-1.2,2.7-1.4c-0.2-0.2-0.4-0.3-0.7-0.4c-0.3-0.1-0.5-0.1-0.7-0.1c-0.8,0-1.9,0.6-3.3,1.8
				s-2.3,1.9-2.5,2.1C24.1,58.6,25.6,57.9,27.6,56.6z M38.1,59.1l-12.9,6.8c-2,0.6-3,1-3,1l3-0.1c1.3,0,2.2,0,2.9,0.1l3,0.1
				c1,0,1.6-0.2,2-0.7c-0.4-0.2-0.5-0.5-0.5-1c0-0.8,0.3-1.5,0.9-2.2c0.6-0.6,1.4-1.4,2.5-2.1C37.2,60,37.9,59.4,38.1,59.1z
				 M40.3,59.6c-0.4,0-1.4,0.7-2.9,2.1c-1.5,1.4-2.2,2.2-2.2,2.6c1.6,0,3-0.4,4.3-1.2c1.4-0.8,2-2,2-3.4L40.3,59.6L40.3,59.6z
				 M17.2,47.8c-1.3,0.8-2.3,1.8-3.1,2.9c0.3-0.2,1.2-0.5,2.5-1.1s2.4-1.1,3.2-1.6c0.8-0.5,1.2-1,1.2-1.4
				C19.7,46.6,18.5,47,17.2,47.8z M19.1,56l-6.8,3.6c1.4,2.2,4.2,4.2,8.4,5.7c0.6,0,2.4-1.4,5.3-4.2c1.2-1.2,2.5-2.4,3.8-3.5
				s2.3-1.8,3.1-2c-0.1-0.2-0.2-0.3-0.4-0.4c-0.2-0.1-0.4-0.1-0.5-0.1c0,0.1-1.9,1.2-5.7,3.2l-3.3,2l-0.6-0.7
				c-0.4,0.9-1.7,1.7-3.8,2.3c-0.1-0.1-0.2-0.2-0.5-0.3c-0.2-0.1-0.3-0.3-0.3-0.6c0-0.5,0.4-1.1,1.1-1.7c0.7-0.6,1.8-1.3,3.2-2.1
				c1.6-0.9,2.8-1.7,3.6-2.4c0.9-0.7,1.3-1.4,1.3-2h-1.8L19.1,56z M14.6,56.9c0.3-0.4,0.5-0.6,0.6-0.7l9.5-4.4
				c0-0.3-0.1-0.6-0.3-1.1c-0.2-0.5-0.3-0.8-0.3-1.1C22.9,50,20.9,51.2,18,53c-2.9,1.9-4.4,3.3-4.6,4.4c0.1,0.1,0.2,0.1,0.4,0.1
				C14,57.5,14.3,57.3,14.6,56.9z M51,4.8l-1.7,1.7l2.3,0.1c2.5,0,4.2-0.6,4.9-1.8H51z M50.2,46.2c-1.4,0-2.6,0.3-3.6,1
				c-1,0.6-1.6,1.6-1.8,2.9c-1,1.3-2.2,2.3-3.6,3.1c-1.5,0.8-2.9,1.4-4.2,2c-1.3,0.5-2.3,0.9-2.8,1c-0.6,0.8-2,2-4.2,3.8
				c-1.3,1-2.3,1.8-3.1,2.5c-0.7,0.7-1.3,1.4-1.8,2.2c0.9-0.4,2.4-1.3,4.6-2.5s4.4-2.4,6.6-3.6c0.5-0.4,2.4-1.7,5.6-3.9
				c1.5-1.4,3-2.5,4.5-3.4c0.8-0.5,1.7-1,2.9-1.4c1.5-0.7,2.7-1.3,3.6-1.9c1-0.6,1.7-1.4,2.3-2.3c-0.7,0.1-1.5,0.1-2.5,0.1
				c-0.7,0-1,0-1-0.1c0-0.3,0.7-0.6,2.2-1s2.7-0.6,3.8-0.7c0-1.3-0.2-2.6-0.6-3.9l-7,4.5L50.2,46.2L50.2,46.2z M49.3,13.7H55
				l0.4,0.5c0.6-1,1-2.7,1.2-5.1c-0.7,0-2.1,0.8-4.3,2.5L49.3,13.7z M50.6,22.8c-0.6,0.7-1.3,1.1-2.1,1.1c-0.2,0-0.4-0.2-0.5-0.5
				c-0.2-0.3-0.4-0.5-0.7-0.6s-0.8-0.2-1.5-0.3s-1-0.2-1-0.4L44.3,30l0.5,0.1c1,0,2.7-1.3,5.3-3.8c2.6-2.6,4-3.9,4.2-4.1
				c-0.1-0.1-0.3-0.2-0.7-0.3c-0.4-0.1-0.7-0.2-1-0.2C51.9,21.7,51.2,22,50.6,22.8z M5.6,31.1c1.3-1.2,3.1-2.8,5.3-4.7
				s3.8-3.2,4.7-3.8c-0.6,0-2.3,0.8-5.1,2.3C7.9,26.3,6.4,27,6.1,27v-0.5L5.6,27V31.1z M6.8,25.6c3.3-2.1,6.2-3.4,8.8-3.9v-5.2
				c-2,0.9-4.2,2.6-6.5,5.3c-1.5,1.6-2.6,2.8-3.5,3.5L6.8,25.6z M49.7,51.5c-0.2,0.1-0.3,0.2-0.5,0.4c-2.3,1.8-4.6,4-6.9,6.5
				c0.3,0.4,0.6,0.6,1.1,0.7c0.5,0.1,0.8,0.3,1.1,0.4c0.3,0.1,0.4,0.5,0.4,1c0.3-0.2,0.9-0.5,1.8-1c0.8-0.5,1.7-1,2.5-1.3
				c0.4-0.3,2-1.2,4.8-2.9s4.3-2.8,4.7-3.4c-1,0-2.4,0.2-4.3,0.5c-2.1,0.3-3.8,0.5-5.2,0.5c0-0.2,0.2-0.3,0.4-0.5
				c0.6-0.4,2-0.8,4.2-1.1c1.6-0.3,2.8-0.6,3.7-0.9c0.9-0.3,1.4-0.8,1.4-1.4c0-1.1-0.2-2-0.5-2.7C55.1,47.9,52.2,49.6,49.7,51.5z
				 M12.1,44.7c-2.2,1.6-3.6,3.1-4.2,4.3c0.4-0.1,0.9-0.3,1.3-0.5c0.4-0.3,0.7-0.4,0.9-0.5l3.1-1c0.5-0.2,1.6-0.5,3.2-1.1
				s2.5-1,2.5-1.2c-0.1-1.4-0.5-3.2-1.2-5.4c-0.2-0.8-0.6-1.7-0.9-2.7c-0.4-0.8-0.6-1.6-0.9-2.6c-0.7,0-2.3,1.1-4.9,3.2
				c-2.6,2.2-3.9,3.5-3.9,4.2c0.4,0,1.4-0.4,3-1c2.1-1,3.7-1.4,4.9-1.4c1,0,1.6,0.2,1.7,0.7c-0.4,1.1-0.9,2.1-1.7,2.8
				C14.3,43,13.3,43.8,12.1,44.7z M50.1,30.3c1.1-0.1,1.7-0.3,1.9-0.6h3.6c0-0.8,0-1.9-0.1-3.5s-0.3-2.6-0.5-3
				c-0.8,1.4-2.2,2.9-4.3,4.6c-1.1,0.9-2.1,1.8-3,2.7C48.2,30.5,49,30.4,50.1,30.3z M50.2,34.5c2.4-1.4,3.6-2.3,3.6-2.9
				c0-0.2-0.1-0.3-0.2-0.4c-0.1-0.1-0.3-0.1-0.5-0.1c-1,0-2.7,0.3-5,0.8c-2.3,0.5-3.4,1.1-3.4,1.7l0.6,3.6
				C46.2,36.8,47.9,35.9,50.2,34.5z M55.4,15.4c-0.8,0.9-1.9,1.8-3.2,2.7c-1.7,1.2-2.9,2.2-3.4,2.9c1.1,0,2.2-0.1,3.4-0.4
				c1.4-0.2,2.5-0.3,3.2-0.3V15.4z M10.7,43.6c1.6-1.2,3-2.2,4.4-3l0.1-1.2c-2.3,0.8-4.5,1.6-6.6,2.4c-2,0.8-3,1.6-3,2.4
				c0,0.3,0.2,0.7,0.5,1.4s0.6,1.3,0.7,1.7C7.8,46.1,9.1,44.8,10.7,43.6z M6.8,32.7l9.5-3.4V25l-0.7-0.7c-1,1.1-2.2,2.2-3.8,3.1
				C9,29.3,7.4,31.1,6.8,32.7z M21.3,48.6L9.5,54c0.2,0.2,0.4,0.5,0.6,1c0.3,0.5,0.6,0.8,1,0.8l0.6-0.1c1-1,2.6-2,4.7-3.1
				c2.6-1.6,4.4-2.9,5.5-4C21.9,48.6,21.3,48.6,21.3,48.6z M12,50.4c1.6-1.3,2.9-2.3,3.6-3L12,48.6c0,0.2-0.4,0.5-1,1
				c-0.7,0.5-1.5,0.9-2.5,1.2v1.6H9C9.3,52.3,10.3,51.7,12,50.4z M46.5,6.3c1-0.3,1.7-0.7,2.2-0.9L49.3,4h-2.7c0,0.7-0.7,1-2.2,1
				v2.1C44.8,6.9,45.6,6.7,46.5,6.3z M7.1,56c-3-5.9-4.9-12.2-5.7-19S0.2,22.3,0.2,13.4c0-3.2,0.1-5.7,0.3-7.5
				C0.7,4,1.1,2.5,1.7,1.4h16.2L19.6,2c0.6,0.3,0.9,1.3,0.9,3.1c0,1.2-0.1,2.6-0.4,4.3s-0.4,2.7-0.5,3.2c-0.6,2.9-0.9,5.1-0.9,6.6
				c0,3.1,0.3,6.9,0.9,11.3l0.5,4.9c0.2,2.5,1,5,2.5,7.6s3.3,4.7,5.3,6.3c2,1.7,4,2.5,5.8,2.5c1,0,1.8-0.2,2.4-0.5
				c0.6-0.3,1.2-0.5,1.6-0.5c0.7,0,1.3,0.1,2,0.3c1.3,0,2.3-0.7,2.9-2c0.6-1.3,1-2.8,1-4.4c0-1.2-0.4-3.2-1-6
				c-0.9-3-1.3-5.5-1.3-7.7l0.1-5.6l-0.6-20c0-1.5,0.1-2.7,0.4-3.6c0.3-0.9,0.8-1.4,1.7-1.4c1.7,0.2,5,0.6,9.8,1.2s7.2,1.2,7.2,1.6
				c0,1.7-0.2,4.2-0.5,7.5c-0.4,2.8-0.7,5.3-0.7,7.7s0.1,4.8,0.4,7.3c0.2,3.1,0.3,5.5,0.3,7l2.7,15.9L62,50.4c0,1.8,0.3,4.5,0.8,7.9
				c0.1,0.7,0.2,1.8,0.4,3.4c0.2,1.6,0.3,3,0.3,4.2c0,1.5-2.4,2.2-7.1,2.2c-2.5,0-4.2-0.1-5.1-0.1h-3c-0.4-0.4-1.6-0.7-3.5-0.9
				c-1.8-0.2-3.1-0.4-3.8-0.8c-0.4,0-1.3,0.3-2.9,1c-1.9,1-3.4,1.6-4.4,1.7L22,68.7l-1.2-0.6C14.6,65.9,10.1,61.9,7.1,56z
				 M45.6,21.1c0.9-0.4,2.2-1.3,3.9-2.5s2.9-2.3,3.6-3.2c-1.4,0-2.7,0.1-4,0.4c-0.4,0-1.1,0.1-2,0.2c-0.9,0.1-1.8,0.2-2.5,0.2
				c-0.1,0.2-0.1,0.6-0.1,1.3C44.5,19.5,44.8,20.7,45.6,21.1z M5.3,18.4c-0.5,0.3-0.7,0.6-0.7,0.9l0.5,3.4c0.8-0.3,1.7-0.9,2.7-1.8
				s1.9-1.8,2.7-2.7c0.7-0.9,1.2-1.5,1.4-1.8c-0.3,0.2-0.7,0.3-1.4,0.4C9.7,17,9.2,17.1,9,17.2c-0.3,0.1-0.8,0.2-1.7,0.5
				C6.4,17.9,5.7,18.1,5.3,18.4z M48.9,38.7c-2,0.3-3,0.7-3,1.2c0,0.3,0.2,1,0.6,2.1c0.4,1.2,0.6,2,0.6,2.5c1.7-0.8,3.4-1.7,5.1-2.8
				c1.7-1.1,3-2.2,3.8-3.3l-2.2-0.1C52.5,38.3,50.9,38.4,48.9,38.7z M44.8,14.9c0.6-1,2.3-2.2,5.1-3.8c2.6-1.5,4.3-2.6,5.1-3.5
				c-1.2,0-3.1,0.3-5.7,0.8c-2.5,0.6-4.2,1.2-5,1.9L44.8,14.9z M48.2,64.2c-0.3,0-0.7,0.1-1,0.3c-0.3,0.2-0.6,0.3-0.6,0.3
				c0.9,0.8,2.5,1.2,4.8,1.2c3.3,0,6.2-0.2,8.6-0.5c0-1.8-0.2-3.2-0.6-4.3s-0.6-1.7-0.6-2L48.2,64.2z M4.5,17.1h1l9-2.2
				c1.4,0,2.2-2.6,2.4-7.9C17,6.1,17,5.2,17,4.2h-2.6c0,0.5,0.3,1,0.8,1.5c0.6,0.5,0.9,0.9,1,1.2c0,0.5-1.7,2.2-4.9,5.2
				C8,15.1,5.8,16.8,4.5,17.1z M5.1,4.2v4.5h0.5C6,8.5,6.9,7.9,8.3,6.8c1.4-1,2.6-1.9,3.5-2.6C11.8,4.2,5.1,4.2,5.1,4.2z M47.7,37.9
				c0.3-0.1,1.3-0.2,3-0.4c3.5-0.4,5.3-0.9,5.3-1.4v-4c-0.3,0-1.7,0.9-4.3,2.7C49.1,36.5,47.8,37.6,47.7,37.9z M5.6,40
				c0.2-1,0.8-1.9,2-2.9s2.7-2,4.6-3.1c1.9-1.2,3-2,3.4-2.3l-1-0.5c-0.8,0-2.5,0.5-5.1,1.6c-2.6,1-3.9,1.8-3.9,2.3V40z M5.1,14.9
				c1.3-0.7,2.7-1.6,4.2-2.8s2.7-2.3,3.6-3.3c-1,0-2.5,0.4-4.3,1c-1.8,0.7-2.8,1.1-3,1.2C5.2,11.4,5,11.9,5,12.8L5.1,14.9z
				 M47.1,62.5c1,0,2.1-0.2,3.3-0.7s2.7-1.2,4.6-2.3c0.4-0.2,1.1-0.5,2.1-1s1.7-0.9,2.3-1L58.8,54c-1.2,0.8-2.2,1.6-2.9,2.5
				s-1.4,1.6-2,2s-1.6,1-3,1.7C49.1,61.1,47.8,61.9,47.1,62.5z"/>
		</g>
	</g>
</g>
<g id="Flêche_1_">
	<g id="XMLID_2_">
		<g>
			<path d="M33.9,16.7L33.9,16.7c0.1,0.1,0.2,0.1,0.2,0.1c0.3,0,0.7-0.1,1.1-0.4c0.4-0.3,0.7-0.6,1-0.9c-0.2,0-0.8,0.3-1.6,0.8
				C34.1,16.5,33.9,16.7,33.9,16.7z M39,14.2c0,0.2,0,0.5-0.1,1c-0.1,0.2-0.1,0.5-0.1,0.8v1.1l-0.1,0.2h-1.1c-0.4,0-1,0.1-1.6,0.2
				c-0.2,0-0.4,0.1-0.8,0.1c-0.4,0-0.8,0.1-1.1,0.1h-0.6c-0.2,0-0.4,0-0.7,0.1V18c0,0.4,0.1,1.1,0.3,1.9l0.1,0.7
				c0.3,1.6,0.4,3.5,0.4,5.7c0,0.8,0,1.5-0.1,2.3c0,0.9-0.1,1.7-0.1,2.2c0,0.6,0,1.1,0.1,1.7c0,0.8,0.1,1.3,0.1,1.7
				c0,0.2,0,0.4-0.1,0.5s-0.2,0.2-0.4,0.2l-4.2-0.3c-0.3,0-0.4-0.3-0.5-0.9c-0.1-0.6-0.1-1.2-0.1-1.7v-1c-0.1-0.9-0.3-2-0.5-3.3
				c0-1,0-2.3,0.1-3.8c0-1.3,0.1-2.4,0.1-3.1c0-0.3,0-0.4-0.1-0.5c0-0.3-0.1-0.8-0.1-1.5c-0.1-0.6-0.1-0.9-0.1-0.9h-2.3l-0.3-0.1
				c-0.4,0-0.7,0.1-0.9,0.1c-0.3,0-0.7,0-1.1-0.1c-0.5-0.1-0.7-0.2-0.7-0.4l-0.1-3c0,0,0-0.1-0.1-0.2c0-0.1,0-0.2-0.1-0.2
				c0-0.1,0.2-0.2,0.5-0.3c-0.1,0.1-0.1,0.1-0.1,0.1c0,0.1,0,0.1,0,0.2c0.2-0.1,0.4-0.1,0.7-0.1c0.1,0,0.2,0,0.3,0
				c0-0.1,0.1-0.2,0.1-0.4c0.3,0,0.6,0,0.9,0c0.1,0,0.1,0,0.2,0c0,0.1,0,0.2,0,0.3s0,0.1,0,0.2c0.1,0,0.1,0,0.2,0s0.2,0,0.3,0
				c0-0.1,0-0.3,0-0.4c0.1,0,0.1,0,0.2,0c0.2,0,0.4,0,0.7,0c0.1,0.1,0.1,0.2,0.2,0.3c0.1-0.1,0.1-0.2,0.2-0.3c0.1,0,0.2,0,0.4,0
				c-0.1,0.2-0.2,0.3-0.2,0.5c0.1,0,0.2,0,0.3,0c0.1,0,0.2,0,0.3,0c0-0.1,0.1-0.1,0.1-0.2c0-0.1,0.1-0.2,0.1-0.3
				c1.4,0,2.5,0.1,3,0.1c0.2,0,0.5,0,0.9,0c0.1,0,0.3,0,0.7,0c0.3,0,0.6,0.1,0.8,0.2c0.1,0.1,0.2,0.2,0.3,0.4c0.2,0,0.3-0.1,0.5-0.1
				s0.3,0,0.5,0.1c0-0.1,0-0.2,0-0.3h0.7c0,0.1,0,0.2,0,0.3c0,0,0.1,0,0.2,0v-0.1c0-0.1,0-0.2,0-0.2h0.5c0,0.1-0.1,0.2-0.1,0.4
				c0.1,0,0.2,0,0.2,0c0-0.2,0.1-0.3,0.1-0.3c0.1,0,0.1,0,0.2-0.1h1.5v0.1c0,0.2-0.1,0.3-0.2,0.4l0.2,0.1l0.2-0.3
				c0,0.2-0.1,0.3,0,0.5v0.1c0.1,0,0.2-0.1,0.2-0.1c0-0.1,0-0.1,0-0.2c0-0.2,0-0.4,0-0.6h0.3c0.1,0.2,0.2,0.5,0.2,0.6h0.1
				c0.1,0,0.2,0,0.4,0c0.1-0.1,0.2-0.2,0.3-0.2c-0.1-0.2-0.1-0.3-0.2-0.4c0.1,0,0.1,0,0.2,0c0,0.1,0.1,0.1,0.1,0.2
				C38.9,14,39,14.1,39,14.2z M38.3,16.7v-1c-0.2,0.1-0.5,0.3-0.9,0.5s-0.8,0.3-1.1,0.4L38.3,16.7z M38.2,15.2v-0.7
				c-0.1,0-0.3,0.1-0.5,0.2c-0.2,0.1-0.3,0.3-0.3,0.4v0.1c-0.3,0.1-0.7,0.3-1.1,0.6c-0.4,0.3-0.8,0.6-0.9,0.9
				c0.6-0.3,1.2-0.6,1.7-0.9C37.7,15.5,38.1,15.3,38.2,15.2z M36.9,14.4c-0.4,0-0.7,0-0.8,0.1c0,0-0.5,0.3-1.4,1
				c-0.9,0.7-1.4,1.1-1.5,1.2h0.2l1-0.8V16c0.1-0.1,0.3-0.2,0.5-0.4c0.3-0.1,0.5-0.3,0.8-0.4C36.5,14.8,36.9,14.5,36.9,14.4z
				 M35.2,14.4v-0.1l-1.8,0.1v0.2c0,0.2-0.1,0.3-0.2,0.5c-0.1,0.1-0.2,0.2-0.2,0.3c-0.3,0.2-0.4,0.5-0.4,0.7L35.2,14.4z M33,26.3
				L32.8,26c-0.1,0.2-0.2,0.4-0.4,0.5s-0.3,0.2-0.6,0.4c-0.2,0.1-0.4,0.2-0.5,0.4c-0.1,0.1-0.3,0.2-0.5,0.4
				c-0.3,0.2-0.5,0.4-0.8,0.5v0.1c0.3,0,0.6-0.1,0.9-0.2c0.4-0.2,0.8-0.2,1.1-0.2c0,0.2-0.2,0.5-0.4,0.7c-0.3,0.2-0.7,0.5-1.1,0.8
				c-0.6,0.3-0.8,0.5-0.8,0.7c0.1-0.1,0.3-0.2,0.7-0.4c0.3-0.2,0.6-0.3,0.9-0.4s0.5-0.2,0.8-0.2c0.1,0,0.2,0,0.2,0s0.1,0.1,0.1,0.2
				c0,0.2-0.5,0.6-1.6,1.2c-0.2,0.1-0.4,0.2-0.6,0.4c-0.3,0.2-0.5,0.3-0.6,0.4c0.2,0,0.5-0.1,0.8-0.2s0.6-0.2,0.7-0.2
				c0,0,0.1,0,0.1,0.1l0.1,0.1c0,0,0-0.1,0.1-0.2s0.2-0.2,0.2-0.2c0.1,0,0.2,0,0.3,0.1c0.1,0.1,0.2,0.2,0.2,0.2
				c0,0.2-0.1,0.3-0.4,0.5s-0.7,0.4-1.3,0.8c-0.4,0.2-0.7,0.4-0.7,0.4c0.1,0,0.2,0.1,0.2,0.3c0,0.1-0.1,0.2-0.2,0.3
				s-0.1,0.2-0.1,0.3s0,0.2,0,0.2s0.1,0.1,0.3,0.1c0.2,0,0.3,0,0.4-0.1s0.2-0.2,0.2-0.3c0.1-0.2,0.2-0.3,0.3-0.3
				c0.1-0.1,0.2-0.1,0.5-0.1c0.2,0,0.2,0.1,0.3,0.2c0,0.1-0.1,0.1-0.2,0.2c-0.1,0-0.2,0.1-0.3,0.1c0.4,0.1,0.8,0.2,1.3,0.3
				c0.5,0.1,0.8,0.1,1,0.2c0-0.1,0-0.3-0.1-0.6c-0.1-0.2-0.1-0.4-0.1-0.5c0,0,0-0.1,0.1-0.1l-0.1-0.1c0,0-0.1,0-0.2,0
				c-0.1,0-0.1,0.1-0.2,0.2c0,0.1,0,0.2-0.1,0.3c0,0.1-0.2,0.1-0.4,0.1s-0.3,0-0.3-0.1c0,0-0.1-0.1-0.1-0.2c0-0.1-0.1-0.1-0.1-0.2
				c0-0.1,0.1-0.1,0.2-0.2c0.1-0.1,0.1-0.1,0.2-0.2c-0.1,0-0.3,0-0.6,0.1c-0.3,0.1-0.5,0.1-0.6,0.1c0-0.2,0.4-0.4,1.3-0.7
				c0.6-0.2,0.8-0.3,0.8-0.4v-2.4c0,0,0.1-0.2,0.1-0.5s0-0.6,0-0.7c0-0.9,0-1.4,0.1-1.4L33,26.3z M32.9,14.8c0-0.1,0.1-0.2,0.1-0.3
				c-0.1,0.1-0.3,0.1-0.5,0.2c-0.2,0-0.3,0.1-0.5,0.1c-0.4,0.2-0.9,0.5-1.5,0.9c-0.4,0.3-0.8,0.6-1.1,0.7c-0.3,0.2-0.6,0.3-1,0.4
				l0.2,0.3c0.1-0.1,0.2-0.1,0.3-0.2c0.1-0.1,0.3-0.1,0.3-0.1l-0.6,0.7c0,0,0,0.1,0.1,0.1s0.1,0.1,0.1,0.1c0.6-0.2,1.4-0.7,2.2-1.4
				c0.8-0.7,1.3-1.1,1.3-1.1c0.1,0,0.2-0.1,0.4-0.1C32.7,14.9,32.8,14.8,32.9,14.8z M32.8,25.2c0-0.1,0-0.3-0.1-0.4
				s-0.1-0.3-0.1-0.4c0-0.2,0-0.3,0.1-0.4c0-0.1,0.1-0.2,0.1-0.3c0-0.2,0-0.4-0.1-0.6s-0.1-0.4-0.2-0.6c0,0.1-0.1,0.3-0.3,0.5
				s-0.3,0.3-0.5,0.4c-0.2,0-0.5,0.1-0.7,0.2s-0.5,0.4-0.8,0.7c-0.4,0.4-0.8,0.7-1,0.8v0.2c0.3,0,0.6,0,0.8-0.1
				c0.3-0.1,0.4-0.1,0.5-0.1c0.6-0.2,1.1-0.3,1.4-0.3c0,0.2-0.1,0.4-0.4,0.7c-0.3,0.2-0.7,0.5-1.3,0.9c-0.4,0.2-0.7,0.4-0.9,0.6
				l2.8-1.1c0.1,0.1,0.2,0.1,0.3,0.1C32.7,26,32.8,25.7,32.8,25.2z M32.5,22.2c0-0.7-0.1-1.7-0.2-2.9c-0.1-1.2-0.3-1.8-0.4-1.8
				c-0.2,0-0.6,0.2-1.2,0.6c-0.1,0-0.3,0.2-0.6,0.4c-0.3,0.2-0.6,0.3-0.8,0.4h0.4l1.9-0.6h0.1c0.1,0,0.2,0,0.3,0.1L31.3,19
				c-0.1,0.1-0.3,0.2-0.6,0.3c-0.3,0.1-0.5,0.3-0.7,0.4s-0.3,0.3-0.3,0.4c0.2,0,0.5-0.1,1-0.2c0.4-0.1,0.8-0.2,1-0.2V20
				c0,0.1,0,0.2-0.1,0.3c-0.1,0.1-0.2,0.2-0.5,0.3c-0.2,0.1-0.4,0.2-0.4,0.3c-0.3,0.2-0.7,0.6-1.2,1.2l2-0.9c0,0,0.1,0,0.2,0.1
				c0.1,0,0.2,0.1,0.2,0.2c0,0.3-0.2,0.6-0.5,0.8c-0.4,0.2-0.9,0.5-1.5,0.9c-0.5,0.3-0.9,0.4-1,0.5c-0.3,0.2-0.4,0.8-0.4,1.7
				c0.1,0,0.6-0.3,1.4-1c0.8-0.6,1.3-1,1.4-1.2c-0.2,0-0.6,0.1-1,0.4v-0.2c-0.2,0.3-0.7,0.5-1.3,0.7v-0.3c0.2,0,0.4,0,0.6-0.1
				s0.5-0.3,0.9-0.5c0.4-0.3,0.8-0.5,1.1-0.6C31.9,22.3,32.2,22.2,32.5,22.2z M31.8,16.6c-0.1,0-0.2-0.1-0.2-0.2s0-0.1,0-0.2
				c-0.8,0.7-1.6,1.2-2.5,1.6c0,0,0,0.1,0.1,0.1h0.1c0.1,0,0.1,0,0.2-0.1s0.2-0.1,0.3-0.1c0,0.1-0.1,0.2-0.2,0.2
				C29.5,18,29.4,18,29.3,18c-0.1,0-0.2,0.1-0.2,0.1c-0.4,0.1-0.6,0.2-0.6,0.5c0,0.1,0,0.1,0.1,0.1l1.3-0.6c0,0,0.1-0.1,0.2-0.4
				v-0.2l0.4,0.1c0.1-0.1,0.4-0.2,0.7-0.5C31.5,16.9,31.7,16.7,31.8,16.6z M31.4,26.5L30.1,27c-0.1,0-0.3,0.1-0.6,0.1
				c-0.3,0-0.5,0.1-0.7,0.2s-0.2,0.3-0.2,0.5v0.7c0,0.3,0,0.6,0.1,0.8c0,0.2,0.1,0.4,0.2,0.6c0.1-0.1,0.4-0.3,0.7-0.5
				c0.3-0.2,0.6-0.4,0.7-0.5c0.2-0.1,0.3-0.3,0.3-0.5c-0.1,0-0.2,0.1-0.4,0.1c-0.2,0.1-0.3,0.2-0.4,0.3c0-0.1-0.1-0.1-0.2-0.1
				s-0.2,0-0.3,0c-0.1,0-0.1,0-0.1,0c0-0.3,0.1-0.5,0.3-0.7c0.2-0.2,0.5-0.5,0.9-0.7C31,26.9,31.3,26.7,31.4,26.5z M31.7,14.3
				c-0.2,0-0.4,0-0.5,0s-0.3,0-0.4,0s-0.2,0-0.3-0.1h-1.1l-0.1,0.3c0.1,0,0.2,0,0.3-0.1c0.1,0,0.2-0.1,0.3-0.1c0,0,0.1,0,0.2,0.1
				c-0.1,0.1-0.2,0.2-0.4,0.3c-0.2,0.1-0.3,0.1-0.4,0.1l-0.4-0.1c0,0.1-0.2,0.4-0.7,0.9c-0.5,0.5-0.9,0.8-1.1,0.8v-0.1v-0.1
				c0-0.1,0.1-0.2,0.2-0.3s0.2-0.2,0.2-0.3h-0.3c-0.2,0.2-0.4,0.4-0.8,0.6s-0.6,0.3-0.6,0.4h-0.1l-0.1,0.1h0.8
				c0.6,0,1.2-0.1,1.9-0.4c0.7-0.2,1-0.5,1-0.8v-0.2c-0.1,0.1-0.3,0.2-0.5,0.2h-0.2c0.1-0.2,0.3-0.3,0.6-0.5
				c0.3-0.1,0.5-0.2,0.8-0.3s0.4-0.1,0.5-0.1s0.3-0.1,0.6-0.2C31.5,14.5,31.6,14.4,31.7,14.3z M31.3,19.9c-0.2,0.1-0.5,0.3-0.8,0.4
				c-0.4,0.1-0.7,0.2-0.9,0.2v-0.3c-0.1,0-0.3,0.1-0.6,0.3c-0.3,0.2-0.4,0.3-0.4,0.4l0.1,2.7c0.1-0.1,0.4-0.3,0.9-0.6
				c0.5-0.4,0.8-0.6,0.8-0.8c-0.2,0-0.4,0.1-0.7,0.3c-0.3,0.1-0.5,0.2-0.7,0.2l-0.1-0.1l-0.1-0.1c0,0,0.1-0.2,0.3-0.3
				c0.2-0.2,0.3-0.3,0.4-0.4s0.4-0.3,1-0.7C31,20.4,31.3,20.1,31.3,19.9z M30.4,31.8c0.2-0.1,0.2-0.2,0.2-0.3c-0.2,0-0.5,0-0.8,0.1
				s-0.6,0.2-0.8,0.2v0.8c0.2-0.1,0.4-0.2,0.7-0.4C30,32,30.3,31.9,30.4,31.8z M30.4,30.1L30.4,30.1c-0.3-0.1-0.6,0-1,0.2
				c-0.4,0.1-0.5,0.3-0.5,0.5c0,0.1,0,0.2,0,0.3c0,0.1,0.1,0.2,0.1,0.2c0.1-0.1,0.3-0.3,0.7-0.6C30.2,30.3,30.4,30.2,30.4,30.1z
				 M30.2,19.3c0.2-0.2,0.4-0.4,0.6-0.5c-0.5,0-1,0.1-1.5,0.3c-0.5,0.2-0.7,0.5-0.7,1c0.3,0,0.6-0.1,0.9-0.3
				C29.7,19.7,29.9,19.5,30.2,19.3z M30.1,25.9c0.2-0.2,0.5-0.4,0.8-0.5c-0.3,0-0.7,0.1-1.2,0.2s-0.9,0.2-1.1,0.2v1.4l0.2-0.1
				l0.6-0.6C29.6,26.3,29.8,26.1,30.1,25.9z M28.6,14.2c-0.1,0-0.2-0.1-0.5-0.1c-0.2,0-0.4,0.1-0.7,0.3c-0.3,0.2-0.5,0.4-0.6,0.5
				c0,0-0.1,0.1-0.3,0.4c-0.2,0.3-0.4,0.5-0.7,0.7v0.1c0.4-0.2,0.9-0.4,1.5-0.9S28.3,14.5,28.6,14.2z M26.8,14.2h-0.7
				c-0.5,0-1,0.2-1.5,0.5c-0.5,0.4-0.8,0.8-0.8,1.3c0.2,0,0.7-0.2,1.5-0.7C26.2,14.7,26.6,14.4,26.8,14.2z M26,15.2l-1.7,0.9h-0.1
				c-0.2,0-0.4,0.2-0.7,0.6h1.3c0.1,0,0.3-0.2,0.5-0.5C25.6,15.9,25.8,15.5,26,15.2z M24.7,14c-0.1,0-0.2,0.1-0.3,0.1
				c-0.1,0-0.2,0-0.2,0c-0.1,0-0.1,0-0.2,0h-0.4c-0.1,0-0.2,0-0.2,0c-0.2,0-0.4,0-0.5,0.1s-0.2,0.2-0.2,0.4s0.1,0.4,0.2,0.7
				S23,15.9,23,16c-0.1,0.3-0.2,0.4-0.2,0.5H23c0.1,0,0.3-0.2,0.5-0.7c0.2-0.4,0.4-0.7,0.5-1C24.1,14.4,24.4,14.2,24.7,14z"/>
			<path d="M38.6,13.8c0.1,0.1,0.1,0.3,0.2,0.4c-0.1,0.1-0.2,0.1-0.3,0.2c-0.1,0-0.2,0-0.4,0H38c0-0.2,0-0.4-0.1-0.6H38.6L38.6,13.8
				z"/>
			<path d="M38.6,13.8L38.6,13.8h-0.8l0,0c-0.2-0.5-0.4-0.9-0.5-1.2S37,12.2,36.8,12c-0.3,0.5-0.4,0.8-0.3,1.1L36.3,13l-0.1-1.1
				c0,0.1-0.1,0.2-0.2,0.5c-0.1,0.3-0.2,0.5-0.2,0.7L35.7,13c0,0.1,0.1,0.2,0.1,0.4c0,0.1,0,0.2-0.1,0.3l0,0h-0.4
				c0.1-0.2,0.1-0.4,0.2-0.5c0.3-0.7,0.5-1.3,0.6-1.6c0.1-0.4,0.1-0.6,0-0.8c-0.1-0.1-0.2-0.3-0.3-0.6c-0.3-0.6-0.5-1.1-0.7-1.4
				c-0.2-0.3-0.5-0.6-0.8-0.8c0,0.3,0,0.7-0.1,1.2c-0.1,0.4-0.1,0.7-0.1,1.1h-0.2c0-0.3,0-0.6,0-1c0-0.3-0.1-0.5-0.2-0.6
				c-0.1,0.1-0.1,0.2-0.1,0.4s-0.1,0.3-0.1,0.3s0-0.2,0-0.5c0-0.4,0-0.7,0.1-1.1h0.1c0.1,0,0.1,0,0.1-0.1C34,7.6,34.1,7.3,33.9,7
				c-0.1-0.3-0.3-0.5-0.5-0.6l-0.2,0.8C33,7.9,33,8.4,33,8.7c-0.1-0.1-0.1-0.2-0.1-0.5s0-0.7,0.1-1.2c0-0.1,0-0.3,0-0.6
				c0-0.4,0-0.6,0-0.7c-0.5,2-0.7,3.4-0.8,4.3c0,0.1-0.1,0.2-0.1,0.4S32,10.7,32,10.8c-0.1-0.1-0.2-0.2-0.4-0.4
				c-0.1-0.2-0.2-0.4-0.2-0.6l-0.2,0.5l1.2,1.7l0.1,0.1c-0.1-1.1,0-2.1,0.2-3l0.1,0.1c0,0.2,0,0.5,0,0.9c0,0.5,0,1-0.1,1.3l0.1-0.1
				c0.1-0.1,0.2-0.4,0.3-0.7c0-0.3,0.1-0.5,0.2-0.7c0,1.1-0.2,1.8-0.4,2.3l-0.1,0.1c-0.1,0-0.1,0.1-0.2,0.1c-0.1,0.2,0,0.4,0.3,0.7
				s0.5,0.5,0.5,0.6c0-0.2,0-0.3,0-0.5c0-0.1,0-0.3,0-0.4c0-0.5,0-0.9,0.1-1.2c0-0.3,0.1-0.6,0.3-0.8c0.1,0,0.1,0.2,0.1,0.5
				s0,0.5,0,0.6c-0.1,0.5-0.1,0.9,0,1.1c0-0.2,0-0.3,0.1-0.4c0.1-0.1,0.2-0.2,0.3-0.3c0,0.2,0,0.5-0.2,0.9c-0.1,0.3-0.1,0.5-0.2,0.7
				h-1.3h-0.1c-0.1-0.1-0.1-0.1-0.2-0.2c0.1-0.1-0.3-0.7-1.2-1.9c-0.6-0.9-1-1.4-1.1-1.6c0.1-0.5,0-0.6,0-0.6h-0.1
				c-0.1,0-0.2-0.1-0.3-0.1l-0.7,1.1c-0.1,0.2-0.3,0.5-0.6,0.9c-0.3,0.5-0.6,1.1-1.1,2c-0.2,0-0.4,0-0.6,0c0.1-0.1,0.1-0.2,0.2-0.4
				c0.3-0.6,0.5-1,0.5-1.2c0-0.1,0-0.3,0-0.6c-0.1-0.3-0.1-0.5,0-0.6l-0.5-2l-0.4,3.4c0.1,0.2,0.1,0.5,0,0.9
				c-0.1,0.2-0.1,0.4-0.2,0.6c-0.1,0-0.2,0-0.4,0v-0.1c-0.1-0.2-0.1-0.4,0-0.5l0.1,0.1l-0.5-2.3c0,0,0,0.3-0.1,0.7
				c-0.1,0.8-0.2,1.5-0.3,2.1c-0.2,0-0.4-0.1-0.5-0.1c-0.1-0.6-0.2-0.9-0.2-1c-0.3,0.2-0.5,0.5-0.7,0.8c0,0.1-0.1,0.1-0.1,0.2
				c-0.4,0-0.7,0.1-0.9,0.1l0.1-0.1c0.1-0.1,0.2-0.2,0.3-0.3c0.4-0.7,0.8-1.4,1.2-2.1c0.5-0.9,0.9-1.6,1.2-2.1
				c0.5-0.9,1.4-2.2,2.6-4c1.1-1.7,2-3,2.6-4c0,0,0-0.1,0-0.2s0-0.2,0.1-0.3c0.1-0.2,0.3-0.2,0.5-0.1c0,0.1,0.4,0.8,1.2,2.1
				c0.9,1.4,1.4,2.2,1.5,2.3l3.5,6.2c0,0,0.1,0.2,0.2,0.4c0.1,0.2,0.2,0.4,0.3,0.4C37.7,11.8,38,12.4,38.6,13.8z M32.9,5.5
				C32.9,5.5,33,5.5,32.9,5.5c-0.1-0.5-0.3-0.8-0.5-1c-0.2-0.2-0.4-0.4-0.6-0.6L32,6.4l-0.3-0.2c0,0.1,0,0.1,0.1,0.2
				c0,0.1,0.1,0.2,0.2,0.2c-0.3,1.2-0.3,2.2,0,3c0.2-0.3,0.3-0.6,0.3-0.9s0.1-0.7,0.1-1.2c0-0.4,0-0.8,0.1-1.1
				C32.5,6.1,32.6,5.8,32.9,5.5C32.8,5.5,32.8,5.5,32.9,5.5z M31.6,5.2c0-0.2,0-0.7-0.1-1.3s-0.1-0.9-0.2-1c-0.1-0.1-0.2-0.1-0.2,0
				c0.1,0.4,0.1,1,0,1.7c0,0.9,0,1.4,0,1.5S31,6.2,31,6.2c-0.1,0-0.1,0-0.1,0.1c0.1,0.1,0.2,0.3,0.2,0.5c0,0.3,0.1,0.4,0.1,0.4
				l0.1-0.1c0.1-0.2,0.1-0.5,0.1-0.8c-0.1-0.4-0.1-0.7-0.2-0.9L31.6,5.2z M31.1,9.9c0-0.7-0.1-1.4-0.1-2s-0.1-1.2-0.1-1.7
				c-0.1-1.2-0.2-2.5-0.2-3.6c-0.1,0-0.1,0-0.2,0c0,0.1-0.1,0.3-0.1,0.6c0,0.4-0.1,0.8-0.2,1.3c0.1,0,0.1,0.3,0,0.9s0,0.9,0,1.1
				c-0.1,1.1-0.1,1.7,0,1.9h0.2c-0.1,0.3-0.1,0.5,0,0.8S30.8,9.7,31.1,9.9z M30,4.7c0.1-1.5,0.1-2.2,0.1-2.2c-0.2,0.4-0.3,0.7-0.4,1
				c0,0.3,0,0.7,0,1s0.1,0.6,0.1,0.8c0,0.2-0.1,0.4-0.2,0.6c-0.1-0.1-0.2-0.2-0.2-0.4c0-0.2,0-0.4-0.1-0.7c0-0.4,0-0.7-0.1-0.9
				c-0.1,0.2-0.2,0.5-0.1,1L28.9,5c0,0.2,0.1,0.3,0,0.4c-0.1-0.1-0.2-0.2-0.2-0.2c0-0.1,0-0.2-0.1-0.3c-0.1,0.2-0.2,0.5-0.3,0.9
				c-0.1,0.4-0.1,0.8-0.1,1.2c0,0.4,0.2,0.6,0.4,0.8c0,0,0.1,0.1,0.1,0.2c0,0.1,0,0.2,0,0.2c0-0.2-0.1-0.2-0.1-0.4
				c-0.1-0.1-0.2-0.2-0.3-0.4C28.1,7.1,28,6.8,28,6.6l-0.1,0.1c-0.1,0.2-0.2,0.7-0.2,1.4c0.1,0.2,0,0.5,0,1s0,0.8,0,1.1
				s0.1,0.4,0.2,0.5l0.6-1c0-0.1-0.1-0.3-0.1-0.6s0-0.5,0-0.7c0,0,0,0,0.1,0h0.1c-0.1-0.1-0.1-0.2-0.1-0.3c0-0.1,0-0.2,0-0.3
				c0.1,0,0.1,0.1,0.2,0.1C28.8,8,28.9,8.1,29,8.3c0.1,0.3,0.1,0.5,0,0.7v0.1c0.2-0.3,0.3-0.7,0.4-1c0-0.3,0-0.7,0-1.2
				c-0.1-0.5,0-0.8,0.1-0.9c0.1,0.1,0.2,0.2,0.2,0.4s0,0.4,0,0.7c0,0.3,0,0.5,0,0.7s0.1,0.3,0.2,0.4C29.8,7.9,29.9,6.7,30,4.7z
				 M27.5,6.5L27,7.3l0.3,2l0.1-1C27.4,7.6,27.5,7,27.5,6.5z M26.4,10.3c0-0.8,0.1-1.5,0.2-2.1c-0.1,0.1-0.3,0.3-0.4,0.6
				C26,8.9,26,9,25.9,9.2c-0.1,0.1-0.1,0.2-0.1,0.3s0,0.4,0,0.8c0,0.4,0,0.9,0.1,1.3c0.1,0.4,0.2,0.7,0.3,0.8
				C26.3,11.9,26.3,11.2,26.4,10.3z M25,10.7l-0.5,0.8c0.1,0.1,0.1,0.2,0.2,0.3c0.1,0.2,0.1,0.3,0.2,0.3C25,12,25,11.8,25,11.5
				C24.9,11.2,24.9,10.9,25,10.7z"/>
			<path class="st2" d="M38.3,15.6v1l-2-0.1c0.3-0.1,0.6-0.2,1.1-0.4C37.9,15.9,38.1,15.8,38.3,15.6z"/>
			<path class="st2" d="M38.2,14.5v0.7c-0.2,0.1-0.5,0.3-1.1,0.6c-0.5,0.3-1.1,0.6-1.7,0.9c0.2-0.3,0.5-0.6,0.9-0.9
				c0.4-0.3,0.8-0.5,1.1-0.6v-0.1c0-0.1,0.1-0.3,0.3-0.4C37.9,14.5,38.1,14.5,38.2,14.5z"/>
			<path class="st2" d="M37.9,13.7C37.9,13.7,37.9,13.8,37.9,13.7h-0.3c0-0.1,0-0.2,0-0.3h-0.1c-0.1,0-0.1,0-0.1,0
				c0,0.1-0.1,0.1-0.1,0.3h-1.5l0,0c0.1-0.1,0.1-0.2,0.1-0.3s0-0.3-0.1-0.4l0.2-0.1c0-0.2,0.1-0.4,0.2-0.7c0.1-0.3,0.2-0.4,0.2-0.5
				l0.1,1.1l0.2,0.1c-0.1-0.3,0-0.6,0.3-1.1c0.2,0.1,0.4,0.3,0.5,0.6C37.5,12.8,37.7,13.2,37.9,13.7z"/>
			<path d="M37.6,14.3c0,0.1,0,0.1,0,0.2c-0.1,0-0.2,0.1-0.2,0.1v-0.1c0-0.2,0-0.3,0-0.5l-0.2,0.3H37c0.1-0.1,0.1-0.2,0.2-0.4v-0.1
				h0.4C37.6,13.9,37.6,14.1,37.6,14.3z"/>
			<path d="M37.5,13.5c0,0.1,0,0.2,0,0.3h-0.4c0-0.1,0.1-0.2,0.1-0.3h0.1C37.5,13.5,37.5,13.5,37.5,13.5z"/>
			<path class="st2" d="M36.1,14.4c0.2,0,0.5-0.1,0.8-0.1c0,0.2-0.4,0.4-1.2,0.8c-0.3,0.1-0.5,0.3-0.8,0.4c-0.3,0.1-0.4,0.3-0.5,0.4
				v-0.1l-1,0.8h-0.2c0.1-0.1,0.6-0.5,1.5-1.2C35.6,14.8,36,14.4,36.1,14.4z"/>
			<path class="st2" d="M36.1,10.8c0.1,0.1,0.1,0.4,0,0.8c-0.1,0.4-0.3,0.9-0.6,1.6c-0.1,0.2-0.1,0.4-0.2,0.5h-0.5
				c0-0.6,0.1-1.2,0.1-1.8c0.1-1.4,0.2-2.2,0.1-2.3c-0.1,0-0.2,0-0.3,0c-0.1,0.1-0.1,0.1-0.2,0.1c-0.1,0.1-0.1,0.3-0.2,0.5
				c0,0.2,0,0.4,0,0.4c0-0.1,0.1-0.1,0.2-0.2c0.1-0.1,0.1-0.1,0.2-0.1c0,1.3-0.1,2.4-0.1,3.3H34c0-0.2,0.1-0.4,0.2-0.7
				c0.1-0.4,0.2-0.7,0.2-0.9c-0.2,0.1-0.3,0.2-0.3,0.3S34,12.5,34,12.7c-0.1-0.2-0.1-0.6,0-1.1c0-0.1,0-0.3,0-0.6s0-0.5-0.1-0.5
				c-0.1,0.2-0.2,0.5-0.3,0.8c0,0.3-0.1,0.7-0.1,1.2c0,0.1,0,0.3,0,0.4c0,0.1,0,0.3,0,0.5c0,0-0.2-0.2-0.5-0.6
				c-0.3-0.3-0.4-0.6-0.3-0.7c0.1,0,0.1,0,0.2-0.1c0.1,0,0.1-0.1,0.1-0.1c0.3-0.5,0.4-1.2,0.4-2.3c-0.1,0.2-0.2,0.4-0.2,0.7
				c-0.1,0.3-0.2,0.5-0.3,0.7l-0.1,0.1c0.1-0.3,0.1-0.7,0.1-1.3c0-0.4,0-0.7,0-0.9l-0.1-0.1c-0.3,0.9-0.3,1.9-0.2,3L32.5,12
				l-1.2-1.7l0.2-0.5c0,0.2,0.1,0.4,0.2,0.6c0.1,0.2,0.2,0.3,0.4,0.4c0-0.1,0.1-0.2,0.1-0.4s0.1-0.3,0.1-0.4
				c0.1-0.9,0.3-2.4,0.8-4.3C33,5.8,33,6.1,33,6.4C33,6.8,33,7,33,7c-0.1,0.5-0.1,0.9-0.1,1.2c0,0.3,0,0.5,0.1,0.5
				c0-0.3,0-0.8,0.2-1.6l0.2-0.8c0.2,0.1,0.4,0.4,0.5,0.6C34,7.2,34,7.5,33.8,7.8c0,0.1-0.1,0.1-0.1,0.1c-0.1,0-0.1,0-0.1,0
				c-0.1,0.4-0.1,0.7-0.1,1.1c0,0.4,0,0.5,0,0.5s0.1-0.1,0.1-0.3s0.1-0.3,0.1-0.4c0.1,0.1,0.2,0.2,0.2,0.6c0,0.3,0,0.6,0,1h0.2
				c0-0.4,0-0.8,0.1-1.1c0.1-0.5,0.1-1,0.1-1.2c0.3,0.2,0.6,0.5,0.8,0.8s0.5,0.8,0.7,1.4C36,10.5,36.1,10.7,36.1,10.8z"/>
			<path d="M35.3,13.8h0.4c0,0-0.1,0.1-0.2,0.1c0,0-0.1,0.2-0.1,0.3c-0.1,0-0.1,0-0.2,0C35.2,14,35.3,13.9,35.3,13.8z"/>
			<path class="st2" d="M36.2,15.5c-0.2,0.3-0.6,0.6-1,0.9s-0.8,0.4-1.1,0.4H34c0,0-0.1,0-0.1-0.1c0,0,0.3-0.2,0.7-0.4
				C35.4,15.8,36,15.5,36.2,15.5z"/>
			<path class="st2" d="M35.2,14.3v0.1L32.5,16c0-0.2,0.1-0.4,0.4-0.7c0,0,0.1-0.1,0.2-0.3c0.1-0.1,0.2-0.3,0.2-0.5v-0.2H35.2z"/>
			<path d="M35.1,9.7c0,0.1,0,0.9-0.1,2.3c-0.1,0.6-0.1,1.2-0.1,1.8h-0.1c0.1-0.9,0.1-2,0.1-3.3c0,0-0.1,0.1-0.2,0.1
				c-0.1,0.1-0.1,0.1-0.2,0.2c-0.1-0.1-0.1-0.2,0-0.4c0-0.2,0.1-0.4,0.2-0.5c0,0,0.1-0.1,0.2-0.1C34.9,9.7,35,9.7,35.1,9.7z"/>
			<path d="M34.9,13.8c0,0.1,0,0.2,0,0.2v0.1c-0.1,0-0.1,0-0.2,0c0-0.1,0-0.2,0-0.3H34.9z"/>
			<path d="M32.8,13.8H34c0,0.1,0,0.2,0,0.3c-0.2,0-0.3-0.1-0.5-0.1s-0.4,0-0.5,0.1C32.9,14,32.8,13.8,32.8,13.8
				C32.7,13.7,32.7,13.8,32.8,13.8z"/>
			<path class="st2" d="M32.8,26l0.3,0.3L33,26.4c-0.1,0-0.1,0.5-0.1,1.4c0,0.1,0,0.4,0,0.7c0,0.3-0.1,0.5-0.1,0.5v2.4
				c0,0.1-0.3,0.2-0.8,0.4c-0.9,0.3-1.3,0.5-1.3,0.7c0.1,0,0.3,0,0.6-0.1c0.3-0.1,0.5-0.1,0.6-0.1c-0.1,0-0.1,0.1-0.2,0.2
				c-0.1,0.1-0.1,0.2-0.2,0.2c0,0,0.1,0.1,0.1,0.2c0,0.1,0.1,0.1,0.1,0.2c0,0,0.1,0.1,0.3,0.1c0.2,0,0.3,0,0.4-0.1
				c0-0.1,0.1-0.2,0.1-0.3s0.1-0.2,0.2-0.2c0.1,0,0.1,0,0.2,0s0.1,0.1,0.1,0.1c-0.1,0-0.1,0.1-0.1,0.1c0,0.1,0,0.3,0.1,0.5
				s0.1,0.4,0.1,0.6c-0.2,0-0.6-0.1-1-0.2s-0.9-0.2-1.3-0.3c0.1,0,0.2,0,0.3-0.1c0.1,0,0.2-0.1,0.2-0.2c0-0.1-0.1-0.2-0.3-0.2
				c-0.2,0-0.4,0-0.5,0.1s-0.2,0.2-0.3,0.3c-0.1,0.1-0.1,0.2-0.2,0.3s-0.2,0.1-0.4,0.1c-0.1,0-0.2-0.1-0.3-0.1c0,0,0-0.1,0-0.2
				c0-0.1,0-0.2,0.1-0.3s0.2-0.2,0.2-0.3c0-0.2-0.1-0.2-0.2-0.3c0,0,0.2-0.1,0.7-0.4c0.6-0.3,1.1-0.6,1.3-0.8
				c0.3-0.2,0.4-0.4,0.4-0.5s-0.1-0.1-0.2-0.2s-0.2-0.1-0.3-0.1c-0.1,0-0.1,0.1-0.2,0.2c0,0.3,0,0.3,0,0.3s0-0.1-0.1-0.1l-0.1-0.1
				c-0.2,0-0.4,0.1-0.7,0.2c-0.4,0.1-0.6,0.2-0.8,0.2c0.2-0.1,0.4-0.2,0.6-0.4c0.3-0.2,0.5-0.3,0.6-0.4c1.1-0.6,1.6-1,1.6-1.2
				c0-0.1,0-0.2-0.1-0.2c0,0-0.1,0-0.2,0c-0.2,0-0.5,0.1-0.8,0.2s-0.6,0.2-0.9,0.4c-0.3,0.2-0.5,0.3-0.7,0.4c0-0.1,0.3-0.4,0.8-0.7
				c0.5-0.3,0.9-0.6,1.1-0.8c0.3-0.2,0.4-0.5,0.4-0.7c-0.3,0-0.7,0.1-1.1,0.2s-0.7,0.2-0.9,0.2v-0.1c0.3-0.2,0.6-0.4,0.8-0.5
				c0.3-0.2,0.4-0.3,0.5-0.4s0.3-0.2,0.5-0.4c0.2-0.1,0.4-0.2,0.6-0.4C32.5,26.4,32.7,26.2,32.8,26z"/>
			<path class="st2" d="M33,5.5C33,5.5,32.9,5.5,33,5.5c-0.1,0.2-0.2,0.1-0.2,0.1c-0.1,0.2-0.3,0.5-0.3,0.8
				c-0.1,0.3-0.1,0.7-0.1,1.1c0,0.5-0.1,0.9-0.1,1.2S32.1,9.3,32,9.6c-0.3-0.8-0.3-1.8,0-3c-0.1,0-0.1-0.1-0.2-0.2s-0.1-0.2-0.1-0.2
				L32,6.4l-0.2-2.5c0.2,0.2,0.4,0.4,0.6,0.6C32.6,4.8,32.8,5.1,33,5.5z"/>
			<path class="st2" d="M32.9,14.4c0,0.2,0,0.3-0.1,0.3s-0.1,0.1-0.3,0.2C32.3,15,32.2,15,32.1,15c0,0-0.5,0.4-1.3,1.1
				s-1.6,1.2-2.2,1.4c0,0-0.1,0-0.1-0.1s-0.1-0.1-0.1-0.1l0.6-0.7c-0.1,0-0.2,0-0.3,0.1c-0.1,0.1-0.2,0.1-0.3,0.2l-0.2-0.3
				c0.3-0.1,0.7-0.2,1-0.4c0.3-0.2,0.7-0.4,1.1-0.7c0.6-0.4,1.1-0.8,1.5-0.9c0.2-0.1,0.3-0.1,0.5-0.1C32.6,14.6,32.8,14.5,32.9,14.4
				z"/>
			<path class="st2" d="M32.7,24.8c0.1,0.1,0.1,0.3,0.1,0.4c0,0.5-0.1,0.7-0.4,0.7c-0.1,0-0.2,0-0.3-0.1l-2.8,1.1
				c0.2-0.2,0.5-0.4,0.9-0.6c0.6-0.4,1-0.6,1.3-0.9c0.3-0.2,0.4-0.4,0.4-0.7c-0.4,0-0.8,0.1-1.4,0.3c-0.1,0-0.2,0.1-0.5,0.1
				c-0.3,0.1-0.5,0.1-0.8,0.1V25c0.3-0.1,0.6-0.4,1-0.8c0.3-0.3,0.6-0.5,0.8-0.7c0.2-0.1,0.4-0.2,0.7-0.2c0.1-0.1,0.3-0.2,0.5-0.4
				c0.2-0.2,0.3-0.4,0.3-0.5c0.1,0.1,0.1,0.3,0.2,0.6c0.1,0.2,0.1,0.5,0.1,0.6s0,0.2-0.1,0.3c0,0.1-0.1,0.2-0.1,0.4
				C32.6,24.6,32.6,24.7,32.7,24.8z"/>
			<path class="st2" d="M32.3,19.3c0.1,1.2,0.2,2.2,0.2,2.9c-0.3,0-0.7,0.1-1,0.2s-0.7,0.4-1.1,0.6s-0.7,0.4-0.9,0.5
				c-0.2,0.1-0.4,0.1-0.6,0.1V24c0.7-0.2,1.1-0.4,1.3-0.7v0.2c0.4-0.3,0.8-0.4,1-0.4c-0.1,0.2-0.6,0.6-1.4,1.2s-1.3,1-1.4,1
				c0-0.9,0.1-1.5,0.4-1.7c0.1-0.1,0.4-0.3,1-0.5c0.7-0.3,1.2-0.6,1.5-0.9c0.4-0.2,0.5-0.5,0.5-0.8c0-0.1-0.1-0.1-0.2-0.2
				c-0.1,0-0.2-0.1-0.2-0.1l-2,0.9c0.5-0.6,0.9-1,1.2-1.2c0-0.1,0.2-0.2,0.4-0.3c0.2-0.1,0.4-0.2,0.5-0.3c0.1-0.1,0.1-0.2,0.1-0.3
				v-0.3c-0.2,0-0.6,0.1-1,0.2c-0.5,0.1-0.8,0.2-1,0.2c0-0.1,0.1-0.2,0.3-0.4c0.2-0.1,0.4-0.3,0.7-0.4c0.3-0.1,0.5-0.2,0.6-0.3
				l0.7-0.7c0-0.1-0.1-0.1-0.3-0.1h-0.1l-1.9,0.6h-0.4c0.2,0,0.5-0.2,0.8-0.4c0.3-0.2,0.5-0.3,0.6-0.4c0.6-0.4,1-0.6,1.2-0.6
				C32.1,17.5,32.2,18.1,32.3,19.3z"/>
			<path class="st2" d="M31.7,16.3c0,0.1,0.1,0.2,0.2,0.2c-0.1,0.1-0.3,0.3-0.6,0.6c-0.3,0.3-0.6,0.4-0.7,0.5l-0.4-0.1v0.2
				C30.1,18,30,18.2,30,18.2l-1.3,0.6c-0.1,0-0.1,0-0.1-0.1c0-0.2,0.2-0.4,0.6-0.5c0,0,0.1-0.1,0.2-0.1s0.2-0.1,0.3-0.1
				c0.1-0.1,0.1-0.1,0.2-0.2c-0.1,0-0.2,0-0.3,0.1C29.5,18,29.4,18,29.4,18s0,0-0.1,0l-0.1-0.1C30.1,17.5,30.9,17,31.7,16.3
				C31.7,16.2,31.7,16.2,31.7,16.3z"/>
			<path class="st2" d="M31.6,3.9c0.1,0.6,0.1,1,0.1,1.3l-0.4,0.1c0.1,0.2,0.2,0.6,0.2,0.9c0.1,0.4,0,0.7-0.1,0.8l-0.1,0.1
				c0,0,0-0.2-0.1-0.4c0-0.2-0.1-0.4-0.2-0.5c0,0,0,0,0.1-0.1c0.1,0,0.1-0.1,0.1-0.1c0-0.1,0-0.6,0-1.5c0-0.7,0-1.3,0-1.7
				c0.1-0.1,0.1,0,0.2,0C31.4,3,31.5,3.3,31.6,3.9z"/>
			<path class="st2" d="M30.1,27.1l1.3-0.5c-0.1,0.1-0.4,0.4-0.9,0.7c-0.4,0.3-0.7,0.5-0.9,0.7c-0.2,0.2-0.3,0.5-0.3,0.7h0.1
				c0.1,0,0.2,0,0.3,0c0.1,0,0.2,0,0.2,0.1c0.1-0.1,0.2-0.2,0.4-0.3c0.2-0.1,0.3-0.1,0.4-0.1c0,0.2-0.1,0.4-0.3,0.5
				c-0.2,0.1-0.4,0.3-0.7,0.5c-0.4,0.2-0.6,0.4-0.7,0.5c-0.1-0.2-0.2-0.4-0.2-0.6s-0.1-0.5-0.1-0.8v-0.7c0-0.2,0.1-0.4,0.2-0.5
				c0.2-0.1,0.4-0.2,0.7-0.2C29.8,27.1,30,27.1,30.1,27.1z"/>
			<path class="st2" d="M31.2,14.3c0.1,0,0.3,0,0.5,0c-0.1,0.1-0.2,0.2-0.6,0.3c-0.3,0.1-0.5,0.1-0.6,0.2c-0.1,0-0.2,0.1-0.5,0.1
				c-0.3,0.1-0.5,0.2-0.8,0.3s-0.5,0.3-0.6,0.5h0.2c0.2,0,0.4-0.1,0.5-0.2v0.2c0,0.3-0.3,0.6-1,0.8c-0.7,0.2-1.3,0.4-1.9,0.4h-0.8
				c0,0,0.1,0,0.1-0.1h0.1c0.1-0.1,0.3-0.2,0.6-0.4c0.4-0.2,0.6-0.4,0.8-0.6h0.3c-0.1,0-0.1,0.1-0.2,0.3c-0.1,0.1-0.1,0.2-0.2,0.3
				v0.1v0.1c0.2,0,0.6-0.3,1.1-0.8c0.5-0.5,0.7-0.8,0.7-0.9l0.4,0.1c0.1,0,0.2,0,0.4-0.1c0.2-0.1,0.3-0.2,0.4-0.3
				c-0.1-0.1-0.2-0.1-0.2-0.1c-0.1,0-0.2,0-0.3,0.1c-0.1,0-0.2,0.1-0.3,0.1l0.1-0.3h1.1c0.1,0,0.2,0.1,0.3,0.1
				C30.9,14.4,31,14.4,31.2,14.3z"/>
			<path class="st2" d="M31,7.9c0,0.6,0.1,1.3,0.1,2c-0.3-0.2-0.5-0.4-0.6-0.7s-0.1-0.5,0-0.8h-0.2c0-0.1,0-0.7,0-1.9
				c0-0.1,0-0.5,0-1.1s0-0.9,0-0.9c0.1-0.5,0.2-0.9,0.2-1.3s0-0.6,0.1-0.6c0-0.1,0.1-0.1,0.2,0c0,1.2,0.1,2.4,0.2,3.6
				C30.9,6.8,30.9,7.3,31,7.9z"/>
			<path class="st2" d="M30.5,20.2c0.4-0.1,0.6-0.2,0.8-0.4c0,0.2-0.3,0.6-0.9,1s-0.9,0.7-1,0.7c-0.1,0.1-0.2,0.2-0.4,0.4
				c-0.2,0.2-0.3,0.3-0.3,0.3l0.1,0.1l0.1,0.1c0.2,0,0.4-0.1,0.7-0.2c0.3-0.1,0.5-0.2,0.7-0.3c0,0.2-0.3,0.4-0.8,0.8
				c-0.5,0.3-0.8,0.6-0.9,0.6l-0.1-2.7c0,0,0.2-0.1,0.4-0.4c0.3-0.2,0.5-0.3,0.6-0.3v0.3C29.8,20.4,30.1,20.3,30.5,20.2z"/>
			<path class="st2" d="M30.7,31.4c0,0.1-0.1,0.2-0.2,0.3c-0.2,0.1-0.4,0.2-0.7,0.4c-0.3,0.1-0.5,0.3-0.7,0.4v-0.8
				c0.3,0,0.5-0.1,0.8-0.2C30.2,31.5,30.5,31.4,30.7,31.4z"/>
			<path class="st2" d="M30.4,30L30.4,30c0,0.2-0.2,0.4-0.6,0.7c-0.4,0.3-0.7,0.5-0.7,0.6C29,31.1,28.9,31,28.9,31
				c0-0.1,0-0.2,0-0.3c0-0.2,0.2-0.3,0.5-0.5C29.8,30.1,30.1,30,30.4,30z"/>
			<path class="st2" d="M30.7,18.8c-0.1,0.1-0.3,0.3-0.6,0.5c-0.2,0.2-0.5,0.4-0.8,0.6s-0.6,0.3-0.9,0.3c0-0.4,0.2-0.8,0.7-1
				C29.7,18.9,30.2,18.8,30.7,18.8z"/>
			<path class="st2" d="M30.9,25.4c-0.3,0.1-0.6,0.3-0.8,0.5c-0.2,0.2-0.5,0.4-0.7,0.6l-0.6,0.6l-0.2,0.1v-1.4
				c0.2,0,0.6-0.1,1.1-0.2C30.2,25.4,30.6,25.4,30.9,25.4z"/>
			<path class="st2" d="M30.1,2.5c0,0,0,0.8-0.1,2.2c-0.1,2-0.2,3.1-0.2,3.4c-0.1-0.1-0.2-0.2-0.2-0.4c0-0.2,0-0.4,0-0.7
				c0-0.3,0-0.5,0-0.7s0-0.3-0.2-0.4c-0.1,0.2-0.1,0.5-0.1,0.9c0,0.5,0,0.9,0,1.2c0,0.3-0.2,0.7-0.4,1h-0.1c0.1-0.2,0.1-0.4,0-0.7
				c-0.1-0.2-0.2-0.3-0.3-0.4h0.1c0,0.1,0.1,0.1,0.2,0.2c0,0,0-0.1,0-0.2c0-0.1,0-0.2-0.1-0.2c-0.2-0.1-0.4-0.4-0.4-0.8
				s0-0.8,0.1-1.2c0.1-0.4,0.2-0.7,0.3-0.9c0.1,0.1,0.1,0.2,0.1,0.3c0,0.1,0.1,0.2,0.2,0.2c0-0.1,0-0.2,0-0.4l0.2-0.1
				c0-0.5,0-0.8,0.1-1c0.1,0.1,0.1,0.4,0.1,0.9c0,0.3,0,0.6,0.1,0.7c0,0.2,0.1,0.3,0.2,0.4c0.1-0.2,0.2-0.4,0.2-0.6s0-0.4-0.1-0.8
				s-0.1-0.7,0-1C29.8,3.2,29.9,2.9,30.1,2.5z"/>
			<path class="st2" d="M28.6,7.8L28.6,7.8c-0.1,0-0.2-0.1-0.2-0.1c0,0.1,0,0.2,0,0.3c0,0.1,0.1,0.2,0.1,0.3h-0.1h-0.1
				c0,0.2,0,0.4,0,0.7s0.1,0.5,0.1,0.6l-0.6,1c-0.1-0.1-0.2-0.2-0.2-0.5s0-0.6,0-1.1c0.1-0.5,0.1-0.8,0-1c0-0.7,0-1.2,0.2-1.4H28
				c0,0.2,0.1,0.5,0.3,0.8C28.4,7.6,28.5,7.7,28.6,7.8z"/>
			<path class="st2" d="M28.2,14.1c0.2,0,0.4,0,0.5,0.1c-0.3,0.3-0.7,0.7-1.3,1.1s-1.1,0.7-1.5,0.9V16c0.2-0.2,0.5-0.4,0.7-0.7
				s0.3-0.4,0.3-0.4c0.1-0.1,0.3-0.2,0.6-0.5C27.7,14.2,28,14.1,28.2,14.1z"/>
			<path class="st2" d="M27,7.3l0.5-0.8c-0.1,0.5-0.1,1.1-0.1,1.8l-0.1,1L27,7.3z"/>
			<path class="st2" d="M27.3,11.2c0.1,0.3,0.1,0.5,0,0.6C27.2,12,27,12.4,26.8,13c-0.1,0.1-0.1,0.2-0.2,0.4c-0.1,0-0.2,0-0.4,0
				c0.1-0.2,0.1-0.4,0.2-0.6c0.1-0.4,0.1-0.7,0-0.9l0.4-3.4l0.5,2C27.2,10.7,27.2,10.9,27.3,11.2z"/>
			<path d="M27.2,13.4c-0.1,0.1-0.1,0.2-0.1,0.3S27,13.8,27,13.9c-0.1,0-0.2,0-0.3,0c-0.1,0-0.2,0-0.3,0c0.1-0.2,0.2-0.3,0.2-0.5
				C26.8,13.4,27,13.4,27.2,13.4z"/>
			<path class="st2" d="M26.1,14.1h0.7c-0.2,0.2-0.6,0.5-1.5,1c-0.8,0.5-1.3,0.7-1.5,0.7c0-0.5,0.3-0.9,0.8-1.3
				C25.1,14.3,25.6,14.1,26.1,14.1z"/>
			<path class="st2" d="M26.5,8.2c-0.1,0.5-0.1,1.2-0.2,2.1c0,0.9-0.1,1.6-0.2,2.1c-0.2-0.1-0.3-0.4-0.3-0.8
				c-0.1-0.4-0.1-0.9-0.1-1.3c0-0.4,0-0.7,0-0.8s0.1-0.2,0.1-0.3C26,9,26,8.9,26.1,8.8C26.3,8.5,26.4,8.3,26.5,8.2z"/>
			<path d="M25.9,13.4c0.1,0,0.3,0,0.4,0c-0.1,0.1-0.1,0.2-0.2,0.3C26,13.6,25.9,13.5,25.9,13.4z"/>
			<path class="st2" d="M24.3,16.2l1.7-0.9c-0.2,0.3-0.4,0.6-0.7,1c-0.3,0.3-0.4,0.5-0.5,0.5h-1.3C23.8,16.4,24,16.2,24.3,16.2
				L24.3,16.2z"/>
			<path class="st2" d="M25.4,10.5l0.5,2.3l-0.1-0.1c0,0.1,0,0.3,0,0.5v0.1c-0.2,0-0.4,0-0.7,0c-0.1,0-0.1,0-0.2,0
				c0-0.6,0.1-1.3,0.3-2.1C25.4,10.8,25.4,10.5,25.4,10.5z"/>
			<path d="M25.1,13.3c0,0.2,0,0.3,0,0.4c-0.1,0-0.2,0-0.3,0c-0.1,0-0.1,0-0.2,0c0-0.1,0-0.1,0-0.2c0-0.1,0-0.2,0-0.3
				C24.7,13.3,24.8,13.3,25.1,13.3z"/>
			<path class="st2" d="M24.5,11.5l0.5-0.8c-0.1,0.2-0.1,0.5,0,0.8c0,0.3,0,0.6-0.1,0.7c0-0.1-0.1-0.2-0.2-0.3
				C24.6,11.7,24.6,11.6,24.5,11.5z"/>
			<path class="st2" d="M24.5,13.2c-0.1,0-0.1,0-0.2,0c-0.3,0-0.6,0-0.9,0c0-0.1,0.1-0.1,0.1-0.2c0.2-0.3,0.5-0.6,0.7-0.8
				C24.3,12.3,24.4,12.7,24.5,13.2z"/>
			<path class="st2" d="M24.4,14.1c0,0,0.1,0,0.3-0.1c-0.3,0.2-0.5,0.4-0.7,0.7s-0.4,0.6-0.5,1c-0.2,0.4-0.3,0.7-0.5,0.7h-0.2
				c0,0,0.1-0.2,0.2-0.5c0-0.2,0-0.4-0.1-0.7s-0.2-0.5-0.2-0.7s0.1-0.3,0.2-0.4C23,14,23.2,14,23.4,14c0.1,0,0.1,0,0.2,0H24
				c0,0,0.1,0,0.2,0C24.2,14.1,24.3,14.1,24.4,14.1z"/>
			<path d="M23.4,13.2c-0.1,0.1-0.1,0.3-0.1,0.4c-0.1,0-0.2,0-0.3,0c-0.2,0-0.5,0-0.7,0.1c0-0.1,0-0.2,0-0.2l0.1-0.1
				C22.7,13.3,23,13.3,23.4,13.2z"/>
		</g>
	</g>
</g>
</svg>
