<?xml version="1.0" encoding="utf-8"?>
<!-- Generator: Adobe Illustrator 25.2.0, SVG Export Plug-In . SVG Version: 6.00 Build 0)  -->
<svg version="1.1" id="Shareus_1_" xmlns="http://www.w3.org/2000/svg" xmlns:xlink="http://www.w3.org/1999/xlink" x="0px" y="0px"
	 viewBox="0 0 449.5 101.9" style="enable-background:new 0 0 449.5 101.9;" xml:space="preserve">
<style type="text/css">
	.st0{fill:#F98D8D;}
	.st1{fill:#0086D0;}
</style>
<g id="Shareus">
	<g id="XMLID_1_">
		<g>
			<path class="st0" d="M372.6,36.1l-0.5,1.4c-0.5,0.3-1.3,0.6-2.2,0.9c-1,0.4-1.7,0.6-2.2,0.8v-2.1c1.5,0,2.2-0.3,2.2-1H372.6z"/>
			<path class="st0" d="M378.3,39.8c-0.8,0.9-2.5,2-5.1,3.5c-2.8,1.6-4.5,2.8-5.1,3.8l-0.5-4.5c0.8-0.7,2.4-1.3,5-1.9
				C375.2,40,377.1,39.8,378.3,39.8z"/>
			<path class="st0" d="M376.5,47.6c-0.7,1-1.9,2-3.6,3.2c-1.7,1.2-3,2-3.9,2.5c-0.8-0.4-1.2-1.6-1.2-3.6c0-0.7,0-1.1,0.1-1.3
				c0.8,0,1.6-0.1,2.5-0.2c0.9-0.1,1.6-0.2,2-0.2C373.7,47.7,375.1,47.6,376.5,47.6z"/>
			<path class="st0" d="M376.9,54c0.4,0.1,0.6,0.2,0.7,0.3c-0.2,0.2-1.6,1.5-4.2,4.1c-2.6,2.6-4.4,3.8-5.3,3.8l-0.5-0.1l0.5-7.8
				c0,0.2,0.3,0.3,1,0.4s1.1,0.2,1.5,0.3c0.3,0.1,0.5,0.3,0.6,0.6c0.2,0.3,0.3,0.5,0.5,0.5c0.9,0,1.6-0.4,2.1-1.1
				c0.6-0.7,1.2-1.1,2-1.1C376.2,53.8,376.5,53.9,376.9,54z"/>
			<path class="st0" d="M376.9,63.4c0.1,0.1,0.2,0.2,0.2,0.4c0,0.5-1.2,1.5-3.6,2.9c-2.4,1.4-4,2.3-4.9,2.7l-0.6-3.6
				c0-0.6,1.1-1.2,3.4-1.7c2.3-0.5,4-0.8,5-0.8C376.6,63.3,376.8,63.3,376.9,63.4z"/>
			<path class="st0" d="M377.1,70.4l2.2,0.1c-0.9,1.1-2.1,2.2-3.8,3.3c-1.7,1.1-3.4,2-5.1,2.8c0-0.5-0.2-1.4-0.6-2.5
				c-0.4-1.2-0.6-1.9-0.6-2.1c0-0.5,1-0.9,3-1.2C374.2,70.6,375.8,70.4,377.1,70.4z"/>
			<path class="st0" d="M381.7,78.4c0.3,0.7,0.5,1.6,0.5,2.7c0,0.6-0.5,1.1-1.4,1.4c-0.9,0.3-2.1,0.7-3.7,0.9
				c-2.9,0.3-4.4,0.9-4.6,1.6c1.4,0,3.1-0.2,5.2-0.5c1.9-0.3,3.3-0.5,4.3-0.5c-0.4,0.6-1.9,1.7-4.7,3.4c-2.8,1.7-4.4,2.6-4.8,2.9
				c-0.9,0.3-1.7,0.8-2.5,1.3c-0.8,0.5-1.4,0.9-1.8,1c0-0.5-0.1-0.8-0.4-1c-0.3-0.1-0.6-0.3-1.1-0.4c-0.5-0.1-0.8-0.4-1.1-0.7
				c2.4-2.7,4.9-5,7.3-6.8C375.5,81.8,378.4,80,381.7,78.4z"/>
			<path class="st0" d="M382.6,93.2c0.4,1,0.6,2.5,0.6,4.3c-2.4,0.3-5.3,0.5-8.6,0.5c-2.3,0-4-0.4-4.8-1.2c0.1,0,0.3-0.1,0.6-0.3
				c0.3-0.2,0.7-0.3,1-0.3l10.5-5.1C382.1,91.5,382.2,92.1,382.6,93.2z"/>
			<path class="st0" d="M348.5,98l12.9-6.8c-0.2,0.3-0.9,0.9-2.2,1.9c-1,0.8-1.9,1.5-2.5,2.1c-0.6,0.7-0.9,1.4-0.9,2.2
				c0,0.5,0.2,0.9,0.5,1c-0.3,0.4-1,0.7-1.9,0.7l-3-0.1c-0.6-0.1-1.6-0.1-2.9-0.1l-3,0.1C345.5,98.9,346.5,98.6,348.5,98z"/>
			<path class="st0" d="M355.9,87.5c0.2,0.1,0.3,0.2,0.4,0.4c-0.8,0.3-1.8,0.9-3.1,2c-1.3,1.1-2.6,2.2-3.8,3.5
				c-3,2.8-4.7,4.2-5.3,4.2c-4.2-1.6-7.1-3.5-8.5-5.7l6.8-3.6l6.1-3.1h1.8c0,0.6-0.4,1.3-1.3,2c-0.9,0.7-2.1,1.5-3.6,2.4
				c-1.4,0.8-2.5,1.5-3.2,2.1c-0.7,0.6-1.1,1.2-1.1,1.7c0,0.3,0.1,0.5,0.3,0.6c0.2,0.1,0.4,0.2,0.5,0.3c2.1-0.7,3.3-1.5,3.8-2.3
				l0.6,0.7l3.4-1.8c3.8-2.1,5.7-3.2,5.7-3.2C355.6,87.3,355.7,87.4,355.9,87.5z"/>
			<path class="st0" d="M344.6,80.7h0.6c-1,1.1-2.9,2.5-5.5,4c-2.1,1.1-3.6,2.2-4.7,3.1l-0.7,0.1c-0.4,0-0.8-0.3-1-0.8
				c-0.3-0.5-0.5-0.9-0.7-1L344.6,80.7z"/>
			<path class="st0" d="M335.3,80.7l3.6-1.2c-0.8,0.7-2,1.7-3.6,3c-1.6,1.3-2.6,1.9-3,1.9h-0.5v-1.6c0.9-0.3,1.8-0.7,2.5-1.2
				C334.9,81.2,335.3,80.9,335.3,80.7z"/>
			<path class="st0" d="M338.5,71.6l-0.1,1.2c-1.4,0.8-2.9,1.8-4.4,3s-2.9,2.5-3.9,3.8c-0.1-0.4-0.3-1-0.6-1.7
				c-0.4-0.7-0.5-1.2-0.5-1.4c0-0.8,1-1.6,3.1-2.4C334,73.2,336.2,72.4,338.5,71.6z"/>
			<path class="st0" d="M337.9,63.3l1,0.5c-0.4,0.3-1.5,1.1-3.4,2.3c-1.9,1.1-3.5,2.2-4.6,3.1c-1.2,0.9-1.8,1.9-2,2.9v-4.9
				c0-0.5,1.3-1.3,3.9-2.3C335.4,63.8,337.1,63.3,337.9,63.3z"/>
			<path class="st0" d="M333.8,57.2c2.8-1.6,4.5-2.3,5.1-2.3c-0.9,0.6-2.4,1.9-4.7,3.8c-2.3,1.9-4,3.5-5.3,4.7v-4l0.5-0.5v0.5
				C329.7,59.3,331.2,58.6,333.8,57.2z"/>
			<path class="st0" d="M335.1,48.6c-0.2,0.3-0.6,0.9-1.4,1.8c-0.7,0.9-1.6,1.8-2.7,2.7c-1,0.9-2,1.5-2.7,1.8l-0.5-3.4
				c0-0.3,0.2-0.6,0.7-0.9c0.5-0.3,1.1-0.5,2-0.7c0.9-0.2,1.4-0.4,1.7-0.5s0.7-0.2,1.4-0.3C334.4,48.9,334.9,48.8,335.1,48.6z"/>
			<path class="st0" d="M336.2,40.9c-0.9,1-2.1,2.1-3.6,3.3c-1.5,1.2-2.9,2.1-4.2,2.8l-0.1-2.1c0-0.9,0.2-1.5,0.6-1.8
				c0.2-0.1,1.2-0.5,3-1.2C333.7,41.3,335.1,40.9,336.2,40.9z"/>
			<path class="st1" d="M374.3,36.9h5.6c-0.8,1.2-2.4,1.8-4.9,1.8l-2.3-0.1L374.3,36.9z"/>
			<path d="M446.3,71.8c2,2.3,3,5.3,3,8.9c0,3.7-1.2,7.1-3.5,10.2c-2.3,3.1-5.3,5.3-9,6.7c-0.6,0.3-1.6,0.7-2.9,1.4
				c-1.3,0.7-2.6,1-3.8,1c-1.3,0-3.2,0.1-5.6,0.3l-5.7,0.1c-1.8,0-3.6-0.2-5.2-0.6c-1.6-0.4-3.7-1-6.1-1.9c-2.3-0.8-4.2-1.4-5.7-1.8
				c-1.6-0.4-3.2-0.6-4.8-0.7l-0.5-0.6V82.4c0-0.3,0.6-0.5,1.7-0.5c1.8,0,4.7,0.8,8.7,2.5c2.4,0.9,4.4,1.5,6,2
				c1.6,0.5,3.1,0.7,4.6,0.7c1,0,1.9-0.1,2.8-0.3c0.9-0.2,1.9-0.5,3.1-1c-0.1-0.2-0.1-0.4-0.1-0.8c0-0.8,0.3-1.7,0.9-2.7
				c0.7-1.4,1-2.5,1-3.2c0-2-0.7-3.4-2.2-4.3c-1.5-0.9-3.6-1.6-6.5-2.2c-2.6-0.5-4.4-1.1-5.5-1.8c-0.5-0.3-1.4-0.9-2.5-1.6
				c-1.2-0.7-2.1-1.3-2.9-2s-1.2-1.1-1.2-1.6c-1.3-0.3-2.7-1.7-4.2-4.2c-1.5-2.4-2.6-4.6-3.2-6.5l-0.5-3.2c0-5.5,1.9-10,5.7-13.5
				c3.8-3.5,8.6-5.2,14.3-5.2c0.7,0.1,1.6,0.2,2.7,0.5c1.1,0.2,2.3,0.4,3.6,0.6c8.8,1.7,14.6,2.5,17.2,2.5c0.8,0,1.5,1.3,2.1,3.8
				c0.6,2.5,1,5,1,7.5c0,3.4-0.6,5.1-1.8,5.1l-0.5-0.1c-1-1.7-2.2-2.8-3.8-3.5c-1.6-0.7-3.2-1.1-4.9-1.4c-1.7-0.3-2.5-0.5-2.5-0.7
				h-1.8c-3.1,0-6,0.4-8.8,1.3c-2.7,0.9-4.1,2.6-4.1,5.1c0,2.2,1,3.8,3.1,4.9c2.1,1.1,5.5,2.5,10.3,4c4.4,1.4,8,2.7,10.8,4
				C441.9,67.7,444.3,69.5,446.3,71.8z M445.2,84.5c0.1-0.3,0.2-0.7,0.2-1.2c0-1-0.2-1.4-0.6-1.4l-11.2,4.4v0.8c1.3,0,3-0.5,5.1-1.4
				c0.2-0.1,0.9-0.3,2.1-0.8c1.2-0.4,2.4-0.7,3.5-0.7v1C444.7,85.1,445,84.8,445.2,84.5z M445.4,79.1c0-1.9-0.8-2.9-2.3-2.9
				l-10.5,4.4l-0.6,0.6c2.8,0,5.7-0.1,8.8-0.5C443.8,80.6,445.4,80,445.4,79.1z M442.8,88.8c0.6-0.9,0.9-1.7,0.9-2.5
				c-0.9,0-2.1,0.3-3.6,0.8l-5.5,1.6c-12,2.9-18.8,5.2-20.1,7.1c1,0,4.4-0.5,10.1-1.6c5.7-1.1,11.1-2.2,16.3-3.3
				C441.5,90.3,442.2,89.6,442.8,88.8z M442,81.9v-0.7c-3,1-6.2,1.4-9.6,1.4c-1,0-2.5-0.1-4.4-0.3c-0.5,0.3-1.6,2.3-3.4,6.2
				c0.1,0.2,0.3,0.4,0.5,0.6c0.3,0.3,0.5,0.4,0.6,0.4c0.4-1.4,2-2.7,4.8-3.8C433.3,84.7,437.1,83.3,442,81.9z M428.5,81.4l13.5-6.1
				l-0.6-0.1c-0.4,0-0.7,0.1-1.1,0.2c-0.4,0.1-0.8,0.2-1.1,0.3c-0.9,0.3-1.8,0.5-2.9,0.7c-1.1,0.2-1.9,0.4-2.4,0.6
				c-2,0.3-3.4,0.7-4.2,1c-0.8,0.3-1.2,1-1.2,2L428.5,81.4z M439.3,74.9c1.4-0.4,2.2-0.9,2.7-1.5c-1-0.8-2-1.2-2.9-1.2l-9,3.4v0.6
				c0.7-0.1,2.1-0.2,4.1-0.5C436.3,75.6,438,75.3,439.3,74.9z M439.6,46.1v-2c-1,0-1.7,0.1-2.3,0.2c-0.6,0.1-1.1,0.5-1.6,1.1
				C437.2,45.9,438.5,46.1,439.6,46.1z M437.4,70l-3.2-1c-2-0.8-3.2-1.2-3.5-1.2c-0.3,0-1.3,0.6-3.1,1.8s-2.8,1.9-3,2.3
				C429.6,71.9,433.9,71.3,437.4,70z M437.1,42.9c0.7-0.7,1.2-1.2,1.5-1.4c-0.4-0.8-1-1.2-1.8-1.2c0,0.6-0.3,1.2-0.8,1.9
				c-0.5,0.7-0.8,1.1-0.9,1.2c0,0.1,0,0.2,0.1,0.3c0.1,0.1,0.2,0.2,0.4,0.2C435.9,44,436.4,43.7,437.1,42.9z M434.6,95.4l-1.6-0.1
				c-0.6,0-1.5,0.1-2.6,0.3c-1.1,0.2-1.9,0.3-2.5,0.3c0.3,0,0.5-0.3,0.5-1l-7.8,2.2c0.3,0.3,0.5,0.4,0.8,0.5c0.3,0.1,0.6,0.1,1,0.1
				C426.6,97.6,430.6,96.9,434.6,95.4z M435.7,39.9c-0.7,0-1.5,0.2-2.3,0.5c-0.8,0.4-1.5,0.7-2,1c-0.5,0.3-0.8,0.5-1,0.6
				c-1.6,1-2.7,1.6-3.2,1.8c1.3,0.3,2.5,0.5,3.5,0.5C432.8,44.3,434.4,42.8,435.7,39.9z M432.5,74c1.8-0.8,2.9-1.5,3.2-2.1
				c-1.4,0-3.2,0.2-5.5,0.6c-2.3,0.4-3.4,0.9-3.4,1.6c0,0.8,0.5,1.2,1.4,1.2C429.2,75.2,430.7,74.8,432.5,74z M425.7,43.1l6.8-3.9
				c-0.5-0.3-1.3-0.4-2.2-0.4c-0.7,0-1.7,0.7-3,2c-1.3,1.3-2,2.1-2.2,2.3H425.7z M425.7,66.3l3.9-0.7c-3.1-0.8-5.8-1.2-8.1-1.2
				c-1.4,0-2.8,0.3-4.1,0.9c-1.3,0.6-2.4,1.4-3,2.5C416.9,67.8,420.7,67.3,425.7,66.3z M429.1,68v-0.6c-0.2,0.1-2,0.3-5.3,0.6
				c-2.9,0.2-5.2,0.4-6.6,0.6c-1.5,0.2-2.2,0.6-2.1,1c2.8,0.8,5,1.2,6.8,1.2c0.9,0,2.1-0.4,3.5-1.3C426.8,68.4,428.1,68,429.1,68z
				 M429.1,38.8c-0.4-0.4-1.5-0.6-3.1-0.8c-0.2,0-0.5,0-1.1-0.1c-0.6,0-1-0.1-1.4-0.3c-0.4-0.2-0.6-0.4-0.6-0.7l-11.2,5.6
				c1.2,0,2.5-0.3,3.7-0.8c1.3-0.5,2-0.8,2.3-0.9c2.2-1.1,4.2-1.7,5.7-1.7c0.3,0,0.6,0.1,0.9,0.3c0.3,0.2,0.4,0.4,0.4,0.7
				c0,0.2-5.1,2.5-15.2,7h-1.2l-8.4,4.5v0.5h1.2c0.3,0,2.8-1,7.3-2.9c4.5-1.9,7.9-3.4,10.1-4.4c1.4-0.8,3.2-1.8,5.3-3
				C425.9,40.8,427.7,39.7,429.1,38.8z M411.7,67.3l6.1-3.4c-0.4,0.1-2,0.3-4.7,0.7c-2.7,0.4-4.5,0.7-5.3,1c0,0.2,0.6,0.5,1.7,1
				C410.6,67.1,411.3,67.3,411.7,67.3z M416.6,62.8l0.6-0.5c-0.3-0.2-0.7-0.4-1.1-0.6c-0.4-0.3-0.7-0.4-1-0.5
				c-0.4,0.3-1.1,0.6-2.1,1.2c-1,0.5-1.8,0.9-2.5,1.2l1.2,0.5c0.1-0.2,0.8-0.4,2.1-0.6C415.1,63.1,416,62.9,416.6,62.8z M411,95.4
				l5.6-2.5c-0.1,0-0.2-0.1-0.5-0.2c-0.2-0.1-0.4-0.2-0.6-0.2c-1.3,0.2-2.9,0.4-4.8,0.8c-1.9,0.3-3.5,0.6-4.7,0.9
				c0.7,0.4,1.6,0.7,2.6,0.9C409.7,95.3,410.5,95.4,411,95.4z M415.5,37.3c1.1-0.6,1.7-1.1,1.8-1.8c-3.5,0-5.7,0.5-6.8,1.4l-1.7,1.2
				c-0.2,0.4-1.1,0.9-2.7,1.4c-1.5,0.6-2.6,1.2-3.4,1.7c-0.8,0.5-1.2,1.3-1.2,2.5h0.8c1,0,4.5-1.3,10.3-3.9l2.6-1
				c-0.9-0.1-1.3-0.2-1.3-0.4C413.8,38.3,414.3,37.9,415.5,37.3z M415.1,48.3v-0.6c-1.4,0.8-3.1,1.5-5.1,2.2c-2.3,1-4.3,1.8-5.8,2.7
				c-1.5,0.8-2.8,1.8-3.8,3.1c1,0,2.1-0.3,3.2-1c1.1-0.6,1.8-1.1,2.1-1.2c2.2-1.5,3.9-2.2,5.2-2.2c0,0.3-0.4,0.8-1.2,1.3
				s-1.3,0.9-1.4,1c-1.4,0.9-2.3,1.6-2.7,2.1c0.3-0.1,1-0.3,1.9-0.7c1-0.4,2-0.7,3-1c0.1,0,0.6-0.8,1.5-2.4
				C412.9,49.9,413.9,48.9,415.1,48.3z M417.3,90.8c-1.6-1.1-4.5-1.7-9-1.7c-0.7,0.5-1.8,1.3-3.3,2.3c-1.5,1-2.3,1.5-2.3,1.6
				l0.7,0.1C405.5,93.2,410.1,92.4,417.3,90.8z M411,59.7c1.4-0.2,2-0.4,1.9-0.7l-1.2-1.8l-5.1,2.9h0.9
				C408.5,60,409.6,59.9,411,59.7z M412.3,60.6c-0.1-0.1-0.3-0.1-0.5-0.1c-0.7,0-1.8,0.3-3.3,0.8c-1.5,0.6-2.5,0.9-2.9,1
				c0.3,0.4,0.5,0.9,0.7,1.4c0.2,0.5,0.4,0.9,0.6,1c0.4,0,1.5-0.6,3.1-1.8C411.5,61.7,412.3,60.9,412.3,60.6z M408.3,45l-1.2-0.1
				c-1.6,0-3.3,0.5-4.9,1.5c-1.6,1-2.4,2-2.4,3.1C404.1,48.3,406.9,46.9,408.3,45z M407.1,58.2c1.5-1,2.7-1.8,3.5-2.6
				c-1,0.4-2.5,0.8-4.4,1.2c-2.1,0.3-3.6,0.7-4.5,1c0.1,1.2,0.6,1.8,1.7,1.8C404.3,59.6,405.6,59.2,407.1,58.2z M406.1,89.2
				c-0.3,0-0.5-0.1-0.7-0.2c-0.2-0.1-0.4-0.2-0.4-0.2c-0.8,0-1.9,0.3-3.2,0.8c-1.4,0.5-2.2,1.2-2.3,2c0,0.4,0.2,0.8,0.5,1
				C402.5,92.1,404.5,91,406.1,89.2z"/>
			<path d="M386.5,93.9c0.2,1.6,0.3,3,0.3,4.2c0,1.5-2.4,2.2-7.1,2.2c-2.5,0-4.2-0.1-5.1-0.1h-3c-0.4-0.4-1.6-0.7-3.5-0.9
				c-1.8-0.2-3.1-0.4-3.8-0.8c-0.4,0-1.3,0.3-2.9,1c-1.9,1-3.4,1.6-4.4,1.7l-11.7-0.4l-1.2-0.6c-6.2-2.2-10.7-6.2-13.7-12.1
				c-3-5.9-4.9-12.2-5.7-19c-0.8-6.8-1.2-14.7-1.2-23.6c0-3.2,0.1-5.7,0.3-7.5c0.2-1.8,0.6-3.3,1.2-4.4h16.2l1.7,0.7
				c0.6,0.3,0.9,1.3,0.9,3.1c0,1.2-0.1,2.6-0.4,4.3c-0.3,1.6-0.4,2.7-0.5,3.2c-0.6,2.9-0.9,5.1-0.9,6.6c0,3.1,0.3,6.9,0.9,11.3
				l0.5,4.9c0.2,2.5,1,5,2.5,7.6c1.5,2.6,3.3,4.7,5.3,6.3c2,1.7,4,2.5,5.8,2.5c0.9,0,1.8-0.2,2.4-0.5c0.6-0.4,1.2-0.5,1.6-0.5
				c0.7,0,1.3,0.1,1.9,0.3c1.3,0,2.3-0.7,2.9-2c0.6-1.3,1-2.8,1-4.3c0-1.2-0.3-3.2-1-6c-0.9-3-1.3-5.5-1.3-7.7l0.1-5.6l-0.6-20.2
				c0-1.5,0.1-2.7,0.4-3.6c0.3-1,0.8-1.4,1.7-1.4c1.7,0.2,5,0.6,9.8,1.2c4.8,0.7,7.2,1.2,7.2,1.6c0,1.7-0.2,4.2-0.5,7.5
				c-0.4,2.8-0.6,5.3-0.6,7.7s0.1,4.8,0.4,7.3c0.2,3.1,0.3,5.5,0.3,7l2.7,15.9l-0.1,1.8c0,1.8,0.3,4.5,0.8,7.9
				C386.2,91.1,386.3,92.3,386.5,93.9z M383.2,97.5c0-1.8-0.2-3.2-0.6-4.3c-0.4-1-0.6-1.7-0.6-1.9l-10.5,5.1c-0.4,0-0.7,0.1-1,0.3
				c-0.4,0.2-0.6,0.3-0.6,0.3c0.9,0.8,2.5,1.2,4.8,1.2C377.9,98,380.8,97.8,383.2,97.5z M382.7,89.5l-0.6-3.4
				c-1.2,0.8-2.2,1.6-2.9,2.5c-0.7,0.9-1.4,1.6-2,2c-0.6,0.4-1.6,1-3,1.7c-1.7,0.9-3,1.6-3.8,2.2c1,0,2.1-0.2,3.3-0.7
				c1.2-0.5,2.7-1.2,4.6-2.3c0.4-0.2,1.1-0.5,2.1-1C381.3,90.1,382.1,89.7,382.7,89.5z M382.2,81.1c0-1.1-0.2-2-0.5-2.7
				c-3.3,1.7-6.2,3.4-8.6,5.3c-2.5,1.9-4.9,4.1-7.3,6.8c0.3,0.3,0.6,0.6,1.1,0.7c0.5,0.1,0.9,0.3,1.1,0.4c0.3,0.1,0.4,0.5,0.4,1
				c0.3-0.2,0.9-0.5,1.8-1c0.8-0.5,1.7-1,2.5-1.3c0.4-0.3,2-1.2,4.8-2.9c2.8-1.7,4.3-2.8,4.7-3.4c-1,0-2.4,0.2-4.3,0.5
				c-2.1,0.3-3.8,0.5-5.2,0.5c0.2-0.7,1.7-1.2,4.6-1.6c1.6-0.3,2.8-0.6,3.7-0.9C381.7,82.2,382.2,81.7,382.2,81.1z M381.1,76
				c0-1.3-0.2-2.6-0.6-3.9l-7,4.6v1.7c-1.4,0-2.6,0.3-3.6,1c-1,0.7-1.6,1.6-1.8,2.9c-1,1.3-2.2,2.3-3.6,3.1
				c-1.5,0.8-2.9,1.4-4.2,1.9c-1.3,0.5-2.3,0.9-2.8,1c-0.6,0.8-2,2-4.2,3.8c-1.3,1-2.3,1.8-3.1,2.5c-0.7,0.7-1.3,1.4-1.8,2.2
				c0.9-0.4,2.4-1.3,4.6-2.5c2.2-1.2,4.4-2.4,6.6-3.6c0.5-0.3,2.4-1.6,5.6-3.9c1.5-1.4,3-2.5,4.6-3.4c0.8-0.5,1.7-1,2.9-1.4
				c1.5-0.7,2.7-1.3,3.6-1.9c0.9-0.6,1.7-1.4,2.3-2.3c-0.7,0.1-1.5,0.1-2.5,0.1c-0.7,0-1,0-1-0.1c0-0.3,0.7-0.6,2.2-1
				C378.8,76.3,380.1,76.1,381.1,76z M379.8,36.9h-5.6l-1.7,1.7l2.3,0.1C377.4,38.7,379.1,38.1,379.8,36.9z M379.3,68.2v-4
				c-0.3,0-1.7,0.9-4.3,2.7c-2.6,1.8-3.9,2.8-4,3.2c0.3-0.1,1.3-0.2,3-0.4C377.5,69.2,379.3,68.7,379.3,68.2z M379.3,70.6l-2.2-0.1
				c-1.3,0-3,0.1-4.9,0.4c-2,0.3-3,0.7-3,1.2c0,0.3,0.2,1,0.6,2.1c0.4,1.2,0.6,2,0.6,2.5c1.7-0.8,3.4-1.7,5.1-2.8
				C377.2,72.8,378.5,71.7,379.3,70.6z M375.3,61.9h3.6c0-0.8-0.1-2-0.1-3.5c-0.1-1.6-0.3-2.6-0.5-3c-0.8,1.4-2.2,2.9-4.3,4.5
				c-1.1,0.9-2.1,1.8-3,2.7c0.5,0,1.3-0.1,2.4-0.2C374.5,62.3,375.1,62.1,375.3,61.9z M378.7,46.4c0.6-1,1-2.7,1.2-5.1
				c-0.7,0-2.1,0.8-4.3,2.5l-3,2.1h5.7L378.7,46.4z M378.7,52.5v-4.9c-0.8,0.9-1.9,1.8-3.2,2.7c-1.7,1.2-2.9,2.2-3.4,2.9
				c1.1,0,2.2-0.1,3.4-0.4C376.8,52.6,377.9,52.5,378.7,52.5z M377.6,54.3c-0.1-0.1-0.3-0.2-0.7-0.3c-0.4-0.1-0.7-0.2-1-0.2
				c-0.8,0-1.4,0.4-2,1.1c-0.6,0.7-1.3,1.1-2.1,1.1c-0.2,0-0.3-0.2-0.5-0.5c-0.2-0.3-0.4-0.5-0.6-0.6c-0.4-0.1-0.9-0.2-1.5-0.3
				s-1-0.2-1-0.4l-0.5,7.8l0.5,0.1c1,0,2.7-1.3,5.3-3.8C376.1,55.9,377.5,54.5,377.6,54.3z M377.1,63.8c0-0.2-0.1-0.3-0.2-0.4
				s-0.3-0.1-0.4-0.1c-1,0-2.7,0.3-5,0.8c-2.3,0.5-3.4,1.1-3.4,1.7l0.6,3.6c0.9-0.4,2.5-1.3,4.9-2.7
				C375.9,65.3,377.1,64.3,377.1,63.8z M373.2,43.3c2.6-1.5,4.3-2.6,5.1-3.5c-1.2,0-3.1,0.3-5.7,0.8c-2.6,0.6-4.2,1.2-5,1.9l0.5,4.5
				C368.7,46.1,370.4,44.8,373.2,43.3z M372.8,50.8c1.7-1.2,2.9-2.3,3.6-3.2c-1.4,0-2.7,0.1-4,0.4c-0.4,0-1.1,0.1-2,0.2
				c-0.9,0.1-1.8,0.2-2.5,0.2c-0.1,0.2-0.1,0.6-0.1,1.3c0,2,0.4,3.2,1.2,3.6C369.8,52.8,371.1,52,372.8,50.8z M372,37.5l0.5-1.4
				h-2.7c0,0.7-0.7,1-2.2,1v2.1c0.5-0.2,1.2-0.4,2.2-0.8C370.8,38.1,371.5,37.8,372,37.5z M364.9,91.8h-1.3c-0.4,0-1.4,0.7-2.9,2.1
				c-1.5,1.4-2.2,2.2-2.2,2.6c1.6,0,3-0.4,4.4-1.2C364.2,94.4,364.9,93.2,364.9,91.8z M361.4,91.2L348.5,98c-2,0.6-3,0.9-3,1l3-0.1
				c1.3,0,2.2,0,2.9,0.1l3,0.1c0.9,0,1.6-0.2,1.9-0.7c-0.3-0.2-0.5-0.5-0.5-1c0-0.8,0.3-1.5,0.9-2.2c0.6-0.6,1.4-1.4,2.5-2.1
				C360.5,92.1,361.2,91.5,361.4,91.2z M356.3,87.9c-0.1-0.2-0.2-0.3-0.4-0.4c-0.2-0.1-0.4-0.1-0.5-0.1c0,0.1-1.9,1.2-5.7,3.2
				l-3.4,1.8l-0.6-0.7c-0.4,0.9-1.7,1.7-3.8,2.3c-0.1-0.1-0.2-0.2-0.5-0.3c-0.2-0.1-0.3-0.3-0.3-0.6c0-0.5,0.4-1.1,1.1-1.7
				c0.7-0.6,1.8-1.3,3.2-2.1c1.6-0.9,2.8-1.7,3.6-2.4c0.9-0.7,1.3-1.4,1.3-2h-1.8l-6.1,3.1l-6.8,3.6c1.4,2.2,4.2,4.2,8.5,5.7
				c0.6,0,2.4-1.4,5.3-4.2c1.2-1.2,2.5-2.4,3.8-3.5C354.5,88.8,355.5,88.1,356.3,87.9z M353.6,87.3c-0.2-0.2-0.4-0.3-0.7-0.4
				c-0.3-0.1-0.5-0.1-0.7-0.1c-0.8,0-1.9,0.6-3.3,1.8s-2.3,1.9-2.5,2.1c1.1,0,2.6-0.6,4.5-1.9C352.1,88.1,353,87.6,353.6,87.3z
				 M338.5,88.4L348,84c0-0.3-0.1-0.6-0.3-1.1c-0.2-0.5-0.3-0.8-0.3-1.1c-1.2,0.4-3.2,1.6-6.1,3.4c-2.9,1.9-4.4,3.3-4.5,4.4
				c0.1,0.1,0.2,0.1,0.4,0.1c0.3,0,0.5-0.2,0.8-0.6C338.2,88.7,338.4,88.5,338.5,88.4z M345.3,80.7h-0.6l-11.8,5.5
				c0.2,0.2,0.4,0.5,0.7,1c0.3,0.5,0.6,0.8,1,0.8l0.7-0.1c1-0.9,2.6-2,4.7-3.1C342.4,83.2,344.2,81.8,345.3,80.7z M343,80.2
				c0.8-0.5,1.2-1,1.2-1.4c-1.2,0-2.5,0.4-3.8,1.2c-1.3,0.8-2.3,1.8-3.1,2.9c0.3-0.2,1.2-0.5,2.5-1.1
				C341.1,81.2,342.2,80.7,343,80.2z M342.3,76.7c-0.2-1.9-0.9-4.6-2.1-8.1c-0.3-0.8-0.6-1.7-0.9-2.6c-0.7,0-2.3,1.1-4.9,3.2
				c-2.6,2.2-3.9,3.6-3.9,4.2c0.4,0,1.4-0.4,3-1c2.1-1,3.7-1.4,4.9-1.4c1,0,1.6,0.2,1.7,0.6c-0.3,1.1-0.9,2.1-1.7,2.8
				c-0.8,0.7-1.8,1.5-3,2.4c-2.2,1.7-3.6,3.1-4.2,4.3c0.4-0.1,0.9-0.3,1.3-0.5c0.4-0.3,0.7-0.4,0.9-0.5l3.1-1
				c0.5-0.2,1.6-0.5,3.2-1.1C341.4,77.3,342.3,76.9,342.3,76.7z M340.3,36.4h-2.6c0,0.5,0.3,1,0.8,1.5c0.6,0.5,0.9,0.9,1,1.2
				c0,0.5-1.6,2.2-4.9,5.2c-3.3,3-5.5,4.6-6.8,4.9h1l9-2.2C339.5,47,340.3,43.5,340.3,36.4z M339.5,61.5v-4.3l-0.6-0.7
				c-1,1.1-2.2,2.2-3.8,3.1c-2.8,1.8-4.5,3.5-5.1,5.2L339.5,61.5z M338.9,53.8v-5.2c-2,0.9-4.2,2.6-6.5,5.3
				c-1.5,1.7-2.6,2.8-3.5,3.5l1.2,0.3C333.3,55.6,336.3,54.3,338.9,53.8z M338.9,63.8l-1-0.5c-0.8,0-2.5,0.5-5.1,1.6
				c-2.6,1-3.9,1.8-3.9,2.3v4.9c0.2-0.9,0.8-1.9,2-2.9c1.2-0.9,2.7-2,4.6-3.1C337.4,64.9,338.5,64.2,338.9,63.8z M338.9,79.5
				l-3.6,1.2c0,0.2-0.3,0.5-1,1c-0.7,0.5-1.5,0.9-2.5,1.2v1.6h0.5c0.3,0,1.3-0.7,3-1.9C336.9,81.2,338.1,80.2,338.9,79.5z
				 M338.4,72.8l0.1-1.2c-2.3,0.8-4.5,1.6-6.6,2.4c-2,0.8-3.1,1.6-3.1,2.4c0,0.3,0.2,0.7,0.5,1.4c0.3,0.7,0.6,1.3,0.6,1.7
				c1-1.3,2.3-2.6,3.9-3.8S337,73.6,338.4,72.8z M338.9,54.8c-0.6,0-2.3,0.8-5.1,2.3c-2.6,1.4-4.1,2.1-4.4,2.1v-0.5l-0.5,0.5v4
				c1.3-1.2,3.1-2.8,5.3-4.7C336.5,56.7,338,55.4,338.9,54.8z M335.1,36.4h-6.8v4.5h0.5c0.4-0.3,1.3-0.9,2.7-2
				C333,37.9,334.2,37.1,335.1,36.4z M333.8,50.4c0.7-0.9,1.2-1.5,1.4-1.8c-0.3,0.2-0.7,0.3-1.4,0.4c-0.7,0.1-1.2,0.2-1.4,0.3
				s-0.8,0.2-1.7,0.5c-0.9,0.2-1.5,0.5-2,0.7c-0.5,0.3-0.7,0.6-0.7,0.9l0.5,3.4c0.8-0.3,1.7-0.8,2.7-1.8
				C332.1,52.2,333,51.3,333.8,50.4z M332.6,44.2c1.5-1.2,2.7-2.3,3.6-3.3c-1,0-2.5,0.3-4.3,1c-1.8,0.7-2.8,1.1-3,1.2
				c-0.4,0.4-0.6,1-0.6,1.8l0.1,2.1C329.7,46.3,331.1,45.4,332.6,44.2z"/>
			<path class="st1" d="M382.1,86.2l0.6,3.4c-0.6,0.2-1.4,0.5-2.3,1c-1,0.5-1.6,0.9-2.1,1c-1.9,1-3.4,1.8-4.6,2.3
				c-1.2,0.5-2.3,0.7-3.3,0.7c0.8-0.6,2-1.3,3.8-2.2c1.4-0.7,2.4-1.3,3-1.7c0.6-0.4,1.3-1.1,2-2C379.9,87.8,380.8,86.9,382.1,86.2z"
				/>
			<path class="st1" d="M380.5,72.1c0.4,1.3,0.6,2.6,0.6,3.9c-1,0.1-2.3,0.3-3.8,0.7c-1.5,0.4-2.2,0.7-2.2,1c0,0.1,0.3,0.1,1,0.1
				c1,0,1.8,0,2.5-0.1c-0.6,1-1.4,1.7-2.3,2.3c-1,0.6-2.2,1.3-3.6,1.9c-1.1,0.4-2.1,0.9-2.9,1.4c-1.6,0.9-3.1,2-4.6,3.4
				c-3.2,2.2-5.1,3.5-5.6,3.9c-2.2,1.2-4.4,2.4-6.6,3.6c-2.2,1.2-3.8,2-4.6,2.5c0.4-0.8,1-1.5,1.8-2.2c0.7-0.7,1.8-1.5,3.1-2.5
				c2.2-1.7,3.6-3,4.2-3.8c0.5-0.2,1.5-0.5,2.8-1c1.4-0.5,2.8-1.2,4.2-1.9c1.5-0.8,2.7-1.8,3.6-3.1c0.2-1.3,0.8-2.3,1.8-2.9
				c1-0.7,2.2-1,3.6-1v-1.7L380.5,72.1z"/>
			<path class="st1" d="M379.3,64.2v4c0,0.5-1.8,1-5.3,1.4c-1.6,0.2-2.6,0.3-3,0.4c0.1-0.3,1.4-1.4,4-3.2
				C377.6,65.1,379.1,64.2,379.3,64.2z"/>
			<path class="st1" d="M378.9,61.9h-3.6c-0.2,0.3-0.8,0.5-1.9,0.6c-1.1,0.1-1.9,0.2-2.4,0.2c0.9-0.9,1.9-1.9,3-2.7
				c2.1-1.6,3.5-3.2,4.3-4.5c0.3,0.4,0.4,1.4,0.5,3C378.9,59.9,378.9,61.1,378.9,61.9z"/>
			<path class="st1" d="M379.8,41.3c-0.2,2.3-0.6,4-1.2,5.1l-0.4-0.5h-5.7l3-2.1C377.7,42.1,379.1,41.3,379.8,41.3z"/>
			<path class="st1" d="M378.7,47.6v4.9c-0.8,0-1.9,0.1-3.2,0.3c-1.1,0.3-2.3,0.4-3.4,0.4c0.5-0.7,1.6-1.7,3.4-2.9
				C376.8,49.3,377.9,48.4,378.7,47.6z"/>
			<path class="st1" d="M363.6,91.8h1.3c0,1.5-0.7,2.6-2,3.4c-1.3,0.8-2.8,1.2-4.4,1.2c0-0.3,0.7-1.2,2.2-2.6
				C362.2,92.4,363.2,91.8,363.6,91.8z"/>
			<path class="st1" d="M352.9,86.9c0.3,0.1,0.5,0.2,0.7,0.4c-0.6,0.3-1.5,0.7-2.7,1.4c-1.9,1.3-3.4,1.9-4.5,1.9
				c0.3-0.2,1.1-0.9,2.5-2.1s2.5-1.8,3.3-1.8C352.3,86.8,352.6,86.9,352.9,86.9z"/>
			<path class="st1" d="M348,84l-9.5,4.4c-0.1,0.1-0.3,0.3-0.6,0.7c-0.3,0.4-0.6,0.6-0.8,0.6c-0.2,0-0.3,0-0.4-0.1
				c0.2-1,1.7-2.5,4.5-4.4c2.9-1.9,4.9-3,6.1-3.4c0,0.3,0.1,0.6,0.3,1.1C347.9,83.3,348,83.7,348,84z"/>
			<path class="st1" d="M344.2,78.8c0,0.4-0.4,0.9-1.2,1.4c-0.8,0.5-1.9,1.1-3.2,1.6c-1.3,0.6-2.1,0.9-2.5,1.1
				c0.8-1.1,1.8-2.1,3.1-2.9C341.8,79.2,343,78.8,344.2,78.8z"/>
			<path class="st1" d="M340.2,68.6c1.2,3.5,1.9,6.2,2.1,8.1c0,0.3-0.8,0.7-2.5,1.2c-1.6,0.6-2.7,0.9-3.2,1.1l-3.1,1
				c-0.2,0.1-0.5,0.3-0.9,0.5c-0.4,0.3-0.9,0.4-1.3,0.5c0.6-1.2,2-2.6,4.2-4.3c1.2-0.9,2.2-1.7,3-2.4c0.8-0.7,1.3-1.7,1.7-2.8
				c-0.1-0.4-0.6-0.6-1.7-0.6c-1.2,0-2.9,0.5-4.9,1.4c-1.6,0.7-2.6,1-3,1c0-0.6,1.3-2,3.9-4.2c2.6-2.2,4.2-3.2,4.9-3.2
				C339.5,67,339.8,67.8,340.2,68.6z"/>
			<path class="st1" d="M337.7,36.4h2.6c0,7.1-0.8,10.7-2.5,10.7l-9,2.2h-1c1.2-0.3,3.5-2,6.8-4.9c3.3-3,4.9-4.7,4.9-5.2
				c-0.1-0.3-0.4-0.8-1-1.2C338,37.4,337.7,36.9,337.7,36.4z"/>
			<path class="st1" d="M339.5,57.2v4.3l-9.5,3.4c0.6-1.7,2.3-3.4,5.1-5.2c1.6-1,2.8-2,3.8-3.1L339.5,57.2z"/>
			<path class="st1" d="M338.9,48.6v5.2c-2.6,0.5-5.5,1.8-8.8,3.9l-1.2-0.3c0.9-0.7,2-1.9,3.5-3.5C334.7,51.2,336.9,49.5,338.9,48.6
				z"/>
			<path class="st1" d="M328.4,36.4h6.8c-1,0.7-2.1,1.6-3.5,2.6c-1.4,1-2.3,1.7-2.7,2h-0.5V36.4z"/>
			<path d="M313.7,60.6c0,1.4-0.1,2.3-0.3,2.7c-0.2,0.4-0.3,0.7-0.3,1c0,0.1,0.1,0.2,0.3,0.3c0.2,0.1,0.3,0.2,0.4,0.2
				c-0.8,0.4-1.2,0.7-1.2,1l0.1,0.8c0,0.9-2,1.7-6.1,2.4c-4.1,0.7-12.6,1.5-25.7,2.4c-0.3,0.1-0.9,0.1-2.1,0.1c-1.2,0-1.9,0-2.1-0.1
				c0.4,3,1.6,5.2,3.5,6.5c1.9,1.3,4.2,2.3,7,3c0.7,0.2,1.3,0.4,1.9,0.6c0.6,0.2,0.9,0.5,1,0.7l0.5-0.4h11.8c1.2,0,2.6-0.5,4.2-1.4
				c1.6-0.9,2.4-1.5,2.5-1.9c1.6,0,2.5,1.3,2.5,4l-0.1,3.2l0.3,4.7l0.5,0.4c-2.8,2.8-5.5,4.6-8.1,5.5c-2.6,0.9-6,1.3-10,1.3
				c-3.5,0-6.4-0.2-8.7-0.6c-2.7-0.2-5.2-0.6-7.5-1.4c-2.3-0.7-4.2-1.8-5.6-3.2c-1.2,0-2.6-0.4-4.2-1.2c-1.6-0.8-3-1.9-4.2-3.1
				c-1.2-1.2-1.8-2.5-1.8-3.8l0.1-0.5c-0.6-0.8-1.1-1.7-1.5-2.7c-0.4-1-0.7-2.1-1-3.2c-0.7-2.4-1.3-4.2-1.9-5.3v-1
				c-0.1-0.6-0.1-1.5-0.1-2.6c0-2.8,0.1-5,0.3-6.7c0.2-1.7,0.6-3.7,1.3-6c0.3-0.9,0.6-1.7,1.2-2.6c0.6-1,1.1-2,1.4-3
				c0.6-2.1,1.5-3.8,2.7-5.2c1.2-1.4,2.8-2.9,5-4.5c0.4-0.4,1.6-1.1,3.8-2.2c2.2-1.1,4.6-2.2,7.1-3.1s4.6-1.4,6.4-1.4
				c2.2,0,5.6,0.8,10.1,2.4c4.5,1.6,7.6,3.2,9.5,4.8c2.5,2,4.2,4.5,5.1,7.6C312.4,51.7,313.2,55.7,313.7,60.6z M310,65.8l1-1
				c-0.4-0.1-0.6-0.4-0.6-1l0.1-0.5c-1,0.5-1.7,0.8-2.3,1c-0.6,0.1-1.4,0.2-2.3,0.2l-1.6-0.1l1-0.5l-0.4-0.5l-3.6,1.6
				c-0.2-0.3-0.5-0.5-1-0.5c-0.9,0-1.6,0.2-2.1,0.7c-0.6,0.5-1.9,0.9-4,1.4l-0.6-1c0,0.4-0.7,0.9-2.1,1.4c-1.2,0.4-2.2,0.7-3,0.7
				c-0.1,0-0.2,0-0.3,0c-0.8,0-1.2-0.3-1.2-0.8c0.1-0.2,1.2-0.5,3.5-1.1c2.2-0.6,3.5-1.1,3.8-1.8c-0.7-0.3-1.3-0.5-1.7-0.5
				c-0.4,0-0.8,0.1-1.3,0.3c-0.5,0.2-0.9,0.3-1.2,0.3c-0.5,0-0.8-0.1-0.8-0.3c0-0.2,0.2-0.3,0.6-0.5c0.4-0.1,1-0.2,1.6-0.3
				c0.4-0.4,1.1-0.8,2.2-1.2c1.1-0.4,2.3-0.7,3.5-0.9c2.6-0.5,4-1,4.2-1.4c-3.1,0-5.9,0.3-8.2,1c-0.5-0.2-0.8-0.7-0.8-1.6H290
				l-0.5,0.9l1,0.7l-0.5,1l-6.2,3h-2c0.4-0.3,0.9-0.7,1.5-0.9c0.6-0.3,1.1-0.5,1.4-0.7c1.9-0.9,3.2-1.7,3.8-2.5h-1.6
				c0.1-0.2,0.4-0.4,0.9-0.7c0.5-0.3,0.7-0.5,0.7-0.7c0-0.2-0.1-0.3-0.3-0.5c-0.2-0.1-0.3-0.2-0.3-0.3c-0.6,0.4-2.9,0.5-6.9,0.5
				h-3.4c-0.4,0-0.8,0.2-1.2,0.5c-0.4,0.3-0.7,0.5-0.9,0.5c-0.3,0-0.6-0.1-1-0.2c-0.4-0.1-0.7-0.2-0.8-0.2c-0.3,0.1-1.2,0.2-2.9,0.4
				c-1.7,0.2-2.5,0.4-2.5,0.7v0.6c2,0,3.5-0.2,4.5-0.6c0.8,0,1.2,0.3,1.2,0.8s-0.3,1-0.8,1.4c-0.1,0.1-0.3,0.2-0.4,0.3
				c-0.4,0.2-0.8,0.3-1.2,0.3c-0.2,0-0.4-0.1-0.8-0.3l-6.2,3.6c-0.2-0.3-0.4-0.5-0.8-0.6c-0.4,0-0.6-0.2-0.8-0.4
				c0.4-0.5,0.9-0.9,1.6-1.2c0.7-0.3,1.2-0.5,1.5-0.6c1.1-0.3,2-0.7,2.6-1.2l-2.1-0.1c-0.5,0-1.3,0.1-2.2,0.3
				c-0.9,0.2-1.7,0.3-2.3,0.3c-0.4,0-0.8,0-1-0.1l-1,3.6c0.4,0.2,0.7,0.5,0.7,0.9c0,0.4,0.1,0.8,0.2,1.1c0.1,0.3,0.5,0.5,1.2,0.5
				c1.3,0,3.6-1.1,6.8-3.2c0.4-0.2,1.1-0.6,2.1-1.2c0.8-0.4,1.4-0.8,2-1.1c0.3-0.1,0.5-0.2,0.8-0.4c0.8-0.3,1.5-0.5,2.1-0.5
				c0.7,0,1.3,0.2,1.7,0.7c0,0.3-0.5,0.7-1.6,1.2c-1.1,0.4-1.9,0.8-2.5,1.2c0.4,0.1,0.5,0.6,0.5,1.4c0,0.5-0.7,1-2,1.4
				s-2,0.7-2.2,0.8v-0.5c-0.8,0-1.2,0.4-1.2,1l0.1,0.5c1,0,2.2-0.3,3.6-1c0.9-0.6,1.9-0.9,2.9-0.9c0-0.7,0.4-1.2,1-1.6
				s1.4-0.6,2.2-0.6v0.5l1.6-0.5l-0.5-0.5c0.1-0.1,0.2-0.2,0.5-0.3c0.2-0.1,0.4-0.2,0.6-0.2c0.1,0,0.2,0.1,0.3,0.2s0.2,0.2,0.2,0.3
				c0.7-0.2,1.5-0.5,2.5-0.6c0.4-0.1,0.8-0.1,1.2-0.2c1.6-0.2,2.7-0.3,3.4-0.3c-1.1,0.7-3.2,1.4-6.2,2.1c-2.5,0.6-4,1.1-4.6,1.6v0.7
				c1.6,0,4.1-0.1,7.4-0.3c1.1-0.1,2.2-0.2,3.4-0.2c1.5-0.1,3.1-0.1,4.7-0.1l2.1,0.5c1.2-0.6,2.2-1,2.9-1.2s1.5-0.3,2.5-0.3
				c1,0,1.9,0,2.7-0.1c1.1-0.1,2.4-0.3,3.8-0.5C308.5,66,309.5,65.8,310,65.8z M310.6,57.6c0-0.3-0.2-0.7-0.5-1.2
				c-0.3-0.6-0.5-1-0.5-1.4c-1,0.4-2.2,0.9-3.6,1.4s-2.6,0.9-3.5,1.2h1c1.3,0,2.1-0.2,2.5-0.5c0.2,0,0.4,0,0.6,0.1
				c0.2,0.1,0.4,0.2,0.4,0.4c0-0.5,0.1-0.8,0.3-1c0.2-0.1,0.5-0.2,1-0.2c0.4,0,0.7,0,0.8,0.1l-0.5,0.5c0,0.1,0.1,0.2,0.3,0.4
				c0.2,0.2,0.3,0.3,0.3,0.4l-4,1.3c0.1,0,0.3,0,0.6,0.1c0.3,0,0.7,0.1,1.2,0.1C309.3,59.3,310.6,58.7,310.6,57.6z M310.7,62.2
				c-0.2-0.2-0.5-0.4-0.9-0.8c-0.4-0.4-0.7-0.7-0.8-0.9c-0.1,0.6-0.4,1.1-1,1.4c-0.6,0.3-1.3,0.5-2.1,0.7h2.6
				C309.1,62.6,309.8,62.5,310.7,62.2z M310.2,52.9c0-2.2-0.9-4-2.9-5.2c-1,0-2.6,0.4-4.7,1.3c-1.4,0.6-2.3,0.9-2.9,0.9
				c-0.3,0-0.4,0-0.5-0.1v0.9c0.7,0,1.5-0.2,2.3-0.5c0.9-0.3,1.6-0.5,2.2-0.5c0.2,0,0.3,0.1,0.4,0.2c0.1,0.1,0.1,0.3,0.1,0.5h3.6
				c-0.7,0.1-2.3,0.8-4.9,2c-2.6,1.3-3.9,2.1-3.9,2.5h3.8l-0.5-0.5h0.5c0.2,0,0.5,0.1,1.1,0.2c0.6,0.1,1.2,0.2,1.9,0.3
				C308.7,54.4,310.2,53.7,310.2,52.9z M309.5,91.5c-0.4-0.4-0.5-0.8-0.5-1.4v-0.7c0,0.3-0.3,0.7-0.8,1.2c-0.5,0.4-0.8,0.7-0.8,0.9
				c0,0.6,0.2,0.9,0.5,1C308.6,92.2,309.2,91.8,309.5,91.5z M309,83.2c-0.1-0.2-0.2-0.4-0.5-0.6c-0.2-0.2-0.4-0.4-0.6-0.4
				c-1,0-2.2,0.2-3.7,0.5c-1.5,0.3-2.6,0.6-3.2,0.8c-2.8,0.8-4.4,1.2-4.9,1.3c-0.3,0.9-0.8,1.7-1.7,2.5c-0.9,0.8-1.8,1.3-2.9,1.7
				l-0.8-1c0,1.5,0.2,2.2,0.6,2.2c0.8,0,3.2-1.2,7.3-3.5l2.6-1.4c0,0.4-1.5,1.8-4.4,4.2c-3,2.3-4.6,3.5-4.8,3.5
				c-0.4,0-1.1-0.4-2.1-1.1c-1.1-0.7-1.8-1.1-2-1.2l0.4,1c0,0.8-0.2,1.4-0.6,1.8c-0.4,0.4-1.2,0.8-2.3,1.2c0.4,0.4,1.3,0.7,3,0.7
				l3.2-0.1l0.5-1c0.1,0.4,0.3,0.5,0.5,0.5l0.9-0.1v0.8c0.2,0,0.4-0.1,0.6-0.3c0.3-0.2,0.5-0.3,0.6-0.3c0.3,0,0.5,0.1,0.8,0.3
				c0.3,0.2,0.6,0.3,0.9,0.3c1.5,0,2.9-0.5,4.4-1.6c1.4-1.1,2.1-2.4,2.1-3.8c-1,0-2,0.7-2.7,2v-0.7l-1,1c0-0.7,0.1-1.2,0.2-1.5
				c0.1-0.3,0.4-0.6,0.8-1l0.5,0.5c0.4-0.6,1.1-1.3,1.9-2.1c0.9-0.8,1.6-1.3,2.2-1.6l0.4,2c0,0.4-0.4,1.4-1.4,2.9
				c-0.9,1.5-1.5,2.4-1.6,2.8l3-1.4l-0.4-0.6c0.8-1.1,2.3-2.7,4.5-4.7c-0.2-1.4-0.7-2.1-1.6-2.1c-0.4,0-0.6,0.3-0.9,0.8
				c-0.3,0.5-0.6,0.8-1.2,0.9v-1.3c0.4,0,0.9-0.3,1.5-1C307.9,83.8,308.5,83.3,309,83.2z M305,45.7h1.4c-0.3-1.2-1.3-2.5-3.2-3.8
				s-3.5-2-4.7-2c-0.7,0-1.3,0.2-1.9,0.7c-0.6,0.4-1.4,1.1-2.4,1.9c-1,1-1.7,1.6-2.1,1.6h0.4c0.5,0,1.3-0.3,2.5-0.9s1.8-1.1,2-1.6
				V43h0.8l3.6-0.9c0.7,0,1,0.2,1,0.6c0,0.4,0,0.6-0.1,0.8c-0.1,0.2-0.1,0.4-0.1,0.5c-0.1,0-0.3-0.1-0.5-0.2
				c-0.3-0.1-0.5-0.2-0.8-0.2c-0.2,0-0.7,0.4-1.5,1.3c-0.8,0.9-1.4,1.5-1.6,1.8l3.6-1c-0.2,0.3-0.7,0.6-1.6,1c1.3,0,2.3-0.3,3.1-0.8
				s1.3-0.8,1.7-0.8c0.4,0,0.7,0,0.8,0.1L305,45.7z M296.6,50.4l6.2-3.1h-1c-3.5,0.5-5.6,0.9-6.2,1.2c0,0.3,0.1,0.6,0.5,1
				C296.4,49.9,296.6,50.2,296.6,50.4z M302.4,51.5l-1.6-0.1c-0.8,0-1.4,0.1-1.9,0.2c-0.5,0.1-0.9,0.4-1.2,0.8
				c0,0.2,0.1,0.4,0.4,0.6c0.3,0.2,0.5,0.4,0.6,0.5c0.3,0,0.9-0.3,1.8-0.9C301.5,51.9,302.1,51.5,302.4,51.5z M295.6,63.7l6.4-1.6
				l-3.1-0.3c-0.1,0-0.6,0.2-1.7,0.7C296.1,62.9,295.6,63.3,295.6,63.7z M292.5,39.9l4.2-0.3l-1-1l-4-1c-0.1,0.6-1,1.3-2.7,2.1
				c-1.7,0.8-2.9,1.2-3.5,1.2v0.9l6.2-1c0-0.3,0.1-0.5,0.2-0.7c0.1-0.2,0.2-0.3,0.3-0.4C292.2,39.6,292.3,39.7,292.5,39.9z
				 M296.6,44.7h-0.5l-5.6,1c-0.3,0.1-0.6,0.1-0.9,0.1l-0.8-0.1c-0.3,0-0.7,0.2-1.4,0.5c0.8,0.3,1.7,0.5,2.9,0.5h1.2
				C294,46.8,295.7,46.1,296.6,44.7z M276.1,56h19.5c0-2.4-0.8-4.2-2.3-5.5c-1.6-1.2-3.5-1.8-5.9-1.8c-1.3,0-2.9,0.3-4.7,1
				s-3.4,1.5-4.7,2.7C276.8,53.5,276.1,54.7,276.1,56z M295.2,84.2c-0.4-0.1-1.1-0.1-2.3-0.1c-0.8,0-1.9,0.3-3.2,0.9
				c-1.4,0.6-2.3,1-2.7,1.3c-0.9,1.9-1.9,3.3-3.1,4.2h0.6l6.1-3.6c0.1,0,0.8-0.4,2.2-1.2C294,84.8,294.9,84.3,295.2,84.2z
				 M280.8,45.3c4.5,0,7.6-1.1,9.2-3.2c-1.4,0-3.1,0.3-5.1,0.9c-2.2,0.5-3.9,0.8-4.9,0.8c-0.8,0-1.2-0.2-1.3-0.7
				c0,0.4-0.1,0.7-0.2,0.8c-0.1,0.1-0.4,0.2-0.7,0.2c-0.6,0-1-0.2-1.2-0.5c0,1.4-1.2,2.1-3.6,2.1l0.6-0.4c-0.9,0-2,0.6-3.1,1.9
				c2.1,0,3.1,0.2,3.1,0.5c0.7-0.3,1.4-0.5,2.2-0.5c0.3,0,0.4,0,0.5,0.1c0.2,0.2,0.3,0.3,0.3,0.4c-0.1,0.1-0.2,0.2-0.4,0.3
				c-0.2,0.1-0.4,0.2-0.6,0.2l0.5,0.1c0.7,0,1.6-0.4,2.8-1C280.1,46.7,280.7,46,280.8,45.3z M286.4,36.5h-0.5h-0.5
				c-0.1,0-0.6,0.1-1.4,0.4c-0.9,0.3-1.4,0.5-1.6,0.6c0.1,0,0.2,0,0.4,0.1c0.2,0,0.4,0.1,0.6,0.1C285,37.7,286,37.3,286.4,36.5z
				 M285.9,83.2c-0.2-0.1-0.4-0.2-0.7-0.3c-0.3-0.1-0.5-0.1-0.7-0.1c-0.9,0-1.9,0.3-3,0.8c-1.1,0.5-1.9,1.1-2.2,1.7l1,0.5
				c0.7,0,1.8-0.4,3.3-1.2C285.1,83.7,285.9,83.3,285.9,83.2z M282.6,94c1.7,0,3.2-1,4.3-3.1c-0.6,0.2-1.5,0.5-2.5,1.1
				c-1.1,0.6-2.1,0.8-3.1,0.8v-2.3c0.3-0.3,0.9-0.9,2-2c1.1-1.1,1.9-2.1,2.5-3.2c-1.3,0.9-3.3,1.7-6.1,2.5c-1.3,0.3-2.5,0.7-3.6,1.2
				c0-0.2,0-0.3-0.1-0.5c-0.1-0.1-0.2-0.2-0.4-0.2l-0.9,0.6c-0.2,0-0.4-0.1-0.6-0.3c-0.3-0.2-0.4-0.4-0.5-0.5c0-0.9,0.5-1.7,1.6-2.3
				c1.1-0.6,1.7-1,1.8-1c-1.1,0-2.8,0.3-4.9,1c-2.1,0.7-3.3,1-3.6,1c-0.1,0-0.2-0.1-0.3-0.2c-0.1-0.1-0.2-0.2-0.2-0.3l-0.1,0.8
				c0,0.9,1,1.8,3.1,2.9c2.1,1.1,4.4,2,7,2.8C280.4,93.6,282,94,282.6,94z M283.8,47.3c-0.1-0.1-0.3-0.2-0.6-0.3
				c-0.4-0.1-0.6-0.2-0.8-0.2c-0.2,0-0.4,0.1-0.6,0.4c-0.2,0.3-0.3,0.5-0.3,0.6c0.2,0,0.6,0,1.2-0.1
				C283.2,47.6,283.6,47.5,283.8,47.3z M281.8,81.7c-0.9-0.4-1.4-0.8-1.6-1c-0.7,0.7-2.1,1.3-4.2,1.8c-1.2,0.3-2.2,0.5-2.9,0.8
				c-0.7,0.3-1.3,0.8-1.7,1.4l0.4,0.1c1,0,2.3-0.6,4.2-1.7v0.5c0.2,0,0.6-0.2,1.4-0.5C278.3,82.8,279.7,82.4,281.8,81.7z
				 M278.7,41.7l0.5-0.6c-0.2,0.1-0.7,0.1-1.6,0.1s-1.4-0.2-1.8-0.6c-0.3-0.4-0.6-0.6-0.9-0.6c-0.3,0-0.8,0.4-1.5,1.1
				c-0.7,0.7-1.3,1.1-1.6,1.1c-0.2,0-0.3,0-0.4-0.1l-3.6,3.6h1L278.7,41.7z M274,52.4l3.6-3.5c-1.5,0-3.7,0.4-6.6,1.2
				c-2.9,0.8-4.4,1.4-4.6,1.8l1,0.1c0.4,0,1-0.1,1.8-0.3c0.7-0.2,1.3-0.3,1.8-0.3c1,0,1.6,0,2,0.1C273.4,51.5,273.8,51.8,274,52.4z
				 M276.6,79.1l0.6-0.5l-2.2-2.2l-1,0.7v-0.7c-0.5,0.3-1.5,0.7-2.9,1.4c-1.4,0.7-2.5,1.3-3.2,1.8l4.8-0.3L276.6,79.1z M274,82.7
				c1.2-0.8,2.1-1.3,2.6-1.6c-1-0.3-2.2-0.5-3.6-0.5c-0.9,0-2.2,0.1-3.9,0.3c-1.6,0.2-2.8,0.3-3.6,0.3c-0.7,0-1-0.2-1-0.7
				c0-0.6,1.4-1.6,4.2-2.9c2.8-1.3,4.6-2,5.4-2h-8.6l-0.6-1c-0.1,0.5-0.4,1-1.1,1.5c-0.6,0.5-1,1-1,1.5c0,1.1,0.4,2.8,1.1,5
				c0.7,2.2,1.5,3.3,2.4,3.3c1.2,0,2.5-0.3,3.9-1C271.5,84.1,272.8,83.4,274,82.7z M272.3,73.8h1.8c0-0.4-0.1-0.9-0.3-1.6
				c-0.2-0.7-0.3-1.2-0.3-1.4l0.1-0.5c-0.5,0.3-1.3,0.8-2.3,1.5c-1,0.7-2,1.1-2.9,1.1l1,1v0.5C270.2,74,271.1,73.8,272.3,73.8z
				 M272.6,58.1c0.3-1.7,0.5-3.2,0.5-4.3c-0.9,0-1.7,0.2-2.6,0.7s-2,1.1-3.2,2c-2.1,1.4-3.5,2.1-4.4,2.2h1.2c1.9,0,3.3,0,4.1-0.1
				c0.8-0.1,2-0.4,3.4-0.9L272.6,58.1z M267.9,72l0.5-0.7c-1.2,0.2-2.1,0.3-2.6,0.5c-2.2,0.4-3.5,0.7-4,0.7v1.6
				c1-0.3,2.2-0.7,3.4-1.1C266.5,72.6,267.4,72.3,267.9,72z M268.7,54.3c0-1-1-1.4-3-1.4c-1,0-1.8,0.2-2.5,0.7c-0.7,0.5-1,1.1-1,1.9
				V57c0.8-0.4,1.9-0.9,3.2-1.5C266.8,55,267.9,54.6,268.7,54.3z M267.7,49c0.7-0.6,1.1-1.1,1.1-1.6c-0.3,0-0.9,0.3-2.1,0.9
				s-1.8,1.1-2,1.4l1,0.1C266.4,49.9,267,49.6,267.7,49z"/>
			<path d="M298.2,91.5c0,0.6-0.2,1.1-0.6,1.6c-0.4,0.4-0.9,0.7-1.5,0.9C296.6,93.1,297.3,92.3,298.2,91.5z"/>
			<path d="M285.9,60.6v0.6c0-0.1-1.4,0.3-4.2,1.2l-3,0.8v-0.5c0-0.1,0.5-0.4,1.5-1c1-0.6,1.7-0.9,2.1-1.1l0.4,0.6
				c0.1-0.5,0.4-0.9,0.8-1.2c0.4-0.3,0.9-0.5,1.3-0.5v1H285.9z"/>
			<path d="M219.7,42.9c3-0.9,5.4-1.7,7.1-2.4c1.7-0.7,2.5-1.6,2.5-2.5c0-0.4-0.3-0.5-0.8-0.5c-1.5,0-3.6,0.2-6.4,0.5
				c-2.6,0.4-4.9,0.6-6.9,0.6c0,1,0.2,1.9,0.5,2.6c0.4,0.5,0.7,1.4,0.8,2.6C218.7,43.1,219.7,42.8,219.7,42.9z M229.8,49.6l2.8-2.4
				c3.4-3,5.3-4.7,5.7-4.9c-0.1-0.1-0.2-0.2-0.3-0.3c-0.1-0.1-0.2-0.2-0.3-0.3c-2.2,0.8-3.9,1.8-4.9,3s-1.8,2.3-2.2,3.4
				C230.2,48.9,229.9,49.4,229.8,49.6z M254,36.8c-0.3,1.7-0.5,3.1-0.7,4.5c-0.2,1.4-0.3,2.5-0.5,3.5c-0.4,2.8-0.7,4.7-0.9,5.9
				s-0.6,1.8-1,1.8c-0.6,0-1.5-0.2-2.6-0.6s-2.1-0.7-3-0.7c-2.8,0-5.3,0.9-7.7,2.8c-2.4,1.9-3.6,4.2-3.6,7c0,0.6-0.1,2-0.4,4.1
				c-0.3,2.1-0.4,5.1-0.4,8.8c0,4.6,0.2,9.5,0.6,14.6c0.4,2.3,0.7,5.2,0.7,8.6c0,3.2-0.4,4.8-1.3,4.8h-13.4l-6.2-1.6
				c-0.2-0.2-0.4-0.6-0.7-1.2c-0.3-0.7-0.5-1.2-0.5-1.8c0-0.3,0.2-1.8,0.6-4.5c0.4-2.7,0.6-4.9,0.6-6.6c0-2.2-0.1-5.4-0.3-9.4
				c-0.2-4.9-0.3-10.1-0.3-15.9l-0.3-5.5c-0.6-8.5-0.9-14.9-0.9-19.1c0-0.3,0.2-0.7,0.7-1.2c0.5-0.4,1-0.7,1.6-0.7
				c0.3,0,1.4,0.1,3.3,0.3c1.9,0.2,3.8,0.3,5.7,0.3c2.9,0,4.5,0,5.1-0.1c1.4,0.3,2.3,0.8,2.8,1.4c0.5,0.6,1,1.6,1.6,3.2l0.5,0.5
				c0.2,0,0.4-0.1,0.6-0.2c0.3-0.1,0.4-0.2,0.5-0.3l16.2-4.5C252.9,34.9,254,35.6,254,36.8z M250.6,38.3v-0.5
				c-4.1,0.3-7.4,1.3-10.1,3.2c0.2,0,0.5,0,0.9,0.1c0.4,0.1,0.8,0.1,1,0.3c0.3,0.1,0.4,0.4,0.4,0.7c0,0.8-0.9,1.7-2.8,2.7
				c-1.9,1-2.8,1.6-2.9,1.7l0.7,0.3l11.7-6.2C249.5,40.5,249.9,39.8,250.6,38.3z M248.9,47.3l0.1-4.2c-1.1,0-3.4,0.8-6.8,2.5
				c-3.4,1.7-5.7,3-6.8,4V49c-0.7,0.1-1.5,0.8-2.5,2.1c-1,1-1.9,1.8-2.5,2.3c-0.7,0.5-1.4,0.7-2.3,0.7c-0.9,0-1.3-0.3-1.3-0.9
				c0-0.1,0.3-0.4,0.8-0.9c0.5-0.5,0.9-0.8,1-1.1c0-0.3-0.3-0.5-1-0.5c-6.6,2.6-10.3,5.2-11.2,7.8l2.2,0.1c7.1,0,11.4-0.8,13-2.3
				c0.9-1,1.6-1.7,1.9-2.1c0.7-0.9,1.3-1.6,1.9-2.1s1.5-1,2.7-1.4c0.6-0.3,1.4-0.4,2.4-0.5c1-0.1,1.7-0.1,2-0.1
				c2-0.1,3.5-0.3,4.5-0.6C248.3,49.1,248.8,48.4,248.9,47.3z M230.5,98.4v-6.9c0-0.2-0.1-0.4-0.3-0.7c-0.2-0.3-0.3-0.4-0.5-0.4
				c-0.4,0-0.7,0.1-1.2,0.3c-0.4,0.2-0.7,0.5-0.9,0.7c0.2,0,0.4,0.1,0.6,0.3c0.3,0.2,0.4,0.4,0.4,0.6c0,0.4,0,0.8-0.1,1.2
				c-0.1,0.4-0.1,0.6-0.1,0.8l-1.9,0.5c-1.2,0-2.5,0.2-4,0.5c-1.4,0.3-2.5,0.6-3.3,0.8c-1,0-1.5-0.2-1.6-0.7
				c0.5-0.7,1.2-1.3,2.1-1.8c0.9-0.5,1.7-0.9,2.6-1.2c1.4-0.6,2.4-1.1,3.1-1.4c0.6-0.3,1.2-0.9,1.8-1.7c-1.3,0.3-3.6,0.6-6.8,1
				l-2-0.1c0-0.8,0.3-1.4,0.9-1.9c0.6-0.5,1.4-1.1,2.5-1.7c1.1-0.6,1.9-1.2,2.5-1.8l-6.6,1.2c-0.3,0-0.5,1.3-0.7,3.9
				c-0.2,2.6-0.4,4.5-0.5,5.7c0,1.9,3.1,2.9,9.2,2.9L230.5,98.4z M229.8,84.2V68l-0.5-2.7c-1.4,0.9-2.7,1.9-4,2.9
				c-1.3,1-2.2,1.7-2.7,2h3.9c0.4,0,0.6,0.4,0.6,1.3c0,0.7-0.4,1.4-1.3,2c-0.9,0.7-2,1.4-3.5,2.2c-1.8,0.8-2.9,1.4-3.1,1.9
				c0.9,0,2.1-0.1,3.6-0.3c1.2-0.3,2.5-0.4,3.8-0.4c1.4,0,2.1,0.4,2.1,1.2c0,0.8-0.5,1.5-1.6,2.1c-1,0.6-2.2,1.3-3.6,1.9
				s-2.4,1.2-3.1,1.5v0.5c0.9-0.4,2-0.8,3.3-1.1c1.3-0.3,2.5-0.4,3.4-0.4c0.7,0,1.1,0.1,1.4,0.2c0.2,0.1,0.3,0.4,0.3,0.8
				c0,0.6-0.4,1.2-1,1.6c-0.7,0.5-1.6,1-2.9,1.6c-0.3,0.2-0.7,0.4-1.4,0.8s-1.2,0.7-1.4,1c0.8-0.1,2-0.3,3.8-0.7
				c1.7-0.4,2.9-0.7,3.5-1L229.8,84.2z M229.4,62.6c0.6-0.3,0.8-1,0.8-2.1c-1.6,0-4,0.8-7,2.5l3.8,0.1C228,63.2,228.8,63,229.4,62.6
				z M228,45.7c0.9-0.8,1.3-2,1.3-3.6c-1.2,0.9-4.1,2-8.7,3.1c-2.4,0.6-3.8,1-4.2,1.3l4,2.2c0.8-0.3,2-0.6,3.7-1.1
				C225.9,47.1,227.1,46.5,228,45.7z M229.8,58.5c-1.2,0-4,0.5-8.3,1.6c-2.2,0.5-3.4,0.8-3.5,0.8c-0.6,0-0.9,0-1-0.1
				c-0.4,3.8-0.5,7.1-0.5,10c0,0.8,0.1,1.7,0.3,2.7c0.2,1,0.3,1.9,0.3,2.6c0.9,0,1.6-0.2,2.2-0.5c0.6-0.3,1.4-0.8,2.3-1.5
				c1-0.8,1.9-1.3,2.6-1.6h-0.5l-5.6,0.7c-0.4-0.4-0.6-0.8-0.6-1c0.1-0.5,2-2,5.7-4.6l3.9-3c-0.9,0.2-1.7,0.3-2.5,0.3
				c-1.3,0-2.3,0-3-0.1l-3.5-0.1c0.1-0.8,1-1.7,2.9-2.7l-0.6-0.5c2.2-0.2,4-0.5,5.7-0.8C227.6,60.1,228.9,59.4,229.8,58.5z
				 M216.4,54.6l9.6-5.5c-0.4,0-1.3,0.3-2.9,0.9c-1.6,0.6-2.4,0.9-2.6,0.9c-1,0-2.1,0.1-3.1,0.4c-1,0.3-1.6,0.5-1.8,0.6
				c0,0.4,0.1,0.8,0.3,1.4C216.2,53.9,216.3,54.3,216.4,54.6z M225.9,78.6c-0.1-0.1-0.2-0.2-0.4-0.3c-0.2-0.1-0.4-0.2-0.6-0.2
				c-0.6,0-2.1,0.2-4.4,0.7c-2.3,0.4-3.5,0.9-3.5,1.4c0,0.3,0.1,0.8,0.5,1.5c0.3,0.6,0.7,1,1.2,1c0.3,0,1.5-0.6,3.8-1.9
				C224.8,79.5,225.9,78.8,225.9,78.6z"/>
			<path d="M188.2,83.8l2.5-1.5C190.2,82.4,189.4,82.9,188.2,83.8z M207.2,88.1c0,0.5-0.1,1.4-0.3,2.5c-0.2,1.2-0.3,3.2-0.3,5.9
				l-0.5,0.6h-6.2c-0.4,0.4-1.3,0.7-2.7,0.7c-1.3,0-2.4,0-3.4-0.1c-0.9,0-2-0.2-3.1-0.6c-1-0.3-2.2-1.1-3.9-2.6
				c-0.2-0.2-0.6-0.5-1.2-1c-0.6-0.5-1.1-0.8-1.6-1.1c-0.5-0.3-1-0.4-1.5-0.4c-1.2,1-3.3,2.2-6.2,3.6c-2.9,1.4-5.3,2-7,2
				c-3.8,0-7.2-0.3-10.3-1c-0.5-0.1-1.6-0.3-3.3-0.6c-1.7-0.3-3.2-0.8-4.5-1.4c-1.3-0.7-2.2-1.5-2.7-2.5c-1.3-2.5-2.2-4.6-2.9-6.4
				c-0.6-1.7-1.1-3.9-1.6-6.4c-0.5-0.7-0.8-1.4-0.8-2.2c0-3.6,0.6-6.2,1.7-8.1c1.1-1.8,2.9-3.7,5.2-5.6c1.1-0.9,2.2-1.9,3.4-3
				c2.2-1.8,4.5-3.1,7-3.8c2.5-0.7,5.3-1.1,8.4-1.1l3,0.3c1.5,0,2.6,0.1,3.4,0.3V55c0-2.5-0.1-4.4-0.4-5.6c-0.3-1.2-0.9-2.2-2-2.9
				c-1-0.7-2.8-1-5.2-1c-2.6,0-4.9,0.3-6.9,1c-2,0.7-4.6,1.8-7.9,3.3c-1,0.6-1.8,0.9-2.2,0.9c-0.5,0-0.9-0.2-1.2-0.7l0.1-1.7
				c0-1.1-0.2-2.8-0.5-5.1c-0.4-1.9-0.6-3.6-0.6-5.1c0-1.3,0.9-2.4,2.7-3.2c1.8-0.9,3.4-1.4,5-1.6l10.1-2.1c0.5,0.1,1.2,0.3,1.9,0.5
				s1.4,0.4,1.8,0.5c0.7,0.1,2.2,0.3,4.6,0.8c2.4,0.4,4.5,1,6.4,1.6c1.9,0.7,3.8,1.5,5.7,2.4c2.2,2.6,4,6.3,5.5,11s2.2,8.9,2.2,12.4
				c0,0.8-0.1,1.6-0.3,2.5c-0.2,0.9-0.3,1.5-0.4,1.8c-0.4,1.5-0.6,2.8-0.6,4c0,1,0.1,2.1,0.5,3.3c0.3,1.2,0.7,2.3,1.1,3.5
				c1,3,1.6,5.2,1.8,6.6c0.6,1.3,1.4,2.1,2.4,2.5c1,0.3,2.3,0.6,4,0.7c1.6,0.1,2.7,0.3,3.3,0.6C206.9,86.3,207.2,87,207.2,88.1z
				 M203.5,91.9c0.2-1.7,0.4-2.9,0.5-3.8c-0.7,0-2.4,1.3-5.1,3.8c-1.3,1.3-2.2,2.1-2.7,2.5h6.6C203,94.4,203.3,93.5,203.5,91.9z
				 M201.2,88.1c-0.2-0.2-0.6-0.4-1.4-0.8c-0.7-0.3-1.2-0.6-1.2-0.7c0.3,0.5,0.4,1,0.4,1.4c0,0.3-0.1,0.6-0.3,1s-0.3,0.8-0.4,1.2
				c0.2,0,0.6-0.3,1.4-1C200.5,88.7,201,88.3,201.2,88.1z M196.8,90.2c0.3-0.3,0.4-0.6,0.4-1s-0.1-0.7-0.4-0.7c-1.6,0.3-2.6,1-3.2,2
				c-0.6,0.9-0.9,2.3-0.9,4L196.8,90.2z M196.5,86c-0.4-0.4-1-1-1.8-1.6s-1.4-1.3-1.9-2c-0.5-0.7-0.7-1.4-0.7-2.2l0.1-0.8
				c-0.2,0-0.4,0.1-0.8,0.3c-0.4,0.2-0.6,0.3-0.7,0.3l0.4-1.2c-0.4,0.2-1.1,0.6-2,1.4c-0.9,0.8-1.5,1.4-1.9,1.9
				c0.4-0.2,0.9-0.4,1.6-0.8c0.7-0.3,1.3-0.5,2-0.5l0.4,0.1l0.6,2.3l-4.6,2.1V86c0.3-0.1,0.6-0.2,1-0.3c0.4-0.1,0.8-0.2,1.2-0.3
				l1.3,0.1c0,0.2,0.1,0.4,0.2,0.7c0.1,0.3,0.2,0.6,0.2,0.7c0,0.3-0.4,0.6-1.1,1c-0.7,0.4-1.1,0.8-1.1,1.2c0.1,0,0.7-0.2,1.7-0.6
				S193.6,87.3,196.5,86z M189.9,93.2l1.2-2.1l-2.9,1c0.1,0.1,0.3,0.3,0.5,0.6C189,93,189.4,93.2,189.9,93.2z M190.8,77.7l-4.5,1
				c-2.5,0.5-4,1-4.6,1.3c-0.5,0.3-0.8,1.1-0.8,2.2v1.6c1.4-0.1,2.6-0.4,3.6-1c1-0.6,2.2-1.6,3.7-2.9
				C189.9,78.5,190.7,77.8,190.8,77.7z M190.5,63.8c0.1-0.9,0.2-2,0.2-3.2c0-1.6-0.3-4.1-0.9-7.6s-1.2-5.3-1.7-5.3
				c-0.2,0-0.4,0.1-0.7,0.4c-0.3,0.3-1.1,0.5-2.5,0.5c-0.1,0-0.2,0-0.4-0.1l0.5-1.2c0-0.1-0.1-0.2-0.2-0.3c-0.1-0.1-0.2-0.2-0.3-0.2
				c-1.3,0.8-2.6,1.3-4,1.5c-1.3,0.2-2.1,0.4-2.1,0.6c0,0.5,0.2,1.2,0.6,1.9c0.4,0.7,0.7,1.1,0.8,1.1c0.3-0.3,0.8-0.7,1.8-1.4
				c0.9-0.6,1.5-1,1.9-1c0.2,0.1,0.4,0.2,0.6,0.3c0.2,0.1,0.4,0.2,0.5,0.2c-0.8,0-1.2,0.4-1.2,1l0.1,0.7c0.4-0.4,0.9-0.7,1.6-0.9
				c0.6-0.3,1.1-0.4,1.6-0.4c0.1,0,0.2,0.2,0.4,0.6s0.3,0.8,0.3,1.2c-0.9,0.7-2.1,1.6-3.6,2.7c-1.5,1.1-2.7,1.9-3.4,2.4
				c1,0,2.1-0.1,3.1-0.4c1.4-0.2,2.4-0.3,3.1-0.3c0.9,0,1.5,0.2,1.8,0.7c-0.5,0.9-1.3,1.4-2.2,1.7v-0.8c-2.7,0-4.5,0.3-5.5,0.8
				c-0.3,0.1-1,0.7-2.3,1.9c-1.3,1.2-2.1,1.8-2.4,1.8c-0.3,0-0.4-0.1-0.4-0.4c0.1,0,0.2-0.1,0.4-0.5c0.2-0.3,0.3-0.5,0.4-0.6
				c-3.7,1.6-6.3,3.2-7.8,4.9c2.2-1.5,4.5-2.2,6.6-2.2c0.2,0,0.4,0,0.7,0.1c0.3,0.1,0.6,0.2,0.8,0.4c0.7-0.1,2.2-0.7,4.4-1.7
				c2.8-1.4,4.7-2.1,5.7-2.1c0.2,0.1,0.7,0.2,1.7,0.3c0.9,0.1,1.4,0.3,1.4,0.6c0,0.5-0.1,0.9-0.4,1.2c-0.3,0.3-0.8,0.7-1.5,1.2
				c-0.7,0.5-1.2,1-1.2,1.6c0.2-0.1,0.5-0.1,0.9-0.1c0.8,0,1.3,0.2,1.7,0.6C190,65.5,190.4,64.7,190.5,63.8z M190.1,76.3
				c0.4-0.2,0.6-0.7,0.6-1.4c-1.4,0.3-2.6,0.8-3.5,1.7h1.3C189.2,76.7,189.7,76.6,190.1,76.3z M189.9,73.8v-0.5l-1,0.5H189.9z
				 M189.4,71.3c0-1.5-0.2-2.3-0.5-2.5c-0.3,0-0.7,0.1-1.2,0.3c-0.6,0.2-0.9,0.5-0.9,0.8c0,0.2,0.1,0.3,0.4,0.5l-2.7,3.2
				c0.8,0,1.8-0.2,3.1-0.7C188.8,72.6,189.4,72,189.4,71.3z M186.8,68.9l0.4-1.7c-0.5,0.2-1.4,0.4-2.5,0.7c-1.2,0.3-2.1,0.6-2.9,1
				s-1.2,1-1.2,1.8c0,1.7,0.2,3,0.5,3.9L186.8,68.9z M186.8,89.4c0.5-0.8,0.9-1.3,1-1.7c-0.1,0-0.6,0.1-1.5,0.4
				c-0.9,0.3-1.4,0.7-1.4,1.3c0,0.8,0.3,1.2,0.9,1.2C186,90.6,186.3,90.2,186.8,89.4z M186.8,75.5v-0.7c-0.7,0-1.6,0.1-2.9,0.3
				c-0.9,0.3-1.8,0.4-2.9,0.4v2.9c0.6-0.7,1.3-1.2,2-1.6c0.7-0.3,1.5-0.6,2.2-0.8C186,75.7,186.5,75.6,186.8,75.5z M186.8,44.2
				c-0.1-0.2-0.2-0.5-0.4-1.1c-0.2-0.6-0.5-1-0.7-1.2l-1.2,0.4c0.4,0.1,0.5,0.4,0.5,0.8c0,0.3,0,0.5-0.1,0.6
				c-0.1,0.2-0.1,0.4-0.1,0.5l-1.3-0.3c-0.1,0.1-0.6,0.5-1.6,1.4c-0.9,0.8-1.4,1.3-1.4,1.5c0.7-0.2,1.8-0.5,3.4-1.1
				C185.4,45.1,186.4,44.6,186.8,44.2z M186,51.7c-0.1,0.1-1.1,0.5-3,1.2c-0.4,0.1-1.3,0.5-2.9,1.1c-1.6,0.6-2.4,1.1-2.4,1.5
				c0,0.2,0.1,0.3,0.2,0.5c0.1,0.2,0.2,0.3,0.3,0.3c1,0,2.3-0.5,4.2-1.5C184.2,53.8,185.4,52.8,186,51.7z M185.1,64.6
				c0.6-0.7,1.2-1.2,1.7-1.4c-1.4,0-2.9,0.4-4.6,1.2c-1.7,0.8-2.5,1.8-2.5,3c0.5,0,1.1-0.3,1.8-0.9c0.7-0.6,1.2-0.9,1.8-0.9
				c0.2,0,0.3,0.2,0.5,0.4c0.1,0.3,0.2,0.5,0.3,0.6C184.1,66.1,184.5,65.4,185.1,64.6z M184.5,40.9c0.2-0.1,0.4-0.2,0.5-0.3
				c0-0.3-1.1-1.1-3.2-2.2c-2.1-1.1-3.4-1.6-3.8-1.6h-1.3l-4.9,3.2l-0.5,1.2c0.7-0.5,1.8-1,3.3-1.6c1.5-0.5,2.7-0.8,3.6-0.8L179,39
				c-0.3,0.2-0.6,0.5-1,1.1c-0.4,0.6-0.7,1-0.9,1.2c-0.8,1.4-1.4,2.2-1.9,2.5l0.4,0.3l7.9-3.5c0,0.1,0.1,0.2,0.2,0.4
				c0.1,0.2,0.2,0.3,0.3,0.3C184.1,41.1,184.3,41,184.5,40.9z M184.4,86.2c0.1-0.2,0.3-0.6,0.6-1.2c-0.7,0.4-1.7,0.8-2.9,1
				c-1.2,0.3-2.2,0.4-3.1,0.4v-2.2c-0.3-0.3-0.8-0.4-1.3-0.4c-1,0-2.1,0.5-3.2,1.4c-1.1,1-2.1,2-3,3.1c-0.9,1.1-1.4,1.6-1.5,1.6
				c0.6,0,1.8-0.6,3.4-1.7c1.7-1.1,2.9-2,3.7-2.7c0.5,0.2,0.8,0.6,0.8,1.3c-3.4,2.9-6.9,5.4-10.5,7.5l2.6,0.1c1.8,0,3.8-0.4,5.8-1.2
				c2.1-0.8,3.6-1.9,4.7-3.3c0.3-0.4,0.6-0.9,0.9-1.4c0.3-0.5,0.7-0.9,1.3-1.4c0.4-0.3,0.7-0.4,1-0.5
				C184,86.6,184.3,86.4,184.4,86.2z M183.4,43l-0.7-0.1c-0.5,0-1.8,0.4-3.7,1.1c-1.9,0.7-2.9,1.3-2.9,1.6c0,0.8,0.4,1.2,1,1.2
				c0.7-0.3,1.8-0.9,3.2-1.8C181.8,44.1,182.8,43.4,183.4,43z M177.2,73.3l0.1-3.1c0-2.4-0.7-3.6-2.2-3.6c-1.6,0-3.4,0.7-5.4,2.1
				c-2,1.4-3.6,3.1-4.9,5.1c-1.3,2-2,3.9-2,5.7c0,2.1,0.5,3.4,1.4,4s2.2,0.9,3.9,0.9c1.7,0,3.5-0.3,5.3-1c1.8-0.7,3.1-1.6,3.8-2.9
				l0.1-3.5L177.2,73.3z M173.8,37.7c0.4-0.5,0.7-1,0.7-1.6c-0.6,0-1.2,0.2-1.7,0.7s-0.9,1-1,1.6l0.5,0.1
				C172.8,38.5,173.4,38.2,173.8,37.7z M173.2,42.9c0.5-0.3,0.7-0.7,0.7-1.1c-0.2,0-0.7,0.1-1.7,0.2c-0.9,0.1-1.5,0.5-1.7,1
				c0.3,0.3,0.7,0.4,1.2,0.4C172.2,43.4,172.7,43.2,173.2,42.9z M176.7,58.2c-1.6-0.5-3.4-0.8-5.3-0.8c-3.6,0-6.1,1.5-7.4,4.5
				c0.5,0,1.4-0.4,2.6-1c1.7-0.9,3.2-1.5,4.7-2C172.7,58.5,174.5,58.2,176.7,58.2z M166.3,43l4.9-5.1c-4.3,2.6-6.8,3.9-7.3,3.9h-1.2
				c-0.3-0.3-0.4-0.5-0.4-0.8c0-0.4,0.3-1,1-1.6c0.6-0.6,1.1-1,1.2-1.2h-0.6l-4.9,2.9l-0.8-0.1c-0.8,0-1.7,0.2-2.9,0.6
				c-0.3,0.1-0.7,0.2-1.4,0.4c-0.7,0.2-1.2,0.3-1.6,0.3v4.9c1.2-0.3,2.9-1,4.9-2.1c1.6-0.8,2.9-1.4,4-1.8c1.1-0.4,2.3-0.6,3.6-0.6
				L166.3,43z M171.1,36.2c-0.2-0.1-0.5-0.2-1-0.3c-0.5-0.1-0.9-0.2-1.2-0.3c-0.4,0-1.1,0.6-2.1,1.8c-1,1.2-1.4,2.1-1.4,2.6
				c0.4-0.4,1.4-1.1,3-2.1C169.9,37,170.8,36.4,171.1,36.2z M169.2,62.9c0.8-0.6,1.6-1.4,2.5-2.3c-1.7,0.5-3.7,1.4-5.8,2.7
				c-2.2,1.3-3.7,2.4-4.7,3.5c-0.7,0.8-1.6,1.5-2.9,2.2c-1.2,0.8-2.1,1.5-2.6,2.2c0.8,0,1.3,0.2,1.6,0.7c0.6-0.9,1.4-1.7,2.3-2.3
				c0.9-0.7,1.9-1,2.7-1c0.1,0,0.2,0.1,0.3,0.3c0.1,0.2,0.2,0.4,0.2,0.6c-0.3,0.3-1.3,1-2.9,2.1c-2.1,1.6-3.1,2.4-3.1,2.5l-0.8-1
				l-2.1,1h1.4c0,0.1,0,0.2,0.1,0.3c0.1,0.1,0.1,0.2,0.1,0.4c-0.4,0.3-0.8,0.5-1.3,0.8c-0.5,0.3-0.9,0.5-1.2,0.8
				c-0.3,0.3-0.4,0.7-0.4,1.1l2.5-1c0.3,0,0.6,0.2,0.8,0.5c1.2-1.4,2.3-2.1,3.2-2.1c0,0.6-0.6,1.4-1.7,2.3c-1.1,0.9-2.6,2-4.6,3.3
				c-2.5,1.7-4.1,3-4.7,3.6c0.3,0,1.1-0.3,2.1-1c1.1-0.7,2.4-1.5,4-2.4c0,0.5-0.2,1-0.7,1.4c-0.4,0.4-1.1,0.8-1.9,1.4
				c-1.8,1.1-2.8,2.1-3,2.9c0,0.1,0.1,0.4,0.3,0.9c0.2,0.5,0.5,0.8,0.8,0.8c0.2-0.8,0.6-1.5,1.2-2.1c0.6-0.6,1.5-1.3,2.7-1.9
				c1.6-1.2,2.7-2.2,3.2-2.9h-1.6c1.2-0.6,2.1-1.3,2.7-2.2c0.6-0.8,1.3-2,1.9-3.4c0.5-1.2,1.2-2.4,1.9-3.5c0.7-1,2.4-2.5,5.1-4.6
				c-0.3-0.1-0.5-0.2-0.7-0.5c-0.2-0.2-0.4-0.4-0.4-0.6C166.6,65.6,167.6,64.5,169.2,62.9z M169.8,87.7c-0.3,0-0.7,0.1-1.2,0.2
				c-0.6,0.1-1.2,0.2-1.9,0.2c0-0.5,0-0.8,0.1-0.8c-0.2,0-0.6-0.1-1.3-0.3c-0.7-0.2-1.3-0.3-1.8-0.3c-0.9,0-1.7,0.5-2.5,1.5
				c-0.8,1-1.4,2-1.6,2.9c0.6-0.3,1.4-0.5,2.5-0.5h1.4c-0.2,0.1-0.5,0.4-1,0.9c-0.5,0.5-0.9,0.9-1.2,1.3c0,0.5,0.1,0.8,0.3,1
				c0.2,0.1,0.6,0.2,1.1,0.2c0.9,0,1.5-0.3,1.9-0.8v1.2c0.1,0,0.3-0.1,0.6-0.5c0.3-0.3,0.5-0.5,0.6-0.7c0-0.2-0.1-0.3-0.3-0.5
				s-0.3-0.3-0.3-0.4c0.5,0,1.4-0.6,2.7-1.9C169.1,89.1,169.8,88.2,169.8,87.7z M167.4,35.1c-0.7-0.4-1.5-0.5-2.3-0.5
				c-0.5,0.3-1.4,0.7-2.5,1.2c-1.2,0.6-2.2,1.2-3,1.8c-0.8,0.6-1.4,1.3-1.6,2C160.7,38.7,163.9,37.2,167.4,35.1z M163.5,58.5
				c1.1-0.5,1.7-0.9,1.7-1.2c-1.8,0.3-3.3,0.7-4.4,1.4c-1.1,0.6-2.7,1.6-4.7,2.9l5.5-2.2C161.7,59.3,162.4,59,163.5,58.5z
				 M161.7,64.5l0.6-2.9c-1,0-2.6,0.5-4.7,1.4c-2.1,1-4.2,2.2-6.5,3.6c0.1,0.3,0.3,0.5,0.6,0.5l0.9-0.1c0,0.4-0.2,1.1-0.7,1.9
				c-0.5,0.9-1,1.3-1.6,1.3c-0.4,0-0.7-0.1-0.9-0.4v1.2l1.7,0.8c0.4,0,0.9-0.3,1.8-1c0.8-0.7,1.4-1.1,1.6-1.4c1-0.7,1.9-1.3,2.5-1.8
				c0.6-0.5,1.2-1.1,1.7-1.8c0.4-0.5,1.2-1.4,2.5-2.7L161.7,64.5z M160.8,86.2c0-0.5-0.3-0.8-0.9-0.9c-0.6-0.1-0.9-0.3-0.9-0.7
				c0-0.1,0.1-0.2,0.2-0.5c0.1-0.2,0.2-0.3,0.3-0.3l-1.2-2.2l-2.1,1.8c-1.6,1.2-2.3,2.1-2.3,2.6l0.1,0.7c0.5-0.3,1.1-0.5,1.7-0.7
				c0.6-0.2,1.1-0.5,1.6-1c0,0.7-0.2,1.2-0.7,1.6c-0.5,0.4-1.1,0.8-2,1.2c-1,0.5-1.8,1-2.2,1.4c-0.4,0.4-0.6,1-0.6,1.8l0.1,0.5
				c0.4,0.3,0.8,0.5,1.3,0.7c0.5,0.2,1,0.4,1.4,0.5c1,0,2.3-0.8,3.9-2.5C160,88.6,160.8,87.2,160.8,86.2z M155.5,38.6
				c2-1.2,3.1-2.1,3.1-2.7c-0.4,0-1.6,0.2-3.5,0.7c-1.9,0.5-3.2,0.8-3.9,1.1c0,0.1,0.1,0.2,0.2,0.3c0.1,0.1,0.3,0.2,0.4,0.2
				c-0.1,0.1-0.2,0.2-0.4,0.3c-0.2,0.1-0.3,0.4-0.3,0.7c0,0.4,0.1,0.7,0.3,0.9c0.2,0.2,0.4,0.3,0.6,0.3
				C152.3,40.5,153.5,39.9,155.5,38.6z M150.2,80.6c1.1-1,1.7-1.8,1.8-2.2c-0.4,0.6-1.3,1.2-2.5,1.8c-1.2,0.6-1.9,0.9-2,1l0.4,1.2
				C148.3,82.2,149.1,81.6,150.2,80.6z M147.8,77.7c2-0.7,3-1.4,3-2.2c-0.9,0-1.3-0.3-1.3-0.8c0-0.3,0.1-0.5,0.4-0.8
				s0.4-0.5,0.4-0.8c-0.7,0-1.3,0.4-1.8,1.4c-0.5,0.9-0.8,1.5-0.8,1.9L147.8,77.7z"/>
			<path d="M132.3,59.5c0.8,5.5,1.2,8.6,1.2,9.5c0,1.8-0.2,3.9-0.6,6.2c-0.4,2.6-0.5,4.5-0.5,5.7c0,1.3,0.1,2.8,0.3,4.4
				c0.2,1.6,0.3,2.8,0.4,3.4c0.4,2.8,0.6,5.3,0.6,7.5c0,3.2-0.7,4.8-2.1,4.8c-0.3,0-0.6-0.2-1.1-0.5c-0.5-0.3-0.8-0.6-0.9-0.7v-1.7
				c0.4-0.1,0.6-0.4,0.6-0.9v-0.5c0-0.5-0.1-1.2-0.2-1.9c-0.1-0.8-0.3-1.2-0.5-1.2h-0.6l-3,1.9l-0.6-1c0.9-0.6,1.7-1.2,2.4-1.7
				c1-0.8,1.6-1.5,1.6-2.1c-1.4,0-2.7,0.2-4.1,0.5L125,91c1.1-0.3,2-0.6,2.7-1c0.7-0.4,1.1-1,1.1-1.7c-0.6,0-1.2,0.1-1.9,0.4
				l-0.2-0.4l1.8-2.3c-0.9,0-2.1,0.2-3.6,0.7c-1.5,0.5-2.8,1-3.7,1.6l-0.1-0.7c0-0.8,0.3-1.4,1-2c0.7-0.5,1.7-1,3-1.6
				c0.7-0.3,1.3-0.6,1.9-0.9c0.6-0.4,0.8-0.7,0.8-1v-0.7c-0.7,0.2-1.3,0.3-1.9,0.4l-0.3-1c0.4-0.1,0.8-0.2,1.3-0.4
				c1.2-0.4,1.9-0.9,1.9-1.4v-3.9c-1.7,0.9-3,2.1-4.2,3.4c-1.1,1.3-1.8,2-2,2.2h-1c0.3-1.1,0.7-2,1.4-2.7c0.7-0.7,1.7-1.6,3-2.6
				c1.1-0.9,2-1.7,2.7-2.5c-0.6,0-1.5,0.2-2.5,0.6c-1.1,0.4-1.9,0.6-2.4,0.6c0.7-0.8,1.7-1.4,3.1-2c1-0.4,1.8-0.8,2.3-1.2
				c0.5-0.4,0.7-1.1,0.7-2c0-0.1,0-0.2-0.1-0.3c-0.1-0.1-0.2-0.2-0.4-0.2c-2.9,1.5-5.4,3.2-7.3,5.1c-0.1,0-0.2-0.1-0.4-0.4
				c0-0.7,0.3-1.3,0.8-1.7c0.6-0.4,1.4-0.9,2.5-1.4c1.3-0.6,2.2-1.2,2.9-1.7c0.6-0.5,0.9-1.2,0.9-2.1l-0.1-0.5l-7.2,2.2v-0.5
				l7.2-3.4v-3.9c-2,0.8-4.6,3-7.7,6.6l-0.7-1c0.9-1.4,1.9-2.6,3-3.6c1.1-1,2.6-2,4.3-3.2v-0.8c-0.5,0-1.9,0.3-4,0.8l-0.1-0.4
				c0.8-0.2,1.5-0.5,2.3-0.8c2-0.8,3-1.9,3-3.3c0-6.3-1.5-11.4-4.5-15.2l-0.5-0.5c-0.3-0.5-0.7-1.2-1.3-2c-0.6-0.8-1.1-1.3-1.4-1.4
				c-0.1,0-2.1,1.3-6,3.9l-0.1,0l-0.7-1.1l-0.6-0.1c-1.1,0-2.5,0.4-4,1.2c-1.7,0.7-3,1.1-3.8,1.2c0-0.2,0.9-0.7,2.6-1.7
				c1.7-1,3.6-1.8,5.5-2.7c2-0.8,3.5-1.2,4.7-1.2h0.8c0-0.6-0.5-1.2-1.5-1.6c-1-0.5-1.9-0.7-2.7-0.7c-1.4,0-3.9,1.3-7.5,4l-0.8-1.1
				l3.2-2.3l1.7-1.7c-6.5,3.6-11.9,6.1-16.2,7.3L82.5,49.5c1.1,0,2.2-0.2,3.2-0.7s2.3-1.1,3.8-2l0.4,1.2c-0.2,0.1-0.4,0.1-0.6,0.2
				c-0.7,0.3-1.6,0.8-2.5,1.4c-1.2,0.9-2.2,1.4-3.1,1.6c-1.6,0-2.6,0.2-3.2,0.6c-0.6,0.4-0.8,1.3-0.8,2.8V58c0,3,0.4,5.2,1.2,6.6
				l0.6,0.6l-0.6,0.6l-0.1,0.4c0,0.4,0.1,0.9,0.3,1.6c0.2,0.7,0.4,1.3,0.5,1.9c1.1-0.6,2-1.2,2.7-1.8l1.2,0.1c-2,1.7-3.3,3.1-3.8,4
				c-0.6,0.9-0.8,2.4-0.8,4.5l0.1,1.7c0.8-0.8,1.5-1.4,2.1-1.8c0.4-0.3,0.7-0.5,1-0.8l0.9,0.4c-0.5,0.4-1.1,1-1.7,1.6
				c-1.9,2-2.9,3.7-2.9,5v12.1v2.5l-0.2,2l-3.9-0.3l0.4-6.6l0.3-4.5c0-0.3-0.2-2.2-0.7-5.7c0-1.8,0.2-3.9,0.7-6.2
				c0.3-2.6,0.5-4.6,0.5-6c-1.8-13.1-2.7-23-2.7-29.8c0-1,0.1-2.6,0.3-4.7c0.2-2.2,0.3-3.9,0.3-4.9c0-1.2-0.1-3-0.3-5.2
				s-0.3-3.9-0.3-5.1c0-0.5,0.1-1.3,0.3-2.5c0.2-1.1,0.3-2,0.3-2.7c-0.2-2.2-0.8-5.2-2-9.1l-0.9-3.8c0.1-0.2,0.3-0.3,0.5-0.5
				s0.5-0.2,0.7-0.2c0.3,0,0.8,0.2,1.6,0.5C76,2.1,77,2.3,78.1,2.3l2.2-0.4H91l0.5,0.4c0,0.7,0.3,2.9,0.8,6.5
				c1,5.9,1.6,10.5,1.6,13.9c0,0.9-0.1,2.3-0.3,4c-0.2,1.9-0.3,3.3-0.3,4.2c2.1,0,4.7-0.5,7.9-1.4c0.4-0.1,1.5-0.3,3.2-0.8
				c1.7-0.4,3.4-0.6,4.9-0.6c2.5,0,5.2,0.5,8.1,1.6c2.9,1.1,5,2.5,6.4,4.1c2.5,3,4.4,5.6,5.5,7.9c1.2,2.3,1.9,4.4,2.1,6.3
				s0.4,4.4,0.5,7.4C132.2,57.2,132.2,58.6,132.3,59.5z M127.4,84.9c1.3-0.3,2-0.7,2-1.4C128.6,83.4,127.9,83.9,127.4,84.9z
				 M97.6,37.2l11.8-5.6c-5.5,0-10.4,0.7-14.6,2.2c-0.6,0.4-1.2,1-1.6,1.9c-0.5,0.9-0.8,1.8-1.1,2.7c0.5-0.3,1.5-0.5,2.8-0.9
				c1.3-0.3,2.1-0.5,2.1-0.5L97.6,37.2z M89.9,24.3l-0.1-1.2c-4.2,2.3-7.2,4.6-9,6.8h0.7l7.3-2.9c0.4-0.1,0.7-0.4,0.9-1
				C89.9,25.5,89.9,24.9,89.9,24.3z M90.3,19.2c0-0.6-0.2-1.6-0.5-2.9c-1.5,0.7-2.2,1.2-2.3,1.4c0,0.3-0.2,0.6-0.6,0.9
				s-1.4,0.9-3.1,1.8c-1.7,1-3,1.8-4,2.5c-0.9,0.7-1.4,1.5-1.4,2.5c0,1.5,0.2,2.6,0.6,3.2c4.7-2.6,7.9-5,9.6-7.1l-3,0.1
				c-0.7,0-1.2,0-1.6-0.1c1.3-0.4,2.5-0.9,3.7-1.3C89.1,19.8,89.9,19.5,90.3,19.2z M89.3,38.6l-0.1-0.8c-0.3,0-1.4,0.8-3.4,2.5
				l-3.2,2.5c0,0.8-0.2,1.2-0.5,1.2c-0.2,0-0.4-0.1-0.6-0.2c-0.2-0.1-0.4-0.2-0.6-0.2v-0.8c0-0.8,1-1.7,3-2.9c1.7-1,2.9-2,3.7-2.8
				c0.8-0.8,1.2-1.9,1.2-3.2v-1.8l-3.2,2.6c-1,0.9-2.1,1.7-3.1,2.4c-1,0.7-1.8,1.1-2.3,1.1c0-1,0.2-1.7,0.7-2.2
				c0.4-0.5,1.1-0.9,1.9-1.4c1.4-0.7,2.3-1.4,2.7-2.1l0.4,0.7c0.3-0.6,0.8-1.5,1.8-2.5c0.9-1.1,1.5-1.8,1.6-2c-1,0-2.2,0.3-3.5,0.8
				c-1.3,0.5-2.5,1.1-3.6,1.6c-1.1,0.6-1.8,0.9-2.1,1.1c-1,0.5-1.4,1.9-1.4,4l0.1,2.2c0,1.7,0.2,5.3,0.5,11.1h0.5
				c0.2-0.2,1.8-1.3,4.9-3.2c3.1-2,4.7-3.4,4.7-4.3c-0.2-0.2-0.3-0.4-0.4-0.6c-0.1-0.2-0.1-0.4-0.1-0.6c0-0.3,0.1-0.6,0.3-1
				S89.3,38.9,89.3,38.6z M89.2,14.8v-0.6H87c0.3-0.2,0.7-0.3,1.2-0.5s0.7-0.3,0.9-0.4s0.3-0.6,0.3-1.2c0-1.1-0.2-2.2-0.5-3.4
				c-2.9,2.1-6.3,5-10.1,8.8v4.9l5.6-3.8c0.4-0.4,1-0.9,2.1-1.6C87.8,16.3,88.7,15.5,89.2,14.8z M87.3,6.9c1-0.7,1.5-1.5,1.5-2.3
				c-0.5,0.3-1.1,0.5-1.8,0.8c-0.7,0.3-1.2,0.5-1.6,0.8c-0.4,0.3-0.8,0.7-1.2,1.3L84.7,8C85.4,8,86.3,7.7,87.3,6.9z M84.2,4.7h-7.9
				l1.8,4.4L82,6.3c0.4,0,0.9-0.2,1.3-0.7C83.7,5.2,84.1,4.8,84.2,4.7z M82.5,8V7.5L82,8H82.5z M78.6,14.8c1.8-0.7,3.8-2.4,5.8-5.1
				c-0.9,0-2.1,0.4-3.6,1.2c0-0.4-0.2-0.5-0.5-0.5c-0.4,0-0.9,0.1-1.4,0.4c-0.5,0.3-0.8,0.7-0.8,1.3L78.6,14.8z"/>
			<path d="M129.6,98.3v1.7h-9.5c-0.6,0.3-1.2,0.5-1.7,0.5c-0.8,0-1.5-0.2-2.3-0.7c-0.7-0.5-1.1-1.1-1.1-1.8c0-0.2,0.2-0.5,0.5-1
				c0.3-0.5,0.5-0.9,0.6-1c1-7.2,1.6-14.5,1.6-22c0-6.7-0.3-11.8-0.8-15.5c-0.5-3.7-1.7-6.6-3.6-8.6c-1.9-2.1-4.8-3.1-8.8-3.1
				c-4.9,0-9,2.2-12.2,6.8l0.1,0.8c0,0.7-0.3,2-1,3.9c-1,2.6-1.6,4.7-1.6,6.4c0,1.7,0.3,4.2,1,7.3c0.1,0.5,0.3,1.5,0.5,2.9
				s0.4,2.7,0.4,3.8c0.3,3.1,0.6,5.4,0.7,6.8c0.1,1.4,0.1,4.1,0.1,8c0,4.4-0.7,6.6-2.1,6.6l-10.2-0.8l0.2-2l8.4-0.5
				c0-0.9-0.2-1.5-0.4-2c-0.3-0.5-0.6-0.9-0.7-1.4c-0.4,1.1-1.2,1.9-2.2,2.2c-1,0.3-2.3,0.5-3.9,0.5c0.6-0.6,1.8-1.4,3.6-2.3
				c1.8-0.9,3-1.4,3.7-1.4v-2.5c-0.9,0-1.7,0.3-2.3,0.8c-0.6,0.5-1.3,1.3-2.1,2.2c-0.5,0.6-1.1,1.2-1.7,1.8c-0.6,0.6-1.2,0.9-1.8,1
				c-0.1-0.1-0.1-0.3-0.1-0.8c0-0.8,0.4-1.6,1.1-2.3c0.7-0.8,1.6-1.5,2.5-2.3c0.9-0.7,1.5-1.2,1.9-1.5c1-0.7,1.9-1.4,2.6-2.1
				c-0.5,0-1.3,0.1-2.3,0.3c-1,0.2-1.8,0.3-2.2,0.3c1.6-1.4,2.9-2.1,3.9-2.2v-3c-0.8,0.9-1.9,2-3.3,3.1c-1.4,1.1-2.4,1.8-2.8,2.1
				v-1.2l5.6-5.6v-1.6c-0.4,0-0.8,0.2-1.2,0.5c-0.4,0.3-0.6,0.7-0.6,1.1c-0.4,0.2-1.1,0.3-2,0.4c-0.9,0.1-1.5,0.1-1.8,0.1
				c0.3-0.8,0.6-1.3,1-1.7c0.4-0.3,1-0.6,1.8-0.9c1-0.3,1.7-0.6,2.1-1.1c0.4-0.5,0.7-1.4,0.7-2.9c-0.7,0.1-1.6,0.7-2.8,1.7l-0.9-0.4
				c2.2-1.7,3.3-3.2,3.3-4.3c-0.6,0.1-1.5,0.3-2.6,0.5c-1.1,0.3-2,0.5-2.6,0.7c0.3-0.4,0.7-0.8,1.2-1c0.6-0.3,1.3-0.5,2.3-0.8
				c1-0.3,1.5-0.7,1.5-1.2c0-0.9-0.2-1.5-0.6-1.9l-1,0.5l-1.2-0.1c1.2-1,1.7-2.1,1.7-3.3c0-1.5-0.2-2.6-0.5-3.2l-4,3.8l-0.6-0.6
				c1.1-2.2,1.9-3.5,2.2-3.9c0.4-0.3,1-0.5,1.6-0.9c0.6-0.3,1.2-0.6,1.6-1c0.4-0.3,0.6-0.9,0.6-1.7c-0.8,0-1.7,0.2-2.7,0.7
				c-1.2,0.3-2.1,0.5-2.6,0.5c0-0.8,0.6-1.8,1.8-2.9c1.2-1.2,3.2-2.9,5.8-5.1c1.7-1.4,2.7-2.2,3-2.5c-0.8,0-1.6,0.1-2.2,0.2
				l-0.4-1.2c2.2-1.4,3.9-2.2,5.3-2.5l12.4-8.9l0.8,1.1c-3.6,2.7-6.1,4.9-7.5,6.6h6.1c0.3,0,1.2-0.6,2.9-1.8
				c0.6-0.3,1.5-0.9,2.5-1.6c1.1-0.7,1.9-1.2,2.5-1.5l0.7,1.1l-4.1,2.7l-1.2,1.2h1.2l12.9-4.4l0.5,0.5c-0.2,1-0.6,1.9-1.4,2.5
				c-0.7,0.6-1.9,1.4-3.6,2.5c-1.3,0.8-2.2,1.4-2.8,1.9c-0.6,0.5-0.8,1-0.8,1.6h2l-1.2,1c0.1,0.3,0.3,0.6,0.7,1s0.7,0.7,1,0.8
				c0.5,0,1-0.2,1.5-0.7c0.5-0.4,1-1.1,1.6-1.9c0.6-0.8,1-1.3,1.3-1.5l-1.4-0.1c-0.9,0-1.8,0.4-2.5,1.3c0-1.8,1.7-2.7,5.2-2.7
				l1.7,0.1c0,0.8-0.3,1.4-0.8,2c-0.5,0.5-1.3,1.1-2.3,1.7s-1.9,1.2-2.5,1.8c-0.6,0.6-0.9,1.3-0.9,2.3c1.1,0,2.4-0.4,3.8-1.2
				c1.4-0.7,2.6-1,3.6-1c0.4,0.1,0.7,0.4,0.7,1c0,0.8-0.3,1.4-0.8,1.9c-0.5,0.5-1.3,1-2.5,1.6s-2,1.2-2.7,1.8c-0.6,0.6-1,1.3-1,2.2
				c1,0,2.2-0.2,3.3-0.5l0.1,0.4c-2.2,0.6-3.2,1.1-3.2,1.6v5.1l0.7,1c-0.3,1.4-0.6,2.7-0.7,4c-0.1,1.3-0.1,2.6-0.1,4
				c0,4.1,0.3,6.1,0.8,6.1h0.5h1c0.4,0.3,0.5,0.6,0.5,0.7c0.8-0.1,1.6-0.3,2.4-0.5l0.3,1c-1.7,0.4-2.9,0.8-3.7,1.2
				c-1,0.5-1.6,1.3-1.9,2.5c-0.3,1.2-0.4,3.3-0.4,6.4c0.5-0.3,1.6-1.1,3.2-2.2c1.7-1.1,2.8-1.6,3.4-1.6l0.2,0.4
				c-0.4,0.2-0.9,0.4-1.3,0.6c-1.3,0.7-2.2,1.4-2.7,2.2c0.4-0.1,1.1-0.3,2.2-0.5l0.1,0.4c-0.6,0.2-1.3,0.3-1.9,0.6
				c-2,0.7-3.1,1.9-3.1,3.4c0,0.3,0.1,0.7,0.3,1.2c0.2,0.4,0.3,0.8,0.3,1.2c0.3-0.3,1.3-1,2.9-2c0.7-0.4,1.2-0.8,1.8-1.1l0.6,1
				l-1.4,0.9C126.5,96.7,128.2,97.3,129.6,98.3z M122.8,54.3c1.3-1.1,2.1-1.8,2.3-2.1c-0.8,0-1.8,0.3-3.2,0.8c-1.3,0.6-2,1.1-2,1.8
				c0,0.8,0.2,1.2,0.7,1.3C121.1,55.6,121.8,55,122.8,54.3z M120.6,41.7l-0.5-0.1c-1,0-2.4,0.3-4.4,1c-2,0.7-3.5,1.3-4.6,1.8
				c0.3,0.2,0.7,0.5,1.4,1c0.7,0.5,1.2,0.7,1.6,0.7c0.8,0,1.9-0.6,3.5-1.7C119.1,43.3,120.1,42.4,120.6,41.7z M86.4,55.7
				c0.9-0.7,1.5-1.5,1.8-2.3c-0.9,0.6-1.9,1.3-2.9,2.1c-1,0.8-1.5,1.2-1.5,1.3C84.6,56.8,85.5,56.4,86.4,55.7z"/>
			<path d="M87.7,40.3c0,1.1-0.8,2-2.3,2.6c-1.5,0.6-2.3,1-2.4,1C85,41.5,86.5,40.3,87.7,40.3z"/>
			<path d="M87.3,34.8c0,0.5-0.6,1.2-1.8,2.1c-1.2,0.9-2.2,1.3-3,1.4c0.5-0.8,1.3-1.6,2.3-2.3C85.8,35.2,86.7,34.8,87.3,34.8z"/>
			<path d="M85.4,64.1c0,0.6-0.4,1.1-1.1,1.6c-0.7,0.5-1.4,0.7-2,0.7L82.1,66c0-0.3,0.1-0.5,0.3-0.6c0.2-0.1,0.6-0.3,1.2-0.6
				C84.2,64.6,84.8,64.3,85.4,64.1z"/>
			<path d="M65.5,72.4l0.6,0.5c-0.2,0.3-0.3,1-0.5,1.9c-0.2,1-0.3,1.8-0.3,2.6c0,0.3,0.1,0.5,0.4,0.8c0.3,0.3,0.4,0.5,0.4,0.6
				c0,0.6-0.3,1.3-1,2c-0.7,0.7-1.1,1.2-1.2,1.4c-0.6,0.9-1.2,1.9-1.8,3c-0.7,1.4-1.3,2.5-1.9,3.2c-1.4,1.7-3.5,3.2-6.3,4.6
				c-2.8,1.3-5.4,1.9-7.7,1.9c-0.6,0-1.7,0.1-3.1,0.3c-1.5,0.2-2.7,0.5-3.8,1l-1.4,0.1c-0.5,0-1-0.2-1.6-0.5
				c-0.5-0.3-1.3-0.5-2.2-0.5c-0.3,0-0.8,0.1-1.4,0.3c-0.6,0.2-1,0.3-1.2,0.4c-1,0.6-2.1,0.9-3.2,0.9l-5.7-1.4c-0.4,0-1,0.1-1.6,0.2
				c-0.6,0.1-1,0.2-1.3,0.2c-1.4,0.3-2.7,0.5-3.9,0.5c-2.3,0-4-0.2-5.1-0.5c-1-0.3-1.6-0.6-1.8-0.7c-0.3-0.2-0.6-0.3-1-0.5L8,94
				c0.5,0.1,1.1,0.3,1.8,0.4h0.9c0.5,0,1.2-0.7,2.1-2.1c0.9-1.4,1.5-2.3,1.8-2.7c0.5-0.5,1.3-1.2,2.3-2.1c1-0.9,1.8-1.7,2.3-2.5
				c0.5-0.8,0.8-1.8,0.8-3.1c0-0.3-0.2-0.7-0.7-1.1c-0.5-0.4-0.8-0.6-1.1-0.6l-2.6,1l-0.5-0.1v-1l0.3-1.8c0.1,0,0.2,0,0.2,0l1.2-0.7
				c1.6,0,3.4,0.4,5.6,1.2c2.4,0.7,4.2,1,5.3,1l3.5-0.1c3.9,0,7.5-0.6,10.7-1.7s4.8-3.4,4.8-6.9c0-0.7-0.2-1.3-0.7-1.8
				c-0.5-0.5-0.8-0.8-1-1.1c-0.1-0.3-0.2-0.6-0.3-1s-0.2-0.8-0.3-1c-1.2-1.7-2.5-2.9-3.8-3.6c-1.4-0.7-2.7-1.3-4.2-1.7
				c-1.4-0.4-2.4-0.7-2.9-0.9c0-0.1-4.9-1.6-14.7-4.4c-0.2,0-0.4-0.1-0.6-0.2s-0.5-0.2-0.8-0.2c-4.4-1.7-8.4-4.1-12-7.4
				c-3.5-3.3-5.3-7-5.3-11.1c0-1.2,0.1-2.1,0.3-2.7l1.2-2.3c1.4-4.6,3.1-8.1,5.1-10.5c2-2.4,4.4-4.1,7-5.1c2.6-1,6.4-2.1,11.4-3.2
				c0.4-0.1,1.3-0.3,2.6-0.6c2.6-0.6,4.3-0.9,5.2-0.9c3.5,0,5.6,0.3,6.2,1h13.1c0.4,0.6,1.4,1.4,2.8,2.3c1.4,0.9,2.3,1.5,2.5,1.8
				l-0.1,0.6c0,0.9,0.2,2.1,0.5,3.6c0.4,1.4,0.6,2.3,0.7,2.7l0.1,3.4c0.3,1.9,0.4,4.3,0.4,7.3c0,0.5-0.1,0.9-0.3,1.1
				c-0.2,0.2-0.6,0.3-1.2,0.3l-3.6-2.1c-3.5-1.9-5.9-3.2-7.4-3.8c-3.3-1.2-8.2-2.1-14.6-2.6l-3.9-0.4v-0.5c-0.3,0.4-1.2,0.6-2.9,0.8
				c-2.2,0.2-3.9,0.6-5.1,1.4c-1.3,0.7-1.9,2.3-1.9,4.6c0,0.7,1.2,2,3.6,4c2.4,2,5.1,3.9,8.2,5.9c3.1,1.9,5.7,3.2,7.7,3.8
				c9.8,2.9,15.9,5.2,18.2,6.8c0.3,0.3,0.8,0.7,1.5,1.2c0.6,0.5,1.2,0.9,1.8,1.2c1.1,0,2.1,1.2,3.1,3.6c0.9,2.4,1.7,5.1,2.3,8.1
				C65.2,70,65.5,71.8,65.5,72.4z M63,73.4v-3.2c-0.6,0.3-1.1,0.5-1.6,0.8c-0.4,0.3-0.7,0.4-0.9,0.5l-0.8-0.1
				C58.4,72,57,73,55.7,74.3c-1.3,1.3-2.4,2.6-3.3,4c0.4,0,0.8-0.1,1.4-0.3c0.6-0.2,1-0.3,1.2-0.3c-0.2,0.8-1.1,1.9-2.8,3.2
				s-3.5,2.6-5.5,3.7c-2,1.1-3.4,1.6-4.2,1.6c-0.1,0-0.2-0.1-0.5-0.3c-0.2-0.2-0.5-0.3-0.7-0.3c-0.8,0.3-2,1.3-3.8,2.8
				c-1.7,1.5-2.6,2.6-2.6,3.2c0.5,0,1.4-0.3,2.6-0.9c1.2-0.6,2-1.1,2.3-1.5c2.6-1.8,5.6-3.5,8.9-5.1c3.3-1.6,5.2-2.3,5.7-2.3
				c0.3,0,0.7,0.1,1.1,0.4c0.4,0.3,0.8,0.5,1.1,0.6c-0.4,0.7-1.6,1.8-3.5,3.4c-3,2.2-4.4,3.8-4.4,4.5c0,0.1,0,0.2,0.1,0.3
				c0.1,0.1,0.2,0.2,0.3,0.2c0.4-0.6,1.1-1.2,2-1.8c0.9-0.6,1.5-1,1.8-1.3c1-0.9,2.3-2,4-3.2c2.2-1.7,3.8-3.1,4.7-4.4
				c1-1.3,1.5-3,1.5-5.2c-1,0-2.5,0.5-4.4,1.6c-1.7,0.8-2.7,1.3-3.2,1.4C56,77,57,76,58.6,75.1C60.1,74.2,61.6,73.7,63,73.4z
				 M60.3,69.3l2.1-0.5c0-2.2-0.7-4.5-2.2-6.9c-0.1,0.1-0.5,0.7-1.3,1.7c-0.8,1-1.3,1.6-1.7,1.6c-0.2,0.4-0.5,0.8-0.8,1.2
				c-0.4,0.5-0.8,1-1.1,1.5c-2.3,3.3-3.5,5.1-3.5,5.3c0.4,0,0.9-0.2,1.5-0.7c0.6-0.5,1-0.7,1.2-0.7l0.5,0.1L60.3,69.3z M59.3,59.9
				c-0.3-0.2-0.8-0.8-1.7-2c-0.9-1.2-1.6-1.8-2.2-1.8c-0.5,0-1,0.2-1.3,0.6c-0.4,0.4-0.7,0.8-0.9,1.2c-0.3,0.4-0.4,0.7-0.5,0.9
				c-0.4,0.9-0.8,1.5-1.2,2c-0.3,0.4-0.8,0.7-1.3,0.7c0,1.1-0.6,2.5-2,4l0.5,1c0.1-0.2,1-0.9,2.9-2.2c1.8-1.3,3.3-2.3,4.4-3
				c0.3-0.2,0.8-0.3,1.5-0.4C58.2,60.9,58.7,60.5,59.3,59.9z M57.7,62.8v-0.4l-2.5,1.3c-4.2,2.1-6.2,3.5-6.2,4.4
				c0,1,0.3,2.5,0.9,4.3c0.7-1,1.5-2,2.5-3C55.9,65.4,57.7,63.2,57.7,62.8z M55.5,32.1v-1.4c0-1.8-0.2-2.7-0.5-2.7h-3.6l-0.5,1.3
				c0.6,0,1.4,0.3,2.5,1C54.3,30.8,55.1,31.5,55.5,32.1z M55.5,24.8c0-0.4-0.1-0.7-0.3-1.1c-0.2-0.4-0.3-0.6-0.5-0.6
				c-0.5,0-1.4,0.5-2.6,1.5c-1.2,1-2,1.8-2.2,2.3L52,27C54.3,27,55.5,26.3,55.5,24.8z M55.1,19.3L55,18.4c-0.2,0.3-0.6,0.7-1.4,1.4
				c-0.7,0.6-1.1,1.2-1.2,1.8c0.7-0.1,1.3-0.3,1.9-0.7C54.8,20.4,55.1,20,55.1,19.3z M50.3,78.6l3.1-3.6c-1.1,0-2.6,0.6-4.5,1.7
				c-1.9,1.1-4.2,2.6-7,4.5c0.1,0,0.5,0.1,1.1,0.3c0.7,0.2,1,0.5,1,0.8c0,0.3-0.1,0.5-0.3,0.8c-0.2,0.3-0.3,0.7-0.3,1.3
				c0.8-0.9,1.9-2.1,3.5-3.6s2.5-2.3,2.9-2.3C50.1,78.5,50.2,78.5,50.3,78.6z M53.4,18c0-0.8-0.3-1.2-0.8-1.2
				c-0.3,0-1.9,0.7-4.7,2.2c-2.8,1.5-4.2,2.3-4.4,2.5c0.2,0.6,0.4,1.4,0.8,2.5c0.3,1,0.6,1.8,0.8,2.3c0.4-0.4,1.3-1.2,3-2.6
				c1.2-1,2.4-2.1,3.6-3.3C52.8,19.3,53.4,18.5,53.4,18z M53.9,55.1c-0.3-0.2-0.9-0.6-1.6-1.2C51.7,53.3,51,53,50.3,53
				c-0.5,0-1.3,0.7-2.5,2.1c-1.1,1.4-1.8,2.4-2.1,3.1l-0.1-1c0-0.7,0.2-1.4,0.7-2c0.4-0.6,0.7-1.2,0.9-1.6c-0.7,0-2.2,0.7-4.4,2
				c-0.3,0.2-1.1,0.6-2.5,1.3c-1.4,0.7-2.6,1-3.5,1v0.9c0.5,0,1.2,0.2,2.1,0.5c0.9,0.3,1.6,0.5,2,0.5v0.5c0.6-0.2,1.3-0.6,2.1-1.3
				c0.7-0.6,1.2-1.2,1.5-1.6c-0.1,0.1-0.1,0.3-0.1,0.6c0,0.6,0.4,0.9,1.3,0.9c1.1,0,2.7-0.7,4.8-2.1c0.3-0.2,0.8-0.5,1.5-0.8
				C52.8,55.5,53.4,55.3,53.9,55.1z M50.6,86.8l1.8-1.8c-0.8,0-1.7,0.1-2.7,0.4c-1,0.3-1.5,0.8-1.5,1.6l-9.4,4.2
				c0,0.3-0.5,0.6-1.6,1.1c-1.1,0.5-1.8,0.8-2.1,1c1,0.6,2.2,0.9,3.8,0.9c2.2,0,3.9-0.1,5.3-0.3c1.3-0.2,2-0.6,2-1.2
				c-0.3,0-0.5-0.1-0.5-0.3C45.6,91.8,47.3,89.9,50.6,86.8z M52,57.8c-0.9,0-1.9,0.2-3,0.6c-1.1,0.4-2.2,0.9-3.2,1.4
				c-0.4,0.2-0.7,0.4-1.2,0.6c-0.4,0.2-1,0.4-1.6,0.6c0.6,0.1,1.4,0.5,2.3,1.3c0.9,0.8,1.5,1.4,1.9,1.8c0.6-0.5,1.1-1.3,1.6-2.2
				C49.7,59.9,50.8,58.6,52,57.8z M44.6,17.3l3.6-2.5c-1.1-0.4-1.9-0.6-2.5-0.6c-0.4,0-1,0.1-1.8,0.3c-0.7,0.2-1.1,0.4-1,0.6
				c0,0.3,0.1,0.6,0.3,1c0.2,0.4,0.3,0.8,0.3,1.2H44.6z M44.6,53l-0.5,1c1.3-0.6,2-1.3,2.1-2.1c-1.9-1.1-3.5-1.7-4.7-1.7
				c0,0.8-0.2,1.4-0.5,1.9c-0.3,0.5-0.8,1.1-1.5,1.8c-1,1-1.6,2-1.6,2.7c2.8-1.6,4.3-2.5,4.7-2.5c0.4,0,0.8-0.2,1.1-0.6
				C44,53.2,44.3,53,44.6,53z M42.4,19.1c-0.2-0.5-0.5-1.3-0.8-2.3c-0.4-1-0.8-1.8-1.4-2.2c-0.5-0.4-1.3-0.7-2.3-0.9
				c0.1,0,0.3,0.6,0.6,1.8c0.3,1.2,0.5,2.4,0.5,3.6c0,0.2-0.1,0.4-0.4,0.8c-0.3,0.4-0.5,0.6-0.6,0.6c0.2,0.2,0.4,0.3,0.6,0.4
				c0.2,0.1,0.4,0.2,0.5,0.3c0.3,0,0.8-0.3,1.6-0.8C41.2,19.9,41.8,19.4,42.4,19.1z M42.1,24.9c0-1.2-0.3-1.8-0.8-1.8l-1.4,1.2
				C40.4,24.7,41.2,24.9,42.1,24.9z M40.3,50.3v-0.5c-0.4-0.3-1.2-0.6-2.3-1c-1.1-0.4-1.9-0.6-2.3-0.6c-0.5,0.4-1,0.9-1.3,1.3
				c-0.3,0.4-0.6,0.7-0.6,0.8c-0.4,0.3-1.4,0.6-2.9,1c-1.5,0.4-2.5,1-2.9,1.7c1.5,0,3-0.2,4.5-0.7c1.5-0.4,2.5-0.7,2.9-0.8
				C37.5,50.9,39.2,50.5,40.3,50.3z M39.4,52.5c0-0.3,0-0.4-0.1-0.5c-0.3,0.1-0.6,0.2-1,0.3c-0.4,0.1-0.7,0.2-1,0.3
				c-1,0-1.9,0.1-2.9,0.4c-1,0.3-1.9,0.6-2.8,0.9c-1.7,0.7-3.1,1.1-4.3,1.3c0.1,0.3,0.4,0.5,1,0.5c0.6,0,1.1,0,1.4,0.1
				c0.4,0.1,0.5,0.4,0.5,0.9H32v0.8c0.9,0,1.9-0.3,3.1-1c1.2-0.6,2.2-1.4,3.1-2.2C38.9,53.4,39.4,52.8,39.4,52.5z M39,82.9
				c0.6-0.5,0.9-1.3,0.9-2.2c-0.6,0.5-1.7,0.9-3.4,1.3c-2.2,0.5-3.9,1.3-5.1,2.5c-0.7,0.7-2.3,2.1-4.9,4.3c-2.4,1.7-4.2,3.4-5.5,5.1
				c0.4-0.2,1-0.5,1.8-0.8s1.4-0.8,2-1.2v0.5h1.4l-1.4,1l0.4,0.5c0.1,0,0.3,0.1,0.6,0.2c0.3,0.1,0.6,0.2,1,0.2
				c0.7,0,1.3-0.1,1.7-0.2c0.4-0.1,1-0.4,1.6-0.7c1-1,2.1-2.1,3.3-3.1c1.2-1,2-1.7,2.4-2.1c0.4-0.3,1-0.8,1.6-1.4c0.7-0.6,1-1,1-1.2
				l-1,0.5c-0.2,0-0.3-0.1-0.4-0.2s-0.1-0.2-0.1-0.3c-0.7,1.4-1.7,2.1-3,2.1L33,87.5c0.4-1,1.5-2,3.4-2.9C37.5,84,38.4,83.4,39,82.9
				z M37,19.9c0.2-0.6,0.3-1.1,0.3-1.5c0-1.1-0.1-1.9-0.4-2.3c-0.3-0.4-0.6-0.7-1-0.8s-0.7-0.4-0.8-0.5v1.4c0,1.7,0.6,3.5,1.7,5.3
				C36.8,21,36.9,20.5,37,19.9z M36.1,24.3l0.7-1.7c-0.3,0.2-0.8,0.3-1.3,0.3c-0.8,0-1.3-0.2-1.6-0.6c-0.3-0.4-0.5-1-0.6-1.8
				c0-0.2-0.1-0.5-0.2-1c-0.1-0.5-0.3-1-0.6-1.4c-0.3-0.4-0.6-0.8-1-1c0,0.9,0.1,1.5,0.3,2c0.2,0.5,0.3,0.8,0.3,1.1h-2.2
				c0,0.4,0.3,0.6,0.8,0.8c0.5,0.2,0.8,0.5,0.8,0.7l-0.3,0.5l0.9-0.5l0.1,0.5c0,0.7-0.3,1-0.8,1c-0.7,0-1.2-0.1-1.6-0.4
				c-0.3-0.3-0.7-0.7-1-1.2c-0.4-0.6-0.8-0.9-1.4-1c0,1-0.2,1.6-0.5,1.8s-0.9,0.4-1.7,0.5c-1.3,0-2.1,0.5-2.5,1.4H36.1z M33.7,47.8
				v-0.9c-0.7,0-1.6,0.2-2.7,0.7s-1.7,0.9-1.7,1.3v0.5c0.5-0.1,1.3-0.3,2.2-0.7C32.4,48.4,33.1,48.1,33.7,47.8z M29.2,82.8l-0.4-0.5
				h-5.1c-0.3,0.2-0.6,0.5-1.2,1c-0.5,0.5-0.9,0.9-1,1.2c-0.3,0.5-0.9,1.2-1.8,2.1c-1,0.9-1.6,1.4-1.8,1.7c-1.7,1.6-2.6,2.5-2.6,2.7
				s0.5,0.4,1.6,0.4c-0.4,0.4-0.9,1-1.6,1.6c-0.7,0.6-1.2,0.9-1.5,0.9l2.5,0.1c1.5,0,2.6-0.3,3.4-0.8c0.8-0.5,1.6-1.2,2.4-1.9
				c0.8-0.8,1.3-1.3,1.7-1.7c0.1,0.1,0.3,0.1,0.5,0.1c0.5,0,1.1-0.3,1.6-0.9c0.6-0.6,1.1-1.3,1.7-2.2c0.6-0.8,1-1.4,1.2-1.6
				l-5.1,2.5h-1.2v-0.6c0.3,0,1.3-0.6,3.2-1.9C27.8,83.7,28.9,83,29.2,82.8z M29.1,19.1c0.2-0.2,0.3-0.5,0.3-0.9s-0.1-1-0.3-1.8
				c-0.2-0.7-0.3-1.3-0.3-1.6l0.1-0.5c-2,0.3-3.7,0.8-5.1,1.6c0.4,0.4,0.9,0.8,1.3,1.4c0.4,0.6,0.8,1,1.2,1.2
				c0.3,0.3,0.9,0.4,1.6,0.4v0.7C28.5,19.4,28.9,19.3,29.1,19.1z M28.8,47.8c0.4-0.3,0.5-0.6,0.5-1.2c-3.1,0-5.9,0.2-8.3,0.6V46
				c0.1,0,0.3,0,0.4,0c2.1,0,4.7-0.5,7.8-1.3C29,44.6,28.2,44,27,43c-1.2-1-2.1-1.6-2.5-1.6c-1.4,0-3-1.1-5-3.2
				c-1.9-2.2-3-3.3-3.2-3.5c-0.8,0.3-1.5,0.5-2.1,0.5c-0.5,0-1-0.2-1.4-0.5l-0.7,1l-2.5-0.1c-1.8,0-2.7,0.4-2.7,1.2l3.2,0.1
				c0.1,0.4,0.3,0.8,0.6,1.1c0.4,0.3,0.7,0.5,1,0.5c0.6,0,0.9-0.4,0.9-1.3l1.4,1.2v-1c0.4,0,1.2,0.3,2.4,0.8c1.2,0.5,1.8,1,1.8,1.3
				c0,0.4-0.9,1-2.7,1.6s-3.1,1-3.9,1c0.2,0.2,0.3,0.3,0.3,0.5c0,0.4-0.3,0.8-0.9,1c0-0.8-0.3-1.2-0.9-1.2l-0.6,0.1
				C9.8,42.6,10,42.7,10,43l-0.1,1.2H7.8c0,0.4,0.2,0.8,0.6,1.2c0.4,0.4,0.9,0.8,1.4,1.2c0.6,0.4,1,0.8,1.2,1.2
				c0.4-0.3,0.6-0.5,0.6-0.6c0-0.5,1.2-1.1,3.4-1.8c2.3-0.6,3.7-1.1,4.2-1.2v-0.7h-5.6c-0.1,0-0.3-0.2-0.7-0.5
				c0-0.4,1.9-0.5,5.6-0.5c4.3,0,6.5,0.2,6.5,0.5v0.5c0,0.3-0.4,0.5-1,0.8c-0.7,0.3-1.4,0.5-2.2,0.6c-0.2,0-0.4,0.1-0.5,0.1
				c-1.2,0.3-1.9,0.5-2.1,0.7v-0.5c-0.3,0.1-0.8,0.3-1.6,0.6c-0.8,0.4-1.3,0.7-1.5,0.9c0.2,0.1,0.3,0.2,0.4,0.4
				c0.1,0.2,0.2,0.3,0.2,0.4c0.1,0,0.3-0.1,0.6-0.4c0.4-0.3,0.8-0.4,1.3-0.4c0,0.6-0.6,1.1-1.9,1.5c-1.3,0.4-2.3,0.6-3.2,0.6
				c-0.3,0-0.6-0.1-0.9-0.2c-0.3-0.1-0.6-0.3-0.8-0.5l-0.1,0.5c0,0.4,0.2,0.7,0.4,0.8c0.3,0.1,0.8,0.2,1.4,0.2
				c0.8,0,1.3,0.1,1.7,0.3c0.4,0.2,0.7,0.6,1,1.2c0.3,0.6,0.9,0.8,1.8,0.8c0.7,0,1.6-0.4,2.7-1.2c1.1-0.8,2-1.2,2.5-1.2
				c0.4,0,0.6,0,0.8,0.1l4.7-2.6V47.8z M26.2,51.5L22.6,53c0.1,0.3,0.5,0.5,1.2,0.5c0.5,0,1.1-0.2,1.6-0.7
				C26,52.5,26.2,52,26.2,51.5z M23.8,21l1-0.5c0-0.5-0.3-1-1-1.6c-0.6-0.5-1.3-0.8-1.9-0.8V17c-0.4,0-0.7-0.1-1.1-0.4
				c-0.4-0.3-0.7-0.4-0.9-0.4s-0.3,0.1-0.4,0.3c-0.1,0.2-0.2,0.3-0.2,0.4c0.1,0.7,0.3,1.2,0.6,1.5c0.4,0.3,0.9,0.6,1.6,1
				c0.1,0.1,0.4,0.3,0.9,0.5S23.4,20.5,23.8,21z M22,23.6h-1.2c0-0.2-0.1-0.4-0.2-0.6c-0.1-0.2-0.2-0.4-0.2-0.6
				c0-0.3,0.4-0.4,1.2-0.4c-1.4-1.8-3.3-3.2-5.9-4c-0.4,0.2-1.1,0.5-2.3,1.1c-1.2,0.6-2.3,1.2-3.2,1.9c-0.9,0.7-1.4,1.4-1.4,2.1
				c0,0.6,0.5,1.1,1.6,1.6s1.9,0.6,2.6,0.6c0.1-0.1,0.3-0.2,0.7-0.5c0.3-0.2,0.5-0.4,0.5-0.6c-0.1-0.2-0.5-0.4-1.4-0.7
				c-0.8-0.3-1.2-0.5-1.2-0.7c0-1.2,0.9-1.8,2.6-1.8c0.4,0,1.1,0.4,2.1,1.1c0.9,0.7,1.7,1.1,2.2,1.1l0.5-0.1c-0.2,0.4-0.5,0.6-1,0.8
				c-0.5,0.2-0.9,0.3-1,0.4c0.4,0.1,1,0.3,2,0.6c1,0.3,1.5,0.6,1.5,1c0.1-0.4,0.3-0.9,0.7-1.3C21.5,24.1,21.8,23.8,22,23.6z
				 M17.4,27.3l-0.5-0.4c0-0.2,0.1-0.4,0.2-0.6c0.1-0.2,0.2-0.4,0.3-0.5c-0.2,0.1-0.5,0.3-1,0.6c-0.5,0.3-0.8,0.5-1,0.5
				c-1.6-0.4-3.1-0.7-4.5-1c-1.4-0.4-2.2-0.6-2.5-0.6v0.5c1,0,1.4,0.3,1.4,1L9,26.9c-0.2,0-0.4-0.1-0.8-0.3
				c-0.4-0.2-0.6-0.3-0.8-0.3c-0.6,0-1.1,0.5-1.6,1.5c-0.4,1-0.9,2.4-1.4,4.2c-0.5,1.7-0.9,2.8-1.2,3.1c0.4,0,1-0.1,1.8-0.3
				c0.8-0.2,1.4-0.3,1.8-0.3v0.5c0.4-0.4,1.1-0.7,1.9-0.8c0.8-0.1,1.5-0.2,2-0.3c0.5,0,0.9-0.1,1-0.1c0.4,0,0.8,0,1.4-0.1
				s1.1-0.2,1.4-0.3l-0.9-0.5c-0.6,0-1.4-0.1-2.4-0.2c-1-0.1-1.7-0.2-2.1-0.3V31C9,31.5,8.7,31.8,8.4,32c-0.3,0.2-0.6,0.3-1,0.3
				c-1,0-1.6-0.3-1.6-0.8c0-0.6,0.5-1.1,1.4-1.4c1-0.3,2-0.5,3.1-0.7s1.9-0.3,2.3-0.4l-2.1-1.7c0-0.1,0.1-0.2,0.3-0.3
				c0.2-0.1,0.4-0.2,0.4-0.2c0.3,0,1.1,0.4,2.2,1.1c1.1,0.7,1.9,1.1,2.3,1.1c0.4,0,0.7-0.2,1-0.7C17.3,27.9,17.4,27.5,17.4,27.3z
				 M15.2,31.6c0.5,0,0.8-0.6,0.8-1.7c-1.6,0-2.9,0.1-4,0.3c-1.1,0.2-1.7,0.7-1.9,1.4H15.2z M13.8,39.8v-0.5c-0.1,0-0.4,0-1-0.1
				c-0.6-0.1-1.6-0.2-3-0.3l-6-0.7c0,1.8,0.4,3.2,1,4.3c0.6-0.1,1.3-0.3,2.2-0.6c0.9-0.3,1.5-0.5,1.8-0.7
				C10.7,40.2,12.4,39.8,13.8,39.8z"/>
			<path d="M31.7,87.5c0.2,0,0.6,0.4,1.3,1c-0.9,0.7-1.9,1.3-3,1.9c-1.1,0.6-2.2,0.8-3.2,0.8c0.5-0.8,1.3-1.6,2.4-2.5
				C30.3,87.9,31.1,87.5,31.7,87.5z"/>
			<path d="M21.6,88.2v0.9c-0.9,0-1.4,0.1-1.7,0.2c-0.3,0.1-0.5,0.4-0.6,0.8c-0.1,0.4-0.6,0.6-1.4,0.6c0.4-0.7,0.8-1.3,1.5-1.8
				C20.1,88.5,20.8,88.2,21.6,88.2z"/>
			<path d="M16.7,83c0.1,0.1,0.2,0.2,0.2,0.3c0,0.6-0.3,1.1-0.9,1.5c-0.6,0.4-1,0.6-1,0.7l-0.3-1c0.2-0.3,0.4-0.6,0.7-0.9
				c0.3-0.4,0.6-0.6,0.8-0.8C16.4,82.8,16.6,82.8,16.7,83z"/>
			<path d="M15.5,78.2l-0.3,1.8c-0.8,0-1.5,0.2-2.3,0.7c-0.7,0.4-1.2,0.7-1.4,0.8c-1.3,0.9-2.4,1.4-3.2,1.4l-1.4-0.1
				c-0.7,0.3-1,0.4-1,0.5v7.9c0,0.9,0.2,1.7,0.7,2.1C6.8,93.6,7.3,93.8,8,94l-0.2,0.8c-0.4-0.2-0.9-0.3-1.5-0.4
				c-1.4-0.3-2.1-0.4-2.1-0.5l-0.4-0.5c-0.2-0.2-0.5-3-1.1-8.6c-0.6-5.6-0.9-9.6-1.1-12.1c0-0.3,0.1-0.6,0.5-0.9
				c0.3-0.3,0.7-0.4,1.1-0.4c0.5,0,2.2,0.9,5.1,2.9c1.5,0.9,2.9,1.9,4.4,2.7C14,77.7,14.9,78.1,15.5,78.2z M9,76.4h-1
				c-0.4-0.1-1-0.4-1.6-0.8c-0.6-0.5-1.2-0.7-1.6-0.7c-0.1,0.4-0.1,0.8-0.1,1.4c0,1,0.2,1.9,0.7,2.6c0.4,0.7,0.9,1,1.4,1
				C7.7,79.9,8.4,78.8,9,76.4z"/>
			<path d="M13.6,81.7c0.8,0,1.2,0.3,1.2,0.9c-0.3,0-1.1,0.6-2.6,1.8s-2.2,2-2.2,2.3c0.1,0.1,0.2,0.1,0.4,0.1c0.3,0,0.5-0.1,0.8-0.2
				c0.3-0.1,0.6-0.2,1-0.3c0,0.9-0.3,1.4-0.8,1.7c-0.5,0.3-1.3,0.4-2.3,0.4c-0.5,0-0.9-0.1-1.2-0.4c0.3-0.2,0.6-0.6,1.2-1.2
				c0.5-0.7,0.9-1.1,1-1.4C11.8,83,12.9,81.7,13.6,81.7z"/>
		</g>
		<g>
		</g>
	</g>
</g>
<g id="Flche_1_">
	<g id="XMLID_2_">
		<g>
			<path d="M359.7,29.3c0,0,0.1,0.1,0.2,0.1c0.1,0,0.2,0.1,0.2,0.1c0.6,0,1.3-0.2,2-0.7c0.7-0.5,1.3-1,1.8-1.6
				c-0.4,0-1.4,0.5-2.9,1.4C360.2,29,359.8,29.2,359.7,29.3z M368.8,24.9c0,0.4-0.1,1-0.2,1.7c-0.1,0.4-0.2,0.9-0.2,1.4l0.1,2
				l-0.2,0.3l-1.9-0.1c-0.8,0-1.7,0.1-2.9,0.3c-0.3,0-0.8,0.1-1.5,0.2c-0.7,0.1-1.3,0.1-1.9,0.1l-1.1-0.1c-0.4,0-0.8,0.1-1.3,0.2
				v0.3c0,0.8,0.1,1.9,0.5,3.3l0.2,1.3c0.5,2.9,0.8,6.2,0.8,10c0,1.4-0.1,2.7-0.2,4c-0.1,1.7-0.1,3-0.1,3.9c0,1,0.1,2,0.2,2.9
				c0.1,1.3,0.1,2.3,0.1,3c0,0.4,0,0.7-0.1,0.9c-0.1,0.2-0.3,0.3-0.6,0.3l-7.4-0.5c-0.5,0-0.8-0.5-1-1.6c-0.2-1.1-0.2-2.1-0.2-3
				v-1.7c-0.2-1.6-0.5-3.6-1-5.9c0-1.8,0-4,0.1-6.7c0.1-2.4,0.1-4.2,0.1-5.4c0-0.5-0.1-0.8-0.2-1c0-0.6-0.1-1.5-0.2-2.6
				c-0.1-1.1-0.2-1.7-0.3-1.6h-4l-0.5-0.2c-0.8,0.1-1.3,0.1-1.5,0.1c-0.5,0-1.2-0.1-2-0.2c-0.8-0.2-1.2-0.4-1.2-0.6l-0.2-5.4
				c0-0.1-0.1-0.2-0.1-0.3c0-0.2-0.1-0.3-0.1-0.4c0-0.2,0.3-0.4,0.8-0.5c-0.1,0.1-0.2,0.2-0.2,0.2c-0.1,0.1-0.1,0.3,0,0.4
				c0.3-0.1,0.7-0.2,1.1-0.2c0.2,0,0.4,0,0.5,0c0-0.2,0.1-0.4,0.2-0.7c0.5,0,1,0,1.6,0c0.1,0,0.2,0,0.3,0c0,0.2,0,0.4,0.1,0.6
				c0,0.1,0,0.2,0,0.3c0.1,0,0.2,0,0.3,0c0.2,0,0.4,0,0.5,0c0-0.2,0-0.5,0.1-0.8c0.1,0,0.2,0,0.3,0.1c0.4,0,0.8,0,1.1,0
				c0.1,0.3,0.2,0.4,0.4,0.5c0.1-0.2,0.2-0.3,0.3-0.5c0.2,0,0.4,0,0.6,0c-0.1,0.3-0.3,0.6-0.4,0.8c0.2,0,0.3,0,0.5,0
				c0.2,0,0.4,0,0.6,0c0.1-0.1,0.1-0.2,0.2-0.4c0.1-0.2,0.2-0.3,0.2-0.5c2.5,0,4.3,0.1,5.4,0.2c0.3,0,0.8,0.1,1.5,0.1
				c0.2,0,0.6,0,1.2,0.1c0.6,0,1.1,0.1,1.5,0.3c0.2,0.2,0.4,0.4,0.6,0.7c0.3-0.1,0.6-0.1,0.9-0.1c0.3,0,0.6,0,0.9,0.1
				c0-0.2,0-0.4,0-0.6h1.3c0,0.2,0,0.4-0.1,0.6c0.1,0,0.2,0,0.3,0c0,0,0-0.1,0-0.1c0-0.1,0-0.3,0-0.4h0.8c-0.1,0.2-0.1,0.4-0.2,0.6
				c0.1,0,0.3,0,0.4,0.1c0.1-0.3,0.1-0.5,0.2-0.6c0.1,0,0.2-0.1,0.3-0.1h2.6c0,0,0,0.1-0.1,0.2c-0.1,0.3-0.2,0.5-0.3,0.7l0.3,0.2
				l0.4-0.6c-0.1,0.3-0.1,0.6-0.1,0.9c0,0.1,0,0.1,0.1,0.2c0.1-0.1,0.3-0.1,0.4-0.2c0-0.1,0-0.2,0-0.3c0-0.4,0-0.7-0.1-1h0.5
				c0.2,0.4,0.3,0.8,0.4,1.1c0.1,0,0.1,0,0.2,0c0.2,0,0.4,0,0.6,0c0.1-0.1,0.3-0.3,0.5-0.4c-0.1-0.3-0.2-0.5-0.4-0.8
				c0.1,0,0.2,0,0.3,0c0,0.1,0.1,0.2,0.1,0.3C368.6,24.6,368.7,24.7,368.8,24.9z M367.5,29.3v-1.9c-0.3,0.2-0.8,0.5-1.6,0.9
				c-0.8,0.3-1.4,0.6-1.9,0.7L367.5,29.3z M367.4,26.7v-1.3c-0.2,0-0.5,0.1-0.8,0.4c-0.3,0.3-0.5,0.5-0.5,0.7c0,0.1,0,0.1,0.1,0.2
				c-0.5,0.2-1.2,0.6-2,1.1c-0.8,0.5-1.3,1-1.7,1.5c1-0.5,2-1,3-1.5C366.5,27.2,367.1,26.9,367.4,26.7z M365.1,25.2
				c-0.7,0-1.2,0-1.5,0.1c-0.1,0-0.9,0.6-2.5,1.8c-1.6,1.2-2.5,1.9-2.6,2.2h0.3l1.8-1.4v0.2c0.2-0.2,0.5-0.4,0.9-0.7
				c0.5-0.2,0.9-0.5,1.4-0.7C364.4,25.9,365.1,25.4,365.1,25.2z M362,25.3v-0.2l-3.3,0.2l0.1,0.3c0,0.3-0.1,0.6-0.4,0.8
				c-0.2,0.2-0.4,0.4-0.4,0.5c-0.5,0.4-0.8,0.8-0.8,1.2L362,25.3z M358.2,46.1l-0.5-0.5c-0.2,0.4-0.4,0.6-0.7,0.9
				c-0.3,0.2-0.6,0.4-1,0.7c-0.4,0.2-0.7,0.4-0.9,0.6c-0.2,0.1-0.5,0.3-0.9,0.7c-0.5,0.3-0.9,0.6-1.5,1v0.2c0.5,0,1-0.2,1.7-0.4
				c0.7-0.3,1.4-0.4,2-0.4c0,0.4-0.3,0.9-0.8,1.2c-0.5,0.4-1.1,0.9-2,1.4c-1,0.5-1.5,1-1.5,1.2c0.2-0.1,0.6-0.3,1.2-0.6
				c0.6-0.3,1.1-0.5,1.6-0.7c0.5-0.2,0.9-0.3,1.4-0.3c0.2,0,0.3,0,0.4,0.1c0.1,0,0.1,0.2,0.1,0.4c0,0.4-1,1.1-2.9,2.1
				c-0.3,0.2-0.6,0.4-1.1,0.7c-0.5,0.3-0.8,0.5-1.1,0.7c0.4,0,0.9-0.1,1.5-0.4c0.6-0.2,1-0.4,1.3-0.4c0,0,0.1,0,0.2,0.1
				c0.1,0.1,0.1,0.1,0.1,0.1c0,0,0.1-0.1,0.2-0.3c0.2-0.2,0.3-0.3,0.4-0.4c0.2,0,0.3,0.1,0.5,0.2s0.3,0.3,0.3,0.4
				c0,0.3-0.3,0.6-0.8,0.9c-0.5,0.3-1.3,0.8-2.4,1.4c-0.8,0.4-1.2,0.6-1.2,0.7c0.2,0,0.3,0.2,0.3,0.5c0,0.2-0.1,0.3-0.3,0.5
				s-0.3,0.3-0.3,0.5c0,0.2,0,0.3,0.1,0.4c0.1,0.1,0.2,0.1,0.5,0.2c0.3,0,0.5,0,0.6-0.2c0.1-0.1,0.3-0.3,0.4-0.5
				c0.2-0.3,0.4-0.5,0.5-0.6c0.1-0.1,0.4-0.2,0.8-0.2c0.3,0,0.4,0.1,0.5,0.3c-0.1,0.1-0.2,0.2-0.4,0.3c-0.2,0.1-0.4,0.1-0.5,0.1
				c0.7,0.2,1.4,0.4,2.2,0.5s1.4,0.2,1.8,0.3c0-0.2-0.1-0.6-0.2-1c-0.1-0.4-0.2-0.8-0.2-1c0,0,0.1-0.1,0.2-0.2
				c0-0.1-0.1-0.1-0.2-0.2c-0.1,0-0.2-0.1-0.4-0.1c-0.2,0-0.2,0.1-0.3,0.3c0,0.2-0.1,0.4-0.1,0.5c-0.1,0.1-0.3,0.2-0.7,0.2
				c-0.3,0-0.4,0-0.5-0.1c-0.1-0.1-0.1-0.2-0.2-0.3c0-0.1-0.1-0.2-0.2-0.3c0.1-0.1,0.2-0.2,0.3-0.4c0.1-0.1,0.3-0.2,0.4-0.3
				c-0.2,0-0.5,0.1-1.1,0.2c-0.5,0.1-0.9,0.2-1.1,0.2c0-0.3,0.8-0.7,2.4-1.2c1-0.3,1.5-0.5,1.5-0.7v-4.2c0.1,0,0.1-0.3,0.2-0.9
				c0-0.6,0-1,0-1.3c0-1.7,0.1-2.5,0.2-2.5L358.2,46.1z M357.9,25.9c0.1-0.1,0.1-0.3,0.1-0.6c-0.2,0.2-0.5,0.2-0.8,0.3
				c-0.3,0-0.6,0.1-0.9,0.2c-0.8,0.3-1.6,0.9-2.6,1.7c-0.8,0.6-1.5,1-2,1.3c-0.5,0.3-1.1,0.6-1.7,0.7l0.3,0.5
				c0.1-0.1,0.3-0.2,0.6-0.3c0.3-0.1,0.4-0.1,0.6-0.1l-1.1,1.2c0,0,0,0.1,0.1,0.2s0.1,0.1,0.1,0.1c1.1-0.4,2.4-1.2,3.9-2.5
				c1.5-1.3,2.3-2,2.3-2c0.2-0.1,0.4-0.2,0.7-0.3C357.7,26.1,357.9,26,357.9,25.9z M357.8,44.4c0-0.2,0-0.5-0.1-0.7
				c-0.1-0.2-0.2-0.5-0.2-0.8c0-0.3,0-0.5,0.1-0.7c0.1-0.2,0.1-0.4,0.1-0.5c0-0.3-0.1-0.6-0.1-1.1c-0.1-0.4-0.2-0.8-0.3-1
				c0,0.2-0.2,0.5-0.6,0.9c-0.3,0.3-0.6,0.6-0.8,0.8c-0.4,0-0.8,0.1-1.2,0.4c-0.4,0.2-0.8,0.6-1.4,1.2c-0.7,0.7-1.3,1.2-1.8,1.4v0.3
				c0.5,0,1-0.1,1.5-0.2c0.5-0.1,0.8-0.2,0.9-0.2c1-0.3,1.9-0.5,2.5-0.5c0,0.4-0.2,0.8-0.7,1.2c-0.5,0.4-1.3,0.9-2.3,1.5
				c-0.8,0.4-1.3,0.7-1.6,1l4.9-1.9c0.2,0.1,0.4,0.2,0.5,0.2C357.6,45.6,357.8,45.2,357.8,44.4z M357.4,39c0-1.3-0.1-3-0.4-5.1
				c-0.2-2.2-0.5-3.2-0.8-3.2c-0.4,0-1.1,0.4-2.1,1.1c-0.1,0.1-0.5,0.3-1,0.6c-0.6,0.3-1,0.6-1.4,0.6h0.7l3.3-1.1l0.2-0.1
				c0.2,0,0.4,0.1,0.5,0.2l-1.2,1.2c-0.2,0.1-0.5,0.3-1,0.6c-0.5,0.2-0.9,0.5-1.2,0.7c-0.3,0.2-0.5,0.5-0.5,0.7
				c0.3,0,0.9-0.1,1.7-0.3c0.8-0.2,1.4-0.4,1.8-0.4l0.1,0.6c0,0.2-0.1,0.3-0.2,0.5c-0.2,0.1-0.4,0.3-0.9,0.5
				c-0.4,0.2-0.7,0.3-0.7,0.5c-0.6,0.4-1.3,1.1-2.1,2.1l3.5-1.7c0.1,0,0.2,0,0.4,0.1c0.2,0.1,0.3,0.2,0.3,0.3c0,0.5-0.3,1-1,1.4
				c-0.6,0.4-1.5,1-2.7,1.6c-1,0.5-1.5,0.8-1.7,0.9c-0.5,0.4-0.8,1.4-0.8,3c0.2,0,1.1-0.6,2.5-1.7c1.4-1.1,2.3-1.8,2.5-2.1
				c-0.4,0-1.1,0.2-1.8,0.8V41c-0.4,0.5-1.2,0.9-2.4,1.2v-0.5c0.4,0,0.7-0.1,1.1-0.3c0.4-0.2,0.9-0.5,1.6-0.9c0.8-0.5,1.4-0.9,2-1.1
				C356.2,39.1,356.8,39,357.4,39z M356.1,29c-0.2,0-0.3-0.2-0.3-0.4c0-0.2,0-0.3,0.1-0.3c-1.4,1.2-2.9,2.1-4.5,2.8
				c0,0.1,0,0.1,0.1,0.2c0.1,0.1,0.1,0.1,0.1,0.1c0.1,0,0.3,0,0.4-0.1c0.2-0.1,0.3-0.1,0.5-0.1c0,0.2-0.1,0.3-0.3,0.4
				c-0.2,0.1-0.3,0.2-0.5,0.2c-0.2,0.1-0.3,0.1-0.4,0.1c-0.8,0.2-1.1,0.4-1.1,0.8c0,0.2,0.1,0.2,0.2,0.2l2.3-1.1
				c0.1,0,0.2-0.3,0.3-0.8l-0.1-0.4l0.8,0.2c0.2-0.1,0.7-0.4,1.2-0.9C355.6,29.6,356,29.3,356.1,29z M355.4,46.6l-2.3,1
				c-0.2,0-0.6,0.1-1.1,0.2c-0.5,0.1-0.9,0.2-1.2,0.4c-0.3,0.2-0.4,0.5-0.4,0.8v1.2c0,0.5,0,1,0.1,1.4c0.1,0.4,0.2,0.8,0.4,1.1
				c0.2-0.2,0.6-0.6,1.2-1c0.5-0.3,1-0.7,1.3-0.9c0.3-0.2,0.5-0.6,0.5-0.9c-0.1,0-0.3,0.1-0.7,0.2c-0.3,0.1-0.6,0.3-0.7,0.5
				c0-0.2-0.2-0.2-0.4-0.2c-0.2,0-0.3,0-0.5,0.1c-0.1,0-0.2,0.1-0.3,0.1c0-0.5,0.2-0.9,0.6-1.3c0.4-0.4,0.9-0.8,1.7-1.3
				C354.7,47.3,355.2,46.9,355.4,46.6z M355.9,25.1c-0.4,0-0.7,0-0.9,0.1c-0.3,0-0.5,0.1-0.6,0.1c-0.1,0-0.3,0-0.5-0.1h-2l-0.2,0.5
				c0.2,0,0.4,0,0.6-0.1c0.2-0.1,0.4-0.1,0.5-0.1c0.1,0,0.2,0.1,0.4,0.2c-0.2,0.2-0.4,0.3-0.7,0.5c-0.3,0.1-0.5,0.2-0.7,0.2L351,26
				c0,0.2-0.4,0.7-1.2,1.6c-0.9,0.9-1.5,1.3-1.9,1.3c0,0,0-0.1-0.1-0.2c0-0.1-0.1-0.1-0.1-0.2c0-0.1,0.1-0.3,0.3-0.5
				c0.2-0.2,0.3-0.4,0.4-0.5h-0.5c-0.3,0.3-0.8,0.6-1.4,1c-0.6,0.3-1,0.6-1.1,0.7c0,0-0.1,0-0.1,0.1c-0.1,0.1-0.1,0.1-0.1,0.1
				l1.4,0.1c1.1,0,2.2-0.2,3.4-0.6s1.8-0.9,1.8-1.5v-0.3c-0.2,0.2-0.5,0.3-0.9,0.3h-0.3c0.2-0.3,0.6-0.6,1.1-0.8
				c0.5-0.2,1-0.4,1.4-0.5c0.5-0.1,0.8-0.2,0.9-0.2c0.2,0,0.5-0.1,1-0.3C355.5,25.4,355.8,25.3,355.9,25.1z M355.2,34.9
				c-0.3,0.2-0.8,0.5-1.5,0.7c-0.6,0.2-1.2,0.3-1.6,0.3v-0.5c-0.2,0-0.6,0.2-1.1,0.6c-0.5,0.4-0.7,0.6-0.8,0.6l0.2,4.8
				c0.1-0.1,0.6-0.5,1.5-1.1c0.9-0.6,1.3-1.1,1.3-1.3c-0.3,0.1-0.7,0.2-1.2,0.5c-0.5,0.2-0.9,0.3-1.2,0.3c0,0-0.1-0.1-0.2-0.2
				c-0.1-0.1-0.1-0.1-0.1-0.2c0-0.1,0.2-0.3,0.5-0.6c0.3-0.3,0.6-0.5,0.7-0.7c0.2-0.1,0.8-0.5,1.8-1.3
				C354.7,35.9,355.2,35.3,355.2,34.9z M353.7,55.9c0.3-0.2,0.4-0.4,0.4-0.6c-0.4,0-0.9,0.1-1.4,0.2c-0.5,0.2-1,0.3-1.5,0.3v1.4
				c0.3-0.2,0.7-0.4,1.2-0.7C353,56.3,353.4,56.1,353.7,55.9z M353.6,52.9l-0.1-0.2c-0.5,0-1,0.2-1.7,0.4c-0.6,0.3-0.9,0.5-0.9,0.9
				c0,0.2,0,0.3,0.1,0.5c0,0.1,0.1,0.3,0.2,0.4c0.2-0.1,0.6-0.5,1.3-1C353.2,53.3,353.6,53,353.6,52.9z M353.2,33.9
				c0.4-0.4,0.8-0.7,1-0.9c-0.9,0-1.8,0.2-2.6,0.6c-0.9,0.4-1.3,1-1.3,1.7c0.6,0,1.1-0.1,1.5-0.5C352.3,34.6,352.7,34.3,353.2,33.9z
				 M353,45.4c0.4-0.4,0.9-0.7,1.4-0.9c-0.6,0-1.3,0.1-2.1,0.4c-1,0.2-1.6,0.4-2,0.4v2.5l0.4-0.2l1.1-1
				C352.2,46.2,352.6,45.8,353,45.4z M350.5,24.8c-0.2-0.1-0.4-0.1-0.8-0.1c-0.4,0-0.8,0.2-1.3,0.6c-0.5,0.4-0.9,0.6-1,0.8
				c0,0-0.2,0.2-0.6,0.7c-0.4,0.5-0.8,0.9-1.2,1.3v0.2c0.7-0.3,1.6-0.8,2.6-1.5C349.2,26.1,350,25.4,350.5,24.8z M347.2,24.8
				l-1.2-0.1c-0.9,0-1.8,0.3-2.7,0.9c-0.9,0.6-1.4,1.4-1.4,2.2c0.4,0,1.2-0.4,2.7-1.3C346.1,25.8,346.9,25.2,347.2,24.8z
				 M345.8,26.7l-3,1.7l-0.2,0c-0.3,0-0.7,0.3-1.2,1h2.4c0.2,0,0.5-0.3,0.9-0.9C345.1,27.8,345.5,27.2,345.8,26.7z M343.5,24.6
				c-0.2,0.1-0.4,0.1-0.5,0.1c-0.2,0-0.3,0-0.4-0.1c-0.1,0-0.2-0.1-0.3-0.1l-0.8,0.1c-0.1,0-0.3,0-0.4-0.1c-0.4,0-0.7,0.1-0.9,0.2
				c-0.2,0.1-0.3,0.3-0.3,0.7c0,0.4,0.1,0.8,0.3,1.2c0.2,0.6,0.2,1,0.2,1.3c-0.2,0.5-0.4,0.8-0.4,0.8h0.4c0.2,0,0.5-0.4,0.8-1.2
				c0.3-0.7,0.6-1.3,1-1.8C342.5,25.3,343,24.9,343.5,24.6z"/>
			<path d="M368.1,24.1c0.1,0.2,0.2,0.5,0.4,0.8c-0.2,0.1-0.3,0.2-0.5,0.4c-0.2,0-0.4,0-0.6,0c-0.1,0-0.1,0-0.2,0
				c-0.1-0.3-0.3-0.7-0.4-1.1H368.1C368.1,24.1,368.1,24.1,368.1,24.1z"/>
			<path d="M368.1,24.1C368.1,24.1,368.1,24.1,368.1,24.1h-1.4c0,0,0,0,0-0.1c-0.4-0.9-0.7-1.6-0.9-2.1c-0.2-0.5-0.5-0.8-0.9-1
				c-0.5,0.8-0.6,1.5-0.5,1.9l-0.4-0.2l-0.2-2c-0.1,0.1-0.2,0.4-0.4,0.9c-0.2,0.4-0.3,0.8-0.3,1.1l-0.3,0.1c0.1,0.2,0.1,0.4,0.1,0.6
				c0,0.2,0,0.4-0.1,0.6c0,0,0,0,0,0.1h-0.7c0.1-0.3,0.2-0.6,0.4-1c0.5-1.3,0.8-2.2,1-2.9c0.2-0.7,0.2-1.1,0-1.4
				c-0.1-0.2-0.3-0.6-0.6-1.1c-0.5-1-0.9-1.9-1.3-2.5c-0.4-0.6-0.9-1.1-1.4-1.4c0,0.5,0,1.2-0.1,2.2c-0.1,0.6-0.2,1.3-0.2,2l-0.4,0
				c0.1-0.6,0.1-1.1,0-1.7c0-0.6-0.1-0.9-0.3-1c-0.1,0.2-0.2,0.4-0.2,0.7c0,0.3-0.1,0.5-0.1,0.6c0,0,0-0.3,0-1
				c0-0.6,0.1-1.3,0.2-1.9c0,0,0.1-0.1,0.2-0.1c0.1,0,0.2,0,0.3-0.1c0.3-0.5,0.3-1,0.1-1.5c-0.2-0.5-0.6-0.9-1-1.1l-0.3,1.5
				c-0.3,1.3-0.4,2.2-0.4,2.8c-0.2-0.1-0.2-0.4-0.2-0.9c0-0.5,0.1-1.2,0.2-2.1c0-0.1,0-0.5,0.1-1.1c0-0.7,0-1-0.1-1.2
				c-0.8,3.4-1.3,6-1.4,7.6c-0.1,0.1-0.1,0.3-0.2,0.6c-0.1,0.3-0.1,0.6-0.2,0.7c-0.2-0.2-0.4-0.4-0.6-0.8c-0.2-0.4-0.3-0.7-0.3-1.1
				l-0.3,0.9l2.1,3l0.2,0.1c-0.2-1.9,0-3.6,0.4-5.3l0.2,0.1c-0.1,0.4-0.1,0.9,0,1.6c0,0.9,0,1.7-0.1,2.2l0.2-0.2
				c0.1-0.2,0.3-0.6,0.5-1.2c0.1-0.5,0.2-0.9,0.4-1.3c0,1.9-0.3,3.2-0.8,4c0,0.1-0.1,0.1-0.2,0.2c-0.1,0.1-0.2,0.1-0.3,0.1
				c-0.2,0.3,0,0.7,0.5,1.3s0.8,0.9,0.9,1c0-0.3,0.1-0.6,0.1-0.8c0-0.2,0-0.5,0-0.7c0-0.9,0.1-1.6,0.1-2.1c0.1-0.5,0.2-1,0.5-1.4
				c0.1,0.1,0.2,0.4,0.1,0.9c0,0.5,0,0.8,0,1c-0.2,0.9-0.2,1.6-0.1,1.9c0-0.4,0.1-0.6,0.1-0.7c0.1-0.1,0.3-0.3,0.6-0.5
				c0.1,0.3-0.1,0.8-0.3,1.6c-0.1,0.5-0.2,0.9-0.3,1.2h-2.2c-0.1,0-0.1,0-0.2-0.1c-0.1-0.1-0.2-0.2-0.3-0.4c0.1-0.2-0.6-1.3-2.1-3.4
				c-1.1-1.5-1.7-2.5-1.9-2.9c-0.2-0.5-0.3-0.8-0.4-0.8s-0.1-0.1-0.2-0.1c-0.1,0-0.3-0.1-0.5-0.2l-1.3,1.9c-0.2,0.3-0.6,0.9-1,1.6
				c-0.5,0.8-1.1,2-1.9,3.5c-0.4,0-0.7,0-1.1,0c0.1-0.2,0.2-0.4,0.3-0.6c0.5-1.1,0.8-1.8,0.9-2.1c0.1-0.2,0-0.6-0.1-1.1
				c-0.1-0.5-0.1-0.9,0-1.1l-0.8-3.6l-0.6,5.9c0.2,0.4,0.2,0.9,0,1.5c-0.1,0.4-0.2,0.7-0.4,1c-0.2,0-0.4,0-0.7,0
				c0-0.1-0.1-0.1-0.1-0.2c-0.1-0.4-0.1-0.7-0.1-0.9l0.2,0.1l-0.9-4.1c0,0-0.1,0.5-0.2,1.3c-0.2,1.5-0.4,2.7-0.5,3.7
				c-0.4-0.1-0.7-0.1-1-0.2c-0.1-1-0.3-1.6-0.4-1.7c-0.5,0.4-0.9,0.8-1.3,1.4c0,0.1-0.1,0.2-0.1,0.3c-0.7,0-1.3,0.1-1.7,0.2
				c0.1-0.1,0.1-0.1,0.2-0.2c0.2-0.2,0.4-0.3,0.4-0.4c0.8-1.3,1.4-2.5,2-3.7c0.9-1.6,1.6-2.8,2.1-3.6c1-1.6,2.5-3.9,4.6-7
				c2-3,3.5-5.4,4.5-7c0.1-0.1,0.1-0.2,0.1-0.4c0-0.2,0-0.3,0.1-0.5c0.2-0.3,0.5-0.4,0.8-0.1c0,0.1,0.7,1.3,2.1,3.7
				c1.5,2.5,2.4,3.9,2.6,4l6.2,10.9c0,0.1,0.2,0.3,0.3,0.7c0.2,0.4,0.4,0.6,0.5,0.7C366.4,20.5,367,21.8,368.1,24.1z M357.9,9.5
				c0.1,0,0.2-0.1,0.2-0.1c-0.4-0.7-0.7-1.2-1.1-1.6c-0.3-0.4-0.7-0.8-1.1-1.1l0.3,4.4l-0.5-0.3c0,0.1,0,0.2,0.1,0.4
				c0.1,0.2,0.2,0.3,0.3,0.3c-0.5,2.1-0.5,3.9,0.1,5.3c0.3-0.5,0.5-1,0.6-1.5s0.2-1.2,0.2-2.1c0-0.8,0.1-1.4,0.2-2
				c0.1-0.6,0.3-1.1,0.6-1.5C357.8,9.6,357.9,9.6,357.9,9.5z M355.8,9c0-0.4,0-1.2-0.1-2.2c-0.1-1.1-0.2-1.7-0.4-1.8
				c-0.2-0.1-0.3-0.1-0.4,0c0.1,0.8,0.1,1.7,0.1,3c0,1.6,0.1,2.4,0.1,2.7c-0.1,0.1-0.1,0.2-0.2,0.2s-0.1,0.1-0.2,0.1
				c0.2,0.2,0.4,0.5,0.4,0.9c0.1,0.4,0.1,0.7,0.1,0.8l0.2-0.2c0.2-0.3,0.2-0.8,0.1-1.5c-0.1-0.7-0.2-1.2-0.4-1.7L355.8,9z
				 M354.8,17.3c0-1.3-0.1-2.5-0.2-3.5c-0.1-1.1-0.1-2-0.1-2.9c-0.2-2.2-0.3-4.3-0.4-6.4c-0.1-0.1-0.2-0.1-0.3,0
				c-0.1,0.1-0.1,0.5-0.1,1.1c0,0.7-0.1,1.4-0.3,2.3c0.1,0.1,0.1,0.6,0.1,1.6s-0.1,1.7-0.1,1.9c-0.1,2-0.1,3.1-0.1,3.3l0.3-0.1
				c-0.2,0.5-0.2,1,0,1.4C353.9,16.6,354.2,17,354.8,17.3z M352.9,8.1c0.1-2.6,0.2-3.9,0.2-3.9c-0.4,0.6-0.6,1.2-0.7,1.8
				c-0.1,0.5,0,1.1,0.1,1.8c0.1,0.6,0.1,1,0.1,1.3c0,0.3-0.1,0.7-0.4,1.1c-0.2-0.2-0.3-0.4-0.4-0.7s-0.1-0.7-0.1-1.3
				c0-0.7-0.1-1.3-0.2-1.5c-0.2,0.3-0.3,0.9-0.2,1.8L351,8.7c0.1,0.3,0.1,0.5,0,0.6c-0.2-0.1-0.4-0.3-0.3-0.4c0-0.1,0-0.3-0.1-0.5
				c-0.2,0.3-0.4,0.9-0.5,1.6c-0.1,0.7-0.2,1.4-0.1,2.1c0.1,0.7,0.3,1.1,0.7,1.4c0.1,0,0.1,0.1,0.1,0.3c0,0.2,0,0.3,0.1,0.4
				c-0.2-0.1-0.3-0.2-0.5-0.4c-0.2-0.2-0.3-0.4-0.5-0.7c-0.3-0.6-0.5-1-0.6-1.4l-0.2,0.2c-0.3,0.4-0.4,1.3-0.3,2.5
				c0.1,0.4,0.1,1,0,1.8c0,0.9-0.1,1.5-0.1,1.9s0.1,0.7,0.3,0.8l1.1-1.8c-0.1-0.2-0.1-0.6-0.2-1.1c0-0.5-0.1-0.9,0-1.2
				c0,0,0.1,0,0.1,0c0.1,0,0.1,0,0.2,0c-0.1-0.1-0.2-0.3-0.2-0.5c0-0.2,0-0.4,0-0.6c0.1,0.1,0.2,0.1,0.3,0.2
				c0.2,0.2,0.3,0.4,0.5,0.7c0.2,0.4,0.2,0.9,0.1,1.2l0.3,0.2c0.4-0.6,0.6-1.2,0.6-1.8c0.1-0.6,0.1-1.3,0-2.1
				c-0.1-0.8,0-1.4,0.1-1.7c0.2,0.2,0.3,0.4,0.4,0.6c0,0.2,0,0.6,0,1.2c0,0.5,0,0.9,0,1.2c0.1,0.3,0.2,0.6,0.4,0.7
				C352.6,13.7,352.7,11.7,352.9,8.1z M348.6,11.3l-0.9,1.4l0.6,3.6l0.1-1.8C348.3,13.2,348.4,12.2,348.6,11.3z M346.5,18
				c0-1.5,0.1-2.7,0.3-3.7c-0.2,0.2-0.5,0.5-0.8,1.1c-0.1,0.2-0.2,0.4-0.3,0.6c-0.1,0.2-0.2,0.4-0.2,0.5c0,0.2,0,0.7,0,1.5
				c0,0.8,0.1,1.5,0.2,2.3c0.1,0.8,0.3,1.2,0.5,1.4C346.3,20.8,346.4,19.6,346.5,18z M344.1,18.7l-0.9,1.4c0.1,0.1,0.2,0.3,0.4,0.6
				c0.1,0.3,0.2,0.5,0.3,0.6c0.2-0.3,0.2-0.7,0.1-1.2C343.9,19.5,343.9,19.1,344.1,18.7z"/>
			<path class="st1" d="M367.5,27.4v1.9l-3.4-0.2c0.5-0.2,1.1-0.4,1.9-0.7C366.7,28,367.3,27.7,367.5,27.4z"/>
			<path class="st1" d="M367.4,25.3v1.3c-0.3,0.2-1,0.6-1.9,1.1c-1,0.5-2,1-3,1.5c0.3-0.5,0.9-1,1.7-1.5c0.8-0.5,1.5-0.9,2-1.1
				c0,0-0.1-0.1-0.1-0.2c0-0.2,0.2-0.5,0.5-0.7C366.9,25.5,367.2,25.3,367.4,25.3z"/>
			<path class="st1" d="M366.8,24C366.8,24.1,366.8,24.1,366.8,24l-0.5,0.1c0-0.2,0-0.3-0.1-0.5c0,0-0.1,0-0.2,0c-0.1,0-0.2,0-0.2,0
				c-0.1,0.1-0.1,0.3-0.2,0.5H363c0,0,0,0,0-0.1c0.1-0.2,0.2-0.4,0.1-0.6c0-0.2-0.1-0.5-0.1-0.6l0.3-0.1c0-0.3,0.1-0.7,0.3-1.1
				c0.2-0.5,0.3-0.7,0.4-0.9l0.2,2l0.4,0.2c-0.2-0.5,0-1.1,0.5-1.9c0.4,0.2,0.7,0.6,0.9,1C366.1,22.4,366.4,23.1,366.8,24z"/>
			<path d="M366.3,25.1c0,0.1,0,0.2,0,0.3c-0.2,0.1-0.3,0.1-0.4,0.2c0-0.1,0-0.1-0.1-0.2c0-0.3,0-0.6,0.1-0.9l-0.4,0.6l-0.3-0.2
				c0.1-0.2,0.2-0.4,0.3-0.7c0-0.1,0-0.1,0.1-0.2h0.7C366.3,24.4,366.3,24.8,366.3,25.1z"/>
			<path d="M366.2,23.6c0,0.2,0.1,0.3,0.1,0.5h-0.7c0.1-0.2,0.1-0.4,0.2-0.5c0.1,0,0.1,0,0.2,0C366.1,23.6,366.2,23.6,366.2,23.6z"
				/>
			<path class="st1" d="M363.6,25.3c0.3-0.1,0.8-0.1,1.5-0.1c0,0.3-0.7,0.8-2.2,1.5c-0.5,0.2-0.9,0.5-1.4,0.7
				c-0.5,0.3-0.8,0.5-0.9,0.7v-0.2l-1.8,1.4h-0.3c0.2-0.2,1-1,2.6-2.2C362.7,25.9,363.5,25.3,363.6,25.3z"/>
			<path class="st1" d="M363.7,18.9c0.2,0.2,0.2,0.7,0,1.4c-0.2,0.7-0.5,1.6-1,2.9c-0.1,0.3-0.2,0.7-0.4,1h-0.8
				c0.1-1,0.1-2.1,0.2-3.2c0.2-2.5,0.3-3.8,0.2-4c-0.2,0-0.3,0-0.5,0.1c-0.1,0.1-0.2,0.2-0.3,0.2c-0.1,0.2-0.2,0.5-0.3,0.8
				c0,0.4,0,0.6,0.1,0.8c0.1-0.1,0.1-0.2,0.3-0.3c0.1-0.1,0.2-0.2,0.3-0.2c0,2.3-0.1,4.2-0.3,5.8H360c0-0.4,0.1-0.8,0.3-1.2
				c0.3-0.7,0.4-1.2,0.3-1.6c-0.3,0.2-0.5,0.4-0.6,0.5c-0.1,0.1-0.1,0.3-0.1,0.7c-0.1-0.4-0.1-1,0.1-1.9c0-0.1,0-0.5,0-1
				c0-0.5,0-0.8-0.1-0.9c-0.2,0.4-0.4,0.8-0.5,1.4c-0.1,0.5-0.1,1.2-0.1,2.1c0,0.2,0,0.5,0,0.7c0,0.2,0,0.5-0.1,0.8
				c-0.1-0.1-0.3-0.4-0.9-1s-0.7-1-0.5-1.3c0.1,0,0.2-0.1,0.3-0.1c0.1-0.1,0.2-0.1,0.2-0.2c0.5-0.8,0.8-2.1,0.8-4
				c-0.2,0.3-0.4,0.8-0.4,1.3c-0.2,0.6-0.3,1-0.5,1.2l-0.2,0.2c0.1-0.5,0.1-1.3,0.1-2.2c-0.1-0.6-0.1-1.2,0-1.6l-0.2-0.1
				c-0.5,1.7-0.6,3.4-0.4,5.3l-0.2-0.1l-2.1-3l0.3-0.9c0,0.3,0.1,0.7,0.3,1.1c0.2,0.4,0.4,0.6,0.6,0.8c0.1-0.1,0.2-0.4,0.2-0.7
				c0.1-0.3,0.1-0.5,0.2-0.6c0.1-1.6,0.6-4.2,1.4-7.6c0.1,0.1,0.1,0.5,0.1,1.2c0,0.6-0.1,1-0.1,1.1c-0.1,0.9-0.2,1.6-0.2,2.1
				c0,0.5,0.1,0.8,0.2,0.9c-0.1-0.6,0-1.5,0.4-2.8l0.3-1.5c0.4,0.2,0.7,0.6,1,1.1c0.2,0.5,0.2,1-0.1,1.5c-0.1,0.1-0.1,0.1-0.3,0.1
				c-0.1,0-0.2,0-0.2,0.1c-0.1,0.7-0.2,1.3-0.2,1.9c0,0.6,0,1,0,1c0-0.1,0.1-0.3,0.1-0.6c0.1-0.3,0.1-0.6,0.2-0.7
				c0.2,0.1,0.3,0.4,0.3,1c0,0.6,0,1.1,0,1.7l0.4,0c0-0.7,0-1.4,0.2-2c0.1-0.9,0.2-1.7,0.1-2.2c0.5,0.3,1,0.8,1.4,1.4
				c0.4,0.6,0.8,1.4,1.3,2.5C363.4,18.3,363.6,18.6,363.7,18.9z"/>
			<path d="M362.3,24.1h0.7c-0.1,0.1-0.2,0.1-0.3,0.1c0,0.1-0.1,0.3-0.2,0.6c-0.1,0-0.3-0.1-0.4-0.1
				C362.1,24.5,362.2,24.3,362.3,24.1z"/>
			<path class="st1" d="M363.9,27.1c-0.4,0.6-1,1.1-1.8,1.6c-0.7,0.5-1.4,0.7-2,0.7c-0.1,0-0.2,0-0.2-0.1c-0.1,0-0.1-0.1-0.2-0.1
				c0.1-0.1,0.5-0.3,1.3-0.7C362.5,27.6,363.4,27.1,363.9,27.1z"/>
			<path class="st1" d="M362,25.1v0.2l-4.8,2.8c0-0.4,0.3-0.8,0.8-1.2c0-0.1,0.2-0.2,0.4-0.5c0.2-0.2,0.4-0.5,0.4-0.8l-0.1-0.3
				L362,25.1z"/>
			<path d="M361.9,16.9c0.1,0.2,0,1.5-0.2,4c-0.1,1.1-0.2,2.2-0.2,3.2h-0.2c0.2-1.5,0.3-3.5,0.3-5.8c-0.1,0-0.2,0.1-0.3,0.2
				c-0.1,0.1-0.2,0.2-0.3,0.3c-0.1-0.1-0.1-0.4-0.1-0.8c0.1-0.4,0.1-0.6,0.3-0.8c0-0.1,0.1-0.1,0.3-0.2
				C361.6,16.9,361.8,16.9,361.9,16.9z"/>
			<path d="M361.5,24.1c0,0.1,0,0.3,0,0.4c0,0.1,0,0.1,0,0.1c-0.1,0-0.2,0-0.3,0c0-0.2,0-0.4,0.1-0.6H361.5z"/>
			<path d="M357.7,24.1h2.2c0,0.2,0,0.4,0,0.6c-0.3-0.1-0.6-0.1-0.9-0.1c-0.3,0-0.6,0-0.9,0.1c-0.2-0.2-0.4-0.5-0.6-0.7
				C357.6,24.1,357.7,24.1,357.7,24.1z"/>
			<path class="st1" d="M357.7,45.7l0.5,0.5l-0.2,0.2c-0.2,0-0.2,0.8-0.2,2.5c0,0.2,0,0.7,0,1.3c0,0.6-0.1,0.9-0.2,0.9v4.2
				c0,0.1-0.5,0.3-1.5,0.7c-1.6,0.5-2.4,0.9-2.4,1.2c0.2,0,0.6-0.1,1.1-0.2c0.5-0.1,0.9-0.2,1.1-0.2c-0.1,0.1-0.2,0.2-0.4,0.3
				c-0.1,0.1-0.2,0.3-0.3,0.4c0.1,0.1,0.1,0.2,0.2,0.3c0,0.1,0.1,0.2,0.2,0.3c0.1,0.1,0.2,0.1,0.5,0.1c0.4,0,0.6-0.1,0.7-0.2
				c0.1-0.1,0.1-0.3,0.1-0.5c0-0.2,0.1-0.3,0.3-0.3c0.1,0,0.2,0,0.4,0.1c0.1,0,0.2,0.1,0.2,0.2c-0.1,0.1-0.2,0.1-0.2,0.2
				c0,0.2,0.1,0.5,0.2,1c0.2,0.4,0.2,0.8,0.2,1c-0.4,0-1-0.1-1.8-0.3s-1.5-0.3-2.2-0.5c0.2,0,0.3,0,0.5-0.1c0.2-0.1,0.3-0.2,0.4-0.3
				c0-0.2-0.2-0.3-0.5-0.3c-0.4,0-0.7,0.1-0.8,0.2c-0.1,0.1-0.3,0.3-0.5,0.6c-0.1,0.2-0.2,0.4-0.4,0.5c-0.1,0.1-0.3,0.2-0.6,0.2
				c-0.2,0-0.4-0.1-0.5-0.2c0-0.1-0.1-0.2-0.1-0.4c0-0.2,0.1-0.3,0.3-0.5s0.3-0.4,0.3-0.5c0-0.3-0.1-0.4-0.3-0.5
				c0,0,0.4-0.2,1.2-0.7c1.1-0.6,1.9-1,2.4-1.4c0.5-0.3,0.8-0.6,0.8-0.9c0-0.1-0.1-0.2-0.3-0.4s-0.3-0.2-0.5-0.2
				c-0.1,0.1-0.3,0.2-0.4,0.4c-0.2,0.2-0.2,0.3-0.2,0.3c0,0,0-0.1-0.1-0.1c-0.1-0.1-0.1-0.1-0.2-0.1c-0.3,0-0.8,0.1-1.3,0.4
				c-0.6,0.2-1.1,0.4-1.5,0.4c0.3-0.2,0.6-0.4,1.1-0.7c0.5-0.3,0.8-0.5,1.1-0.7c1.9-1,2.9-1.7,2.9-2.1c0-0.2,0-0.4-0.1-0.4
				c-0.1,0-0.2-0.1-0.4-0.1c-0.4,0-0.9,0.1-1.4,0.3c-0.5,0.2-1,0.4-1.6,0.7c-0.6,0.3-1,0.5-1.2,0.6c0-0.2,0.5-0.6,1.5-1.2
				c0.9-0.6,1.5-1,2-1.4c0.5-0.4,0.7-0.8,0.8-1.2c-0.6,0-1.2,0.1-2,0.4c-0.6,0.2-1.2,0.4-1.7,0.4v-0.2c0.5-0.3,1-0.6,1.5-1
				c0.5-0.3,0.8-0.5,0.9-0.7c0.2-0.2,0.5-0.4,0.9-0.6c0.4-0.2,0.7-0.4,1-0.7C357.4,46.3,357.6,46,357.7,45.7z"/>
			<path class="st1" d="M358.2,9.4c-0.1,0-0.1,0.1-0.2,0.1c-0.1,0-0.1,0-0.2,0.1c-0.3,0.4-0.4,0.9-0.6,1.5c-0.1,0.6-0.2,1.2-0.2,2
				c0,0.9-0.1,1.6-0.2,2.1s-0.3,1.1-0.6,1.5c-0.5-1.4-0.6-3.1-0.1-5.3c-0.1-0.1-0.2-0.2-0.3-0.3c-0.1-0.2-0.1-0.3-0.1-0.4l0.5,0.3
				L356,6.7c0.4,0.3,0.8,0.7,1.1,1.1C357.4,8.2,357.8,8.8,358.2,9.4z"/>
			<path class="st1" d="M358,25.3c0,0.3,0,0.5-0.1,0.6c-0.1,0.1-0.2,0.2-0.5,0.3c-0.3,0.1-0.5,0.2-0.7,0.3c-0.1,0-0.9,0.7-2.3,2
				c-1.5,1.3-2.8,2.1-3.9,2.5c0,0-0.1,0-0.1-0.1s-0.1-0.1-0.1-0.2l1.1-1.2c-0.1,0-0.3,0-0.6,0.1c-0.3,0.1-0.4,0.2-0.6,0.3l-0.3-0.5
				c0.6-0.1,1.2-0.4,1.7-0.7c0.6-0.3,1.2-0.8,2-1.3c1-0.8,1.9-1.3,2.6-1.7c0.3-0.1,0.6-0.2,0.9-0.2C357.5,25.5,357.8,25.4,358,25.3z
				"/>
			<path class="st1" d="M357.7,43.6c0.1,0.2,0.1,0.5,0.1,0.7c0,0.8-0.2,1.2-0.6,1.2c-0.1,0-0.3-0.1-0.5-0.2l-4.9,1.9
				c0.3-0.3,0.9-0.6,1.6-1c1-0.6,1.8-1.1,2.3-1.5c0.5-0.4,0.7-0.8,0.7-1.2c-0.6,0-1.5,0.2-2.5,0.5c-0.1,0-0.4,0.1-0.9,0.2
				c-0.5,0.1-1,0.2-1.5,0.2v-0.3c0.5-0.2,1.1-0.7,1.8-1.4c0.6-0.5,1.1-1,1.4-1.2c0.3-0.2,0.8-0.4,1.2-0.4c0.2-0.2,0.5-0.4,0.8-0.8
				c0.3-0.4,0.5-0.7,0.6-0.9c0.1,0.2,0.2,0.6,0.3,1c0.1,0.4,0.1,0.8,0.1,1.1c0,0.1,0,0.3-0.1,0.5c-0.1,0.2-0.1,0.4-0.1,0.7
				C357.5,43.2,357.6,43.4,357.7,43.6z"/>
			<path class="st1" d="M357,33.9c0.2,2.2,0.4,3.9,0.4,5.1c-0.6,0-1.2,0.1-1.7,0.4c-0.6,0.2-1.2,0.6-2,1.1c-0.7,0.4-1.2,0.7-1.6,0.9
				c-0.4,0.2-0.8,0.3-1.1,0.3v0.5c1.2-0.3,2-0.7,2.4-1.2v0.3c0.8-0.5,1.4-0.8,1.8-0.8c-0.2,0.3-1,1-2.5,2.1
				c-1.4,1.1-2.3,1.7-2.5,1.7c0-1.6,0.3-2.6,0.8-3c0.2-0.2,0.8-0.5,1.7-0.9c1.2-0.6,2.1-1.1,2.7-1.6c0.6-0.4,1-0.9,1-1.4
				c0-0.1-0.1-0.2-0.3-0.3c-0.2-0.1-0.3-0.1-0.4-0.1l-3.5,1.7c0.9-1.1,1.6-1.8,2.1-2.1c0.1-0.2,0.3-0.3,0.7-0.5
				c0.4-0.2,0.7-0.3,0.9-0.5c0.2-0.1,0.2-0.3,0.2-0.5l-0.1-0.6c-0.4,0-1,0.1-1.8,0.4c-0.9,0.2-1.5,0.3-1.7,0.3
				c0-0.2,0.1-0.4,0.5-0.7c0.3-0.2,0.7-0.5,1.2-0.7c0.5-0.2,0.8-0.4,1-0.6l1.2-1.2c-0.1-0.2-0.2-0.2-0.5-0.2l-0.2,0.1l-3.3,1.1h-0.7
				c0.4-0.1,0.8-0.3,1.4-0.6c0.6-0.3,0.9-0.5,1-0.6c1.1-0.8,1.8-1.1,2.1-1.1C356.5,30.6,356.8,31.7,357,33.9z"/>
			<path class="st0" d="M355.8,28.6c0,0.2,0.1,0.4,0.3,0.4c-0.2,0.2-0.5,0.6-1.1,1c-0.6,0.5-1,0.7-1.2,0.9l-0.8-0.2l0.1,0.4
				c-0.1,0.5-0.2,0.8-0.3,0.8l-2.3,1.1c-0.1,0-0.2-0.1-0.2-0.2c0-0.4,0.4-0.7,1.1-0.8c0.1,0,0.2-0.1,0.4-0.1
				c0.2-0.1,0.4-0.1,0.5-0.2c0.2-0.1,0.3-0.2,0.3-0.4c-0.2,0-0.4,0-0.5,0.1c-0.2,0.1-0.3,0.1-0.4,0.1c0,0-0.1,0-0.1-0.1
				c-0.1-0.1-0.1-0.1-0.1-0.2c1.6-0.7,3.1-1.6,4.5-2.8C355.9,28.4,355.8,28.5,355.8,28.6z"/>
			<path class="st1" d="M355.6,6.7c0.1,1.1,0.2,1.8,0.1,2.2l-0.7,0.3c0.2,0.4,0.3,1,0.4,1.7c0.1,0.7,0.1,1.2-0.1,1.5l-0.2,0.2
				c0-0.1-0.1-0.3-0.1-0.8c-0.1-0.4-0.2-0.8-0.4-0.9c0,0,0.1-0.1,0.2-0.1s0.2-0.1,0.2-0.2c0-0.2,0-1.1-0.1-2.7c0.1-1.2,0-2.2-0.1-3
				c0.1-0.1,0.2-0.1,0.4,0C355.4,5,355.5,5.6,355.6,6.7z"/>
			<path class="st0" d="M353.1,47.6l2.3-1c-0.2,0.2-0.8,0.7-1.7,1.3c-0.7,0.5-1.3,0.9-1.7,1.3c-0.4,0.4-0.6,0.8-0.6,1.3
				c0,0,0.1,0,0.3-0.1c0.1,0,0.3-0.1,0.5-0.1c0.2,0,0.4,0.1,0.4,0.2c0.1-0.2,0.3-0.4,0.7-0.5c0.3-0.1,0.6-0.2,0.7-0.2
				c0,0.4-0.2,0.7-0.5,0.9c-0.3,0.3-0.7,0.6-1.3,0.9c-0.6,0.4-1.1,0.7-1.2,1c-0.2-0.4-0.3-0.7-0.4-1.1c-0.1-0.4-0.1-0.9-0.1-1.4
				v-1.2c0-0.4,0.1-0.6,0.4-0.8c0.3-0.2,0.7-0.3,1.2-0.4C352.5,47.7,352.9,47.6,353.1,47.6z"/>
			<path class="st0" d="M355,25.1c0.3,0,0.6-0.1,0.9-0.1c-0.1,0.2-0.4,0.4-1,0.5c-0.5,0.2-0.9,0.3-1,0.3c-0.1,0-0.4,0.1-0.9,0.2
				c-0.5,0.1-1,0.3-1.4,0.5c-0.5,0.2-0.8,0.5-1.1,0.8h0.3c0.4,0,0.7-0.1,0.9-0.3v0.3c0,0.6-0.6,1-1.8,1.5s-2.3,0.6-3.4,0.6l-1.4-0.1
				c0,0,0.1,0,0.1-0.1c0.1,0,0.1-0.1,0.1-0.1c0.1-0.1,0.5-0.4,1.1-0.7c0.6-0.3,1.1-0.7,1.4-1h0.5c-0.1,0.1-0.3,0.2-0.4,0.5
				c-0.2,0.2-0.3,0.4-0.3,0.5c0,0.1,0,0.1,0.1,0.2c0,0.1,0.1,0.1,0.1,0.2c0.4,0,1-0.5,1.9-1.3c0.9-0.9,1.3-1.4,1.2-1.6l0.7,0.2
				c0.2,0,0.4-0.1,0.7-0.2c0.3-0.1,0.5-0.3,0.7-0.5c-0.2-0.2-0.3-0.2-0.4-0.2c-0.1,0-0.3,0-0.5,0.1c-0.2,0.1-0.4,0.1-0.6,0.1
				l0.2-0.5h2c0.2,0.1,0.4,0.1,0.5,0.1C354.5,25.2,354.7,25.2,355,25.1z"/>
			<path class="st1" d="M354.6,13.8c0.1,1.1,0.1,2.2,0.2,3.5c-0.5-0.3-0.9-0.7-1.1-1.2c-0.2-0.5-0.2-1,0-1.4l-0.3,0.1
				c-0.1-0.2,0-1.3,0.1-3.3c0-0.2,0-0.9,0.1-1.9s0-1.6-0.1-1.6c0.2-0.8,0.3-1.6,0.3-2.3c0-0.7,0.1-1,0.1-1.1c0.1-0.1,0.2-0.1,0.3,0
				c0.1,2.1,0.2,4.2,0.4,6.4C354.5,11.8,354.5,12.7,354.6,13.8z"/>
			<path class="st0" d="M353.7,35.5c0.7-0.2,1.1-0.4,1.5-0.7c0,0.4-0.5,1-1.5,1.8c-1,0.8-1.6,1.2-1.8,1.3c-0.1,0.2-0.3,0.4-0.7,0.7
				c-0.3,0.3-0.5,0.5-0.5,0.6c0,0,0.1,0.1,0.1,0.2c0.1,0.1,0.1,0.1,0.2,0.2c0.3,0,0.7-0.1,1.2-0.3c0.5-0.2,0.9-0.4,1.2-0.5
				c0,0.3-0.5,0.7-1.3,1.3c-0.9,0.6-1.4,1-1.5,1.1l-0.2-4.8c0,0,0.3-0.2,0.8-0.6c0.5-0.4,0.8-0.6,1.1-0.6v0.5
				C352.6,35.8,353.1,35.7,353.7,35.5z"/>
			<path class="st0" d="M354.1,55.3c0,0.2-0.1,0.4-0.4,0.6c-0.3,0.2-0.7,0.4-1.2,0.7c-0.5,0.2-0.9,0.5-1.2,0.7v-1.4
				c0.5,0,1-0.1,1.5-0.3C353.2,55.4,353.7,55.3,354.1,55.3z"/>
			<path class="st0" d="M353.5,52.7l0.1,0.2c0,0.2-0.4,0.5-1.1,1c-0.7,0.5-1.1,0.8-1.3,1c-0.1-0.1-0.2-0.2-0.2-0.4
				c0-0.1-0.1-0.3-0.1-0.5c0-0.3,0.3-0.6,0.9-0.9C352.5,52.9,353,52.7,353.5,52.7z"/>
			<path class="st0" d="M354.2,33c-0.2,0.2-0.6,0.5-1,0.9s-0.9,0.7-1.4,1c-0.5,0.3-1,0.5-1.5,0.5c0-0.8,0.4-1.3,1.3-1.7
				C352.4,33.2,353.3,33,354.2,33z"/>
			<path class="st0" d="M354.5,44.5c-0.5,0.2-1,0.5-1.4,0.9c-0.4,0.3-0.9,0.7-1.2,1.1l-1.1,1l-0.4,0.2v-2.5c0.4,0,1.1-0.1,2-0.4
				C353.2,44.7,353.9,44.5,354.5,44.5z"/>
			<path class="st0" d="M353.1,4.2c0,0.1,0,1.4-0.2,3.9c-0.2,3.6-0.3,5.6-0.3,5.9c-0.2-0.2-0.4-0.4-0.4-0.7c0-0.3,0-0.7,0-1.2
				c0-0.6,0-0.9,0-1.2c0-0.2-0.1-0.5-0.4-0.6c-0.2,0.3-0.2,0.8-0.1,1.7c0,0.9,0,1.6,0,2.1c-0.1,0.6-0.3,1.2-0.6,1.8l-0.3-0.2
				c0.2-0.4,0.2-0.8-0.1-1.2c-0.1-0.3-0.3-0.5-0.5-0.7l0.1-0.1c0.2,0.2,0.3,0.3,0.5,0.4c0-0.1,0-0.2-0.1-0.4c0-0.2-0.1-0.3-0.1-0.3
				c-0.4-0.2-0.7-0.7-0.7-1.4c-0.1-0.7-0.1-1.4,0.1-2.1c0.1-0.7,0.3-1.2,0.5-1.6c0.1,0.2,0.2,0.4,0.1,0.5c0,0.1,0.1,0.3,0.3,0.4
				c0.1-0.1,0-0.3,0-0.6l0.3-0.2c0-0.9,0.1-1.5,0.2-1.8c0.1,0.3,0.2,0.8,0.2,1.5c0,0.6,0,1,0.1,1.3s0.2,0.5,0.4,0.7
				c0.2-0.4,0.4-0.7,0.4-1.1c0-0.3,0-0.8-0.1-1.3c-0.1-0.7-0.1-1.3-0.1-1.8C352.5,5.4,352.7,4.8,353.1,4.2z"/>
			<path class="st0" d="M350.3,13.6L350.3,13.6c-0.2,0-0.3-0.1-0.4-0.2c-0.1,0.2-0.1,0.4,0,0.6c0,0.2,0.1,0.4,0.2,0.5
				c0,0-0.1,0-0.2,0c-0.1,0-0.1,0-0.1,0c0,0.3,0,0.7,0,1.2c0.1,0.5,0.1,0.9,0.2,1.1l-1.1,1.8c-0.2-0.1-0.3-0.4-0.3-0.8s0-1,0.1-1.9
				c0.1-0.8,0.1-1.4,0-1.8c0-1.2,0.1-2.1,0.3-2.5l0.2-0.2c0,0.4,0.2,0.9,0.6,1.4C350,13.2,350.2,13.4,350.3,13.6z"/>
			<path class="st0" d="M349.7,24.7c0.4,0,0.7,0,0.8,0.1c-0.5,0.6-1.3,1.3-2.3,2c-1,0.7-1.9,1.2-2.6,1.5v-0.2
				c0.4-0.4,0.8-0.8,1.2-1.3c0.4-0.5,0.6-0.7,0.6-0.7c0.2-0.2,0.5-0.4,1-0.8C348.9,24.9,349.3,24.7,349.7,24.7z"/>
			<path class="st0" d="M347.6,12.7l0.9-1.4c-0.1,0.9-0.2,1.9-0.2,3.2l-0.1,1.8L347.6,12.7z"/>
			<path class="st0" d="M348,19.6c0.1,0.5,0.1,0.9,0.1,1.1c-0.1,0.3-0.4,1-0.9,2.1c-0.1,0.2-0.2,0.4-0.3,0.6c-0.2,0-0.4,0-0.6,0
				c0.1-0.3,0.3-0.7,0.4-1c0.2-0.6,0.2-1.1,0-1.5l0.6-5.9l0.8,3.6C347.9,18.7,347.9,19,348,19.6z"/>
			<path d="M348,23.4c-0.1,0.2-0.2,0.3-0.2,0.5c-0.1,0.1-0.1,0.2-0.2,0.4c-0.2,0-0.4,0-0.6,0c-0.2,0-0.3,0-0.5,0
				c0.1-0.3,0.3-0.5,0.4-0.8C347.3,23.4,347.6,23.4,348,23.4z"/>
			<path class="st0" d="M346,24.8l1.2,0.1c-0.3,0.4-1.1,1-2.6,1.8c-1.4,0.9-2.3,1.3-2.7,1.3c0-0.9,0.4-1.6,1.4-2.2
				C344.3,25.1,345.2,24.8,346,24.8z"/>
			<path class="st0" d="M346.7,14.3c-0.2,1-0.3,2.2-0.3,3.7c-0.1,1.6-0.2,2.8-0.3,3.6c-0.3-0.2-0.5-0.6-0.5-1.4
				c-0.1-0.8-0.2-1.5-0.2-2.3c0-0.7,0-1.2,0-1.5c0-0.1,0.1-0.3,0.2-0.5c0.1-0.2,0.2-0.4,0.3-0.6C346.3,14.8,346.6,14.5,346.7,14.3z"
				/>
			<path d="M345.6,23.4c0.2,0,0.4,0,0.7,0c-0.1,0.2-0.2,0.4-0.3,0.5C345.8,23.8,345.7,23.6,345.6,23.4z"/>
			<path class="st0" d="M342.8,28.3l3-1.7c-0.3,0.6-0.7,1.1-1.2,1.7c-0.4,0.6-0.8,0.9-0.9,0.9h-2.4c0.5-0.7,0.9-1,1.2-1L342.8,28.3z
				"/>
			<path class="st0" d="M344.8,18.3l0.9,4.1l-0.2-0.1c0,0.2,0,0.5,0.1,0.9c0,0.1,0,0.1,0.1,0.2c-0.4,0-0.8,0-1.1,0
				c-0.1,0-0.2,0-0.3-0.1c0.1-1,0.2-2.2,0.5-3.7C344.7,18.8,344.8,18.4,344.8,18.3z"/>
			<path d="M344.2,23.3c0,0.3-0.1,0.5-0.1,0.8c-0.2,0-0.4,0-0.5,0c-0.1,0-0.2,0-0.3,0c0-0.1,0-0.2,0-0.3c0-0.2,0-0.4-0.1-0.6
				C343.5,23.2,343.8,23.2,344.2,23.3z"/>
			<path class="st0" d="M343.2,20.2l0.9-1.4c-0.2,0.4-0.2,0.8-0.1,1.4c0.1,0.6,0,1-0.1,1.2c-0.1-0.1-0.2-0.3-0.3-0.6
				C343.4,20.5,343.3,20.3,343.2,20.2z"/>
			<path class="st0" d="M343.2,23.2c-0.1,0-0.2,0-0.3,0c-0.6,0-1.1,0-1.6,0c0-0.1,0.1-0.2,0.1-0.3c0.4-0.6,0.8-1.1,1.3-1.4
				C342.9,21.6,343.1,22.1,343.2,23.2z"/>
			<path class="st0" d="M343,24.7c0.1,0,0.2,0,0.5-0.1c-0.5,0.3-0.9,0.7-1.2,1.2c-0.3,0.5-0.6,1.1-1,1.8c-0.3,0.8-0.6,1.2-0.8,1.2
				h-0.4c0-0.1,0.1-0.4,0.4-0.8c0-0.3-0.1-0.8-0.2-1.3c-0.2-0.5-0.3-0.9-0.3-1.2c0-0.3,0.1-0.6,0.3-0.7c0.2-0.1,0.5-0.2,0.9-0.2
				c0.1,0,0.3,0.1,0.4,0.1l0.8-0.1c0.1,0,0.2,0,0.3,0.1C342.7,24.7,342.8,24.7,343,24.7z"/>
			<path d="M341.3,23.2c-0.1,0.2-0.2,0.5-0.2,0.7c-0.2,0-0.3,0-0.5,0c-0.4,0-0.8,0.1-1.1,0.2c0-0.1,0-0.3,0-0.4
				c0-0.1,0.1-0.1,0.2-0.2C340,23.3,340.6,23.2,341.3,23.2z"/>
		</g>
		<g>
		</g>
	</g>
</g>
</svg>
